<svg xmlns="http://www.w3.org/2000/svg" viewBox="0 0 450.87 178.27">
  <polyline points="137.89 169.28 152.22 176.48 166.29 169.28 180.03 176.48 193.12 169.28 207.03 176.48 220.45 169.28 233.87 176.48 247.61 169.28 261.03 176.48 274.28 169.28 287.7 176.48 301.28 169.28 314.86 176.48 328.6 169.28 342.02 176.48 355.93 169.28 369.02 176.48" style="fill: none;stroke: #000;stroke-miterlimit: 10;stroke-width: 3px"/>
  <polyline points="163.89 141.38 178.22 148.57 192.29 141.38 206.03 148.57 219.12 141.38 233.03 148.57 246.45 141.38 259.87 148.57 273.61 141.38 287.03 148.57 300.28 141.38 313.7 148.57 327.28 141.38 340.86 148.57 354.6 141.38 368.02 148.57 381.93 141.38 395.02 148.57" style="fill: none;stroke: #000;stroke-miterlimit: 10;stroke-width: 3px"/>
  <polyline points="190.89 113.47 205.22 120.67 219.29 113.47 233.03 120.67 246.12 113.47 260.03 120.67 273.45 113.47 286.87 120.67 300.61 113.47 314.03 120.67 327.28 113.47 340.7 120.67 354.28 113.47 367.86 120.67 381.6 113.47 395.02 120.67 408.93 113.47 422.02 120.67" style="fill: none;stroke: #000;stroke-miterlimit: 10;stroke-width: 3px"/>
  <polyline points="191.89 85.57 206.22 92.77 220.29 85.57 234.03 92.77 247.12 85.57 261.03 92.77 274.45 85.57 287.87 92.77 301.61 85.57 315.03 92.77 328.28 85.57 341.7 92.77 355.28 85.57 368.86 92.77 382.6 85.57 396.02 92.77 409.93 85.57 423.02 92.77" style="fill: none;stroke: #000;stroke-miterlimit: 10;stroke-width: 3px"/>
  <polyline points="0.85 57.66 15.18 64.86 29.25 57.66 43 64.86 56.09 57.66 69.99 64.86 83.41 57.66 96.83 64.86 110.57 57.66 123.99 64.86 137.24 57.66 150.66 64.86 164.24 57.66 177.82 64.86 191.56 57.66 204.98 64.86 218.89 57.66 218.89 57.66 233.22 64.86 247.29 57.66 261.04 64.86 274.12 57.66 288.03 64.86 301.45 57.66 314.87 64.86 328.61 57.66 342.03 64.86 355.28 57.66 368.7 64.86 382.28 57.66 395.86 64.86 409.6 57.66 423.02 64.86 436.93 57.66 450.02 64.86" style="fill: none;stroke: #000;stroke-miterlimit: 10;stroke-width: 3px"/>
  <polyline points="0.85 29.76 15.18 36.96 29.25 29.76 43 36.96 56.09 29.76 69.99 36.96 83.41 29.76 96.83 36.96 110.57 29.76 123.99 36.96 137.24 29.76 150.66 36.96 164.24 29.76 177.82 36.96 191.56 29.76 204.98 36.96 218.89 29.76 218.89 29.76 233.22 36.96 247.29 29.76 261.04 36.96 274.12 29.76 288.03 36.96 301.45 29.76 314.87 36.96 328.61 29.76 342.03 36.96 355.28 29.76 368.7 36.96 382.28 29.76 395.86 36.96 409.6 29.76 423.02 36.96 436.93 29.76 450.02 36.96" style="fill: none;stroke: #000;stroke-miterlimit: 10;stroke-width: 3px"/>
  <polyline points="0.85 1.85 15.18 9.05 29.25 1.85 43 9.05 56.09 1.85 69.99 9.05 83.41 1.85 96.83 9.05 110.57 1.85 123.99 9.05 137.24 1.85 150.66 9.05 164.24 1.85 177.82 9.05 191.56 1.85 204.98 9.05 218.89 1.85 218.89 1.85 233.22 9.05 247.29 1.85 261.04 9.05 274.12 1.85 288.03 9.05 301.45 1.85 314.87 9.05 328.61 1.85 342.03 9.05 355.28 1.85 368.7 9.05 382.28 1.85 395.86 9.05 409.6 1.85 423.02 9.05 436.93 1.85 450.02 9.05" style="fill: none;stroke: #000;stroke-miterlimit: 10;stroke-width: 3px"/>
</svg>
