<svg xmlns="http://www.w3.org/2000/svg" viewBox="0 0 317.19 624.63">
  <defs>
    <clipPath id="clip-path">
      <path d="M0,624.63V17.11S291.34-88.81,317,226.41c3.54,54.54-44.65,99.34-44.65,99.34s-71.09,73.7-45,177.18,52.13,121.7,52.13,121.7Z" style="fill: none"/>
    </clipPath>
  </defs>
  <g style="clip-path: url(#clip-path)">
    <g>
      <circle cx="24.35" cy="14.02" r="6.7"/>
      <circle cx="2.75" cy="35.62" r="6.7"/>
      <circle cx="67.54" cy="14.01" r="6.7"/>
      <circle cx="45.94" cy="35.61" r="6.7"/>
      <circle cx="24.34" cy="57.21" r="6.7"/>
      <circle cx="2.74" cy="78.8" r="6.7"/>
      <circle cx="110.72" cy="14" r="6.7"/>
      <circle cx="89.12" cy="35.6" r="6.7"/>
      <circle cx="67.52" cy="57.19" r="6.7"/>
      <circle cx="45.93" cy="78.79" r="6.7"/>
      <circle cx="24.33" cy="100.39" r="6.7"/>
      <circle cx="153.9" cy="13.99" r="6.7"/>
      <circle cx="132.31" cy="35.59" r="6.7"/>
      <circle cx="110.71" cy="57.18" r="6.7"/>
      <circle cx="89.11" cy="78.78" r="6.7"/>
      <circle cx="67.51" cy="100.38" r="6.7"/>
      <circle cx="45.91" cy="121.98" r="6.7"/>
      <circle cx="197.09" cy="13.98" r="6.7"/>
      <circle cx="175.49" cy="35.57" r="6.7"/>
      <circle cx="153.89" cy="57.17" r="6.7"/>
      <circle cx="132.3" cy="78.77" r="6.7"/>
      <circle cx="110.7" cy="100.37" r="6.7"/>
      <circle cx="89.1" cy="121.97" r="6.7"/>
      <circle cx="67.5" cy="143.56" r="6.7"/>
      <circle cx="240.27" cy="13.96" r="6.7"/>
      <circle cx="218.68" cy="35.56" r="6.7"/>
      <circle cx="197.08" cy="57.16" r="6.7"/>
      <circle cx="175.48" cy="78.76" r="6.7"/>
      <circle cx="153.88" cy="100.36" r="6.7"/>
      <circle cx="132.28" cy="121.95" r="6.7"/>
      <circle cx="110.69" cy="143.55" r="6.7"/>
      <circle cx="89.09" cy="165.15" r="6.7"/>
      <path d="M288.19,9.22a6.7,6.7,0,1,0,0,9.47A6.69,6.69,0,0,0,288.19,9.22Z"/>
      <path d="M266.6,30.82a6.7,6.7,0,1,0,0,9.47A6.69,6.69,0,0,0,266.6,30.82Z"/>
      <path d="M245,52.41a6.7,6.7,0,1,0,0,9.47A6.71,6.71,0,0,0,245,52.41Z"/>
      <path d="M223.4,74a6.7,6.7,0,1,0,0,9.47A6.71,6.71,0,0,0,223.4,74Z"/>
      <path d="M201.8,95.61a6.7,6.7,0,1,0,0,9.47A6.71,6.71,0,0,0,201.8,95.61Z"/>
      <path d="M180.2,117.21a6.7,6.7,0,1,0,0,9.47A6.69,6.69,0,0,0,180.2,117.21Z"/>
      <path d="M158.6,138.81a6.69,6.69,0,1,0,0,9.47A6.68,6.68,0,0,0,158.6,138.81Z"/>
      <path d="M137,160.41a6.69,6.69,0,1,0,0,9.46A6.7,6.7,0,0,0,137,160.41Z"/>
      <path d="M115.41,182a6.7,6.7,0,1,0,0,9.47A6.71,6.71,0,0,0,115.41,182Z"/>
      <path d="M309.78,30.8a6.7,6.7,0,1,0,0,9.47A6.71,6.71,0,0,0,309.78,30.8Z"/>
      <path d="M288.18,52.4a6.7,6.7,0,1,0,0,9.47A6.71,6.71,0,0,0,288.18,52.4Z"/>
      <path d="M266.58,74a6.69,6.69,0,1,0,0,9.47A6.69,6.69,0,0,0,266.58,74Z"/>
      <path d="M245,95.6a6.7,6.7,0,1,0,0,9.47A6.69,6.69,0,0,0,245,95.6Z"/>
      <path d="M223.39,117.2a6.7,6.7,0,1,0,0,9.47A6.69,6.69,0,0,0,223.39,117.2Z"/>
      <path d="M201.79,138.8a6.69,6.69,0,1,0,0,9.46A6.69,6.69,0,0,0,201.79,138.8Z"/>
      <path d="M180.19,160.39a6.7,6.7,0,1,0,0,9.47A6.71,6.71,0,0,0,180.19,160.39Z"/>
      <path d="M158.59,182a6.7,6.7,0,1,0,0,9.47A6.71,6.71,0,0,0,158.59,182Z"/>
      <path d="M137,203.59a6.69,6.69,0,1,0,0,9.47A6.69,6.69,0,0,0,137,203.59Z"/>
      <circle cx="305.03" cy="78.72" r="6.7"/>
      <circle cx="283.44" cy="100.32" r="6.7"/>
      <circle cx="261.84" cy="121.92" r="6.7"/>
      <circle cx="240.24" cy="143.52" r="6.7"/>
      <circle cx="218.64" cy="165.12" r="6.7"/>
      <circle cx="197.04" cy="186.71" r="6.7"/>
      <circle cx="175.45" cy="208.31" r="6.7"/>
      <circle cx="153.85" cy="229.91" r="6.7"/>
      <circle cx="305.02" cy="121.91" r="6.7"/>
      <circle cx="283.42" cy="143.51" r="6.7"/>
      <circle cx="261.83" cy="165.1" r="6.7"/>
      <circle cx="240.23" cy="186.7" r="6.7"/>
      <circle cx="218.63" cy="208.3" r="6.7"/>
      <circle cx="197.03" cy="229.9" r="6.7"/>
      <circle cx="175.43" cy="251.5" r="6.7"/>
      <circle cx="2.73" cy="121.99" r="6.7"/>
      <circle cx="24.32" cy="143.58" r="6.7"/>
      <path d="M7.45,160.44a6.7,6.7,0,1,0,0,9.47A6.69,6.69,0,0,0,7.45,160.44Z"/>
      <circle cx="45.9" cy="165.16" r="6.7"/>
      <path d="M29,182a6.69,6.69,0,1,0,0,9.46A6.69,6.69,0,0,0,29,182Z"/>
      <path d="M7.44,203.62a6.7,6.7,0,1,0,0,9.47A6.71,6.71,0,0,0,7.44,203.62Z"/>
      <circle cx="67.49" cy="186.75" r="6.7"/>
      <path d="M50.63,203.61a6.7,6.7,0,1,0,0,9.47A6.71,6.71,0,0,0,50.63,203.61Z"/>
      <path d="M29,225.21a6.7,6.7,0,1,0,0,9.47A6.71,6.71,0,0,0,29,225.21Z"/>
      <path d="M7.43,246.81a6.7,6.7,0,1,0,0,9.47A6.69,6.69,0,0,0,7.43,246.81Z"/>
      <path d="M93.81,203.6a6.7,6.7,0,1,0,0,9.47A6.71,6.71,0,0,0,93.81,203.6Z"/>
      <path d="M72.21,225.2a6.7,6.7,0,1,0,0,9.47A6.69,6.69,0,0,0,72.21,225.2Z"/>
      <path d="M50.61,246.8a6.69,6.69,0,1,0,0,9.47A6.68,6.68,0,0,0,50.61,246.8Z"/>
      <path d="M29,268.4a6.69,6.69,0,1,0,0,9.46A6.69,6.69,0,0,0,29,268.4Z"/>
      <path d="M7.42,290a6.7,6.7,0,1,0,0,9.47A6.71,6.71,0,0,0,7.42,290Z"/>
      <path d="M115.4,225.19a6.7,6.7,0,1,0,0,9.47A6.69,6.69,0,0,0,115.4,225.19Z"/>
      <path d="M93.8,246.79a6.69,6.69,0,1,0,0,9.46A6.69,6.69,0,0,0,93.8,246.79Z"/>
      <path d="M72.2,268.38a6.7,6.7,0,1,0,0,9.47A6.71,6.71,0,0,0,72.2,268.38Z"/>
      <path d="M50.6,290a6.7,6.7,0,1,0,0,9.47A6.71,6.71,0,0,0,50.6,290Z"/>
      <path d="M29,311.58a6.69,6.69,0,1,0,0,9.47A6.69,6.69,0,0,0,29,311.58Z"/>
      <path d="M7.41,333.18a6.7,6.7,0,1,0,0,9.47A6.69,6.69,0,0,0,7.41,333.18Z"/>
      <circle cx="132.25" cy="251.51" r="6.7"/>
      <path d="M115.39,268.37a6.7,6.7,0,1,0,0,9.47A6.71,6.71,0,0,0,115.39,268.37Z"/>
      <path d="M93.79,290a6.7,6.7,0,1,0,0,9.47A6.71,6.71,0,0,0,93.79,290Z"/>
      <path d="M72.19,311.57a6.7,6.7,0,1,0,0,9.47A6.69,6.69,0,0,0,72.19,311.57Z"/>
      <circle cx="45.86" cy="337.9" r="6.7"/>
      <circle cx="24.26" cy="359.5" r="6.7"/>
      <circle cx="2.66" cy="381.1" r="6.7"/>
      <circle cx="153.84" cy="273.1" r="6.7"/>
      <path d="M137,290a6.7,6.7,0,1,0,0,9.47A6.69,6.69,0,0,0,137,290Z"/>
      <path d="M115.37,311.56a6.69,6.69,0,1,0,0,9.47A6.68,6.68,0,0,0,115.37,311.56Z"/>
      <path d="M93.78,333.16a6.69,6.69,0,1,0,0,9.46A6.69,6.69,0,0,0,93.78,333.16Z"/>
      <circle cx="67.44" cy="359.49" r="6.7"/>
      <circle cx="45.85" cy="381.09" r="6.7"/>
      <circle cx="24.25" cy="402.68" r="6.7"/>
      <circle cx="2.65" cy="424.28" r="6.7"/>
      <circle cx="305.01" cy="165.09" r="6.7"/>
      <circle cx="283.41" cy="186.69" r="6.7"/>
      <circle cx="261.81" cy="208.29" r="6.7"/>
      <circle cx="240.22" cy="229.89" r="6.7"/>
      <circle cx="218.62" cy="251.49" r="6.7"/>
      <circle cx="197.02" cy="273.08" r="6.7"/>
      <circle cx="305" cy="208.28" r="6.7"/>
      <circle cx="283.4" cy="229.88" r="6.7"/>
      <circle cx="261.8" cy="251.47" r="6.7"/>
      <circle cx="240.21" cy="273.07" r="6.7"/>
      <circle cx="218.61" cy="294.67" r="6.7"/>
      <circle cx="304.99" cy="251.46" r="6.7"/>
      <circle cx="283.39" cy="273.06" r="6.7"/>
      <circle cx="261.79" cy="294.66" r="6.7"/>
      <circle cx="240.19" cy="316.26" r="6.7"/>
      <circle cx="304.98" cy="294.65" r="6.7"/>
      <circle cx="283.38" cy="316.25" r="6.7"/>
      <circle cx="261.78" cy="337.84" r="6.7"/>
      <circle cx="304.97" cy="337.83" r="6.7"/>
      <circle cx="283.37" cy="359.43" r="6.7"/>
      <path d="M309.69,376.28a6.7,6.7,0,1,0,0,9.47A6.71,6.71,0,0,0,309.69,376.28Z"/>
      <circle cx="175.42" cy="294.68" r="6.7"/>
      <path d="M158.56,311.55a6.69,6.69,0,1,0,0,9.46A6.69,6.69,0,0,0,158.56,311.55Z"/>
      <path d="M137,333.14a6.7,6.7,0,1,0,0,9.47A6.71,6.71,0,0,0,137,333.14Z"/>
      <path d="M115.36,354.74a6.7,6.7,0,1,0,0,9.47A6.71,6.71,0,0,0,115.36,354.74Z"/>
      <circle cx="89.03" cy="381.07" r="6.7"/>
      <circle cx="67.43" cy="402.67" r="6.7"/>
      <circle cx="45.83" cy="424.27" r="6.7"/>
      <circle cx="24.24" cy="445.87" r="6.7"/>
      <circle cx="2.64" cy="467.47" r="6.7"/>
      <circle cx="197.01" cy="316.27" r="6.7"/>
      <path d="M180.15,333.13a6.7,6.7,0,1,0,0,9.47A6.71,6.71,0,0,0,180.15,333.13Z"/>
      <path d="M158.55,354.73a6.7,6.7,0,1,0,0,9.47A6.71,6.71,0,0,0,158.55,354.73Z"/>
      <path d="M137,376.33a6.7,6.7,0,1,0,0,9.47A6.69,6.69,0,0,0,137,376.33Z"/>
      <circle cx="110.62" cy="402.66" r="6.7"/>
      <circle cx="89.02" cy="424.26" r="6.7"/>
      <circle cx="67.42" cy="445.86" r="6.7"/>
      <circle cx="45.82" cy="467.46" r="6.7"/>
      <circle cx="24.22" cy="489.05" r="6.7"/>
      <circle cx="2.63" cy="510.65" r="6.7"/>
      <circle cx="218.6" cy="337.86" r="6.7"/>
      <path d="M201.73,354.72a6.7,6.7,0,1,0,0,9.47A6.69,6.69,0,0,0,201.73,354.72Z"/>
      <path d="M180.13,376.32a6.69,6.69,0,1,0,0,9.47A6.68,6.68,0,0,0,180.13,376.32Z"/>
      <path d="M158.54,397.92a6.69,6.69,0,1,0,0,9.46A6.69,6.69,0,0,0,158.54,397.92Z"/>
      <circle cx="132.2" cy="424.25" r="6.7"/>
      <circle cx="110.61" cy="445.85" r="6.7"/>
      <circle cx="89.01" cy="467.44" r="6.7"/>
      <circle cx="67.41" cy="489.04" r="6.7"/>
      <circle cx="45.81" cy="510.64" r="6.7"/>
      <circle cx="24.21" cy="532.24" r="6.7"/>
      <circle cx="2.61" cy="553.84" r="6.7"/>
      <circle cx="240.18" cy="359.44" r="6.7"/>
      <path d="M223.32,376.31a6.69,6.69,0,1,0,0,9.46A6.69,6.69,0,0,0,223.32,376.31Z"/>
      <path d="M201.72,397.9a6.7,6.7,0,1,0,0,9.47A6.71,6.71,0,0,0,201.72,397.9Z"/>
      <path d="M180.12,419.5a6.7,6.7,0,1,0,0,9.47A6.71,6.71,0,0,0,180.12,419.5Z"/>
      <circle cx="153.79" cy="445.83" r="6.7"/>
      <circle cx="132.19" cy="467.43" r="6.7"/>
      <circle cx="110.59" cy="489.03" r="6.7"/>
      <circle cx="89" cy="510.63" r="6.7"/>
      <circle cx="67.4" cy="532.23" r="6.7"/>
      <circle cx="45.8" cy="553.82" r="6.7"/>
      <circle cx="24.2" cy="575.42" r="6.7"/>
      <circle cx="2.6" cy="597.02" r="6.7"/>
      <circle cx="261.77" cy="381.03" r="6.7"/>
      <path d="M244.91,397.89a6.7,6.7,0,1,0,0,9.47A6.71,6.71,0,0,0,244.91,397.89Z"/>
      <path d="M223.31,419.49a6.7,6.7,0,1,0,0,9.47A6.71,6.71,0,0,0,223.31,419.49Z"/>
      <path d="M201.71,441.09a6.7,6.7,0,1,0,0,9.47A6.69,6.69,0,0,0,201.71,441.09Z"/>
      <circle cx="175.38" cy="467.42" r="6.7"/>
      <circle cx="153.78" cy="489.02" r="6.7"/>
      <circle cx="132.18" cy="510.62" r="6.7"/>
      <circle cx="110.58" cy="532.22" r="6.7"/>
      <circle cx="88.98" cy="553.81" r="6.7"/>
      <circle cx="67.39" cy="575.41" r="6.7"/>
      <circle cx="45.79" cy="597.01" r="6.7"/>
      <circle cx="24.19" cy="618.61" r="6.7"/>
      <path d="M288.09,397.88a6.7,6.7,0,1,0,0,9.47A6.71,6.71,0,0,0,288.09,397.88Z"/>
      <path d="M266.49,419.48a6.7,6.7,0,1,0,0,9.47A6.69,6.69,0,0,0,266.49,419.48Z"/>
      <path d="M244.89,441.08a6.69,6.69,0,1,0,0,9.47A6.68,6.68,0,0,0,244.89,441.08Z"/>
      <path d="M223.3,462.68a6.69,6.69,0,1,0,0,9.46A6.69,6.69,0,0,0,223.3,462.68Z"/>
      <path d="M201.7,484.27a6.7,6.7,0,1,0,0,9.47A6.71,6.71,0,0,0,201.7,484.27Z"/>
      <path d="M180.1,505.87a6.7,6.7,0,1,0,0,9.47A6.71,6.71,0,0,0,180.1,505.87Z"/>
      <path d="M158.5,527.47a6.7,6.7,0,1,0,0,9.47A6.7,6.7,0,0,0,158.5,527.47Z"/>
      <path d="M136.9,549.07a6.7,6.7,0,1,0,0,9.47A6.69,6.69,0,0,0,136.9,549.07Z"/>
      <path d="M115.31,570.67a6.69,6.69,0,1,0,0,9.46A6.69,6.69,0,0,0,115.31,570.67Z"/>
      <path d="M93.71,592.26a6.7,6.7,0,1,0,0,9.47A6.71,6.71,0,0,0,93.71,592.26Z"/>
      <path d="M72.11,613.86a6.7,6.7,0,1,0,0,9.47A6.71,6.71,0,0,0,72.11,613.86Z"/>
      <circle cx="304.94" cy="424.2" r="6.7"/>
      <path d="M288.08,441.07a6.69,6.69,0,1,0,0,9.46A6.69,6.69,0,0,0,288.08,441.07Z"/>
      <path d="M266.48,462.66a6.7,6.7,0,1,0,0,9.47A6.71,6.71,0,0,0,266.48,462.66Z"/>
      <path d="M244.88,484.26a6.7,6.7,0,1,0,0,9.47A6.71,6.71,0,0,0,244.88,484.26Z"/>
      <circle cx="218.55" cy="510.59" r="6.7"/>
      <circle cx="196.95" cy="532.19" r="6.7"/>
      <circle cx="175.35" cy="553.79" r="6.7"/>
      <circle cx="153.76" cy="575.39" r="6.7"/>
      <circle cx="132.16" cy="596.99" r="6.7"/>
      <circle cx="110.56" cy="618.58" r="6.7"/>
      <path d="M309.67,462.65a6.7,6.7,0,1,0,0,9.47A6.71,6.71,0,0,0,309.67,462.65Z"/>
      <path d="M288.07,484.25a6.7,6.7,0,1,0,0,9.47A6.71,6.71,0,0,0,288.07,484.25Z"/>
      <path d="M266.47,505.85a6.7,6.7,0,1,0,0,9.47A6.69,6.69,0,0,0,266.47,505.85Z"/>
      <circle cx="240.14" cy="532.18" r="6.7"/>
      <circle cx="218.54" cy="553.78" r="6.7"/>
      <circle cx="196.94" cy="575.38" r="6.7"/>
      <circle cx="175.34" cy="596.98" r="6.7"/>
      <circle cx="153.74" cy="618.57" r="6.7"/>
      <path d="M309.65,505.84a6.69,6.69,0,1,0,0,9.47A6.68,6.68,0,0,0,309.65,505.84Z"/>
      <path d="M288.06,527.44a6.69,6.69,0,1,0,0,9.46A6.69,6.69,0,0,0,288.06,527.44Z"/>
      <circle cx="261.72" cy="553.77" r="6.7"/>
      <circle cx="240.13" cy="575.37" r="6.7"/>
      <circle cx="218.53" cy="596.96" r="6.7"/>
      <circle cx="196.93" cy="618.56" r="6.7"/>
      <path d="M309.64,549a6.7,6.7,0,1,0,0,9.47A6.71,6.71,0,0,0,309.64,549Z"/>
      <circle cx="283.31" cy="575.35" r="6.7"/>
      <circle cx="261.71" cy="596.95" r="6.7"/>
      <circle cx="240.11" cy="618.55" r="6.7"/>
      <circle cx="304.9" cy="596.94" r="6.7"/>
      <circle cx="283.3" cy="618.54" r="6.7"/>
    </g>
  </g>
</svg>
