<svg xmlns="http://www.w3.org/2000/svg" xmlns:xlink="http://www.w3.org/1999/xlink" viewBox="0 0 573.93 473.05">
  <defs>
    <clipPath id="clip-path">
      <path d="M573.93,68.12V473.05H4.4S34.3,421.57,22,362.66,4.4,262.32,4.4,262.32s-20.59-68,27.31-131.41S163.77,22.81,163.77,22.81s82.17-56.27,213.47,8.93C508.54,104.09,573.93,68.12,573.93,68.12Z" style="fill: none"/>
    </clipPath>
  </defs>
  <g style="clip-path: url(#clip-path)">
    <g>
      <circle cx="182.35" cy="4.76" r="6.7"/>
      <path d="M230.27,0a6.7,6.7,0,1,0,0,9.47A6.71,6.71,0,0,0,230.27,0Z"/>
      <path d="M208.67,21.61a6.69,6.69,0,1,0,0,9.47A6.68,6.68,0,0,0,208.67,21.61Z"/>
      <path d="M273.46,0a6.7,6.7,0,1,0,0,9.47A6.71,6.71,0,0,0,273.46,0Z"/>
      <path d="M251.86,21.6a6.7,6.7,0,1,0,0,9.47A6.69,6.69,0,0,0,251.86,21.6Z"/>
      <path d="M230.26,43.2a6.69,6.69,0,1,0,0,9.46A6.69,6.69,0,0,0,230.26,43.2Z"/>
      <circle cx="311.91" cy="4.72" r="6.7"/>
      <circle cx="290.31" cy="26.32" r="6.7"/>
      <circle cx="268.71" cy="47.92" r="6.7"/>
      <circle cx="247.11" cy="69.52" r="6.7"/>
      <circle cx="333.49" cy="26.31" r="6.7"/>
      <circle cx="311.9" cy="47.91" r="6.7"/>
      <circle cx="290.3" cy="69.51" r="6.7"/>
      <circle cx="268.7" cy="91.1" r="6.7"/>
      <circle cx="376.68" cy="26.3" r="6.7"/>
      <circle cx="355.08" cy="47.9" r="6.7"/>
      <circle cx="333.48" cy="69.49" r="6.7"/>
      <circle cx="311.88" cy="91.09" r="6.7"/>
      <circle cx="290.29" cy="112.69" r="6.7"/>
      <circle cx="398.27" cy="47.88" r="6.7"/>
      <circle cx="376.67" cy="69.48" r="6.7"/>
      <circle cx="355.07" cy="91.08" r="6.7"/>
      <circle cx="333.47" cy="112.68" r="6.7"/>
      <circle cx="311.87" cy="134.28" r="6.7"/>
      <circle cx="441.45" cy="47.87" r="6.7"/>
      <circle cx="419.85" cy="69.47" r="6.7"/>
      <circle cx="398.25" cy="91.07" r="6.7"/>
      <circle cx="376.66" cy="112.67" r="6.7"/>
      <circle cx="355.06" cy="134.27" r="6.7"/>
      <circle cx="333.46" cy="155.86" r="6.7"/>
      <circle cx="463.04" cy="69.46" r="6.7"/>
      <circle cx="441.44" cy="91.06" r="6.7"/>
      <circle cx="419.84" cy="112.66" r="6.7"/>
      <circle cx="398.24" cy="134.25" r="6.7"/>
      <circle cx="376.64" cy="155.85" r="6.7"/>
      <circle cx="355.05" cy="177.45" r="6.7"/>
      <circle cx="506.22" cy="69.45" r="6.7"/>
      <circle cx="484.62" cy="91.05" r="6.7"/>
      <circle cx="463.03" cy="112.64" r="6.7"/>
      <circle cx="441.43" cy="134.24" r="6.7"/>
      <circle cx="419.83" cy="155.84" r="6.7"/>
      <circle cx="398.23" cy="177.44" r="6.7"/>
      <circle cx="376.63" cy="199.04" r="6.7"/>
      <path d="M554.14,64.7a6.7,6.7,0,1,0,0,9.47A6.71,6.71,0,0,0,554.14,64.7Z"/>
      <path d="M532.54,86.3a6.7,6.7,0,1,0,0,9.47A6.71,6.71,0,0,0,532.54,86.3Z"/>
      <path d="M510.94,107.9a6.69,6.69,0,1,0,0,9.47A6.68,6.68,0,0,0,510.94,107.9Z"/>
      <path d="M489.35,129.5a6.7,6.7,0,1,0,0,9.47A6.69,6.69,0,0,0,489.35,129.5Z"/>
      <path d="M467.75,151.1a6.69,6.69,0,1,0,0,9.46A6.69,6.69,0,0,0,467.75,151.1Z"/>
      <path d="M446.15,172.69a6.7,6.7,0,1,0,0,9.47A6.71,6.71,0,0,0,446.15,172.69Z"/>
      <path d="M424.55,194.29a6.7,6.7,0,1,0,0,9.47A6.71,6.71,0,0,0,424.55,194.29Z"/>
      <path d="M403,215.89a6.69,6.69,0,1,0,0,9.47A6.69,6.69,0,0,0,403,215.89Z"/>
      <path d="M575.73,86.29a6.7,6.7,0,1,0,0,9.47A6.69,6.69,0,0,0,575.73,86.29Z"/>
      <path d="M554.13,107.89a6.7,6.7,0,1,0,0,9.47A6.69,6.69,0,0,0,554.13,107.89Z"/>
      <path d="M532.53,129.49a6.69,6.69,0,1,0,0,9.46A6.69,6.69,0,0,0,532.53,129.49Z"/>
      <path d="M510.93,151.08a6.7,6.7,0,1,0,0,9.47A6.71,6.71,0,0,0,510.93,151.08Z"/>
      <path d="M489.33,172.68a6.69,6.69,0,1,0,0,9.47A6.69,6.69,0,0,0,489.33,172.68Z"/>
      <path d="M467.74,194.28a6.7,6.7,0,1,0,0,9.47A6.71,6.71,0,0,0,467.74,194.28Z"/>
      <path d="M446.14,215.88a6.7,6.7,0,1,0,0,9.47A6.69,6.69,0,0,0,446.14,215.88Z"/>
      <path d="M424.54,237.48a6.69,6.69,0,1,0,0,9.46A6.69,6.69,0,0,0,424.54,237.48Z"/>
      <circle cx="570.98" cy="134.21" r="6.7"/>
      <circle cx="549.38" cy="155.81" r="6.7"/>
      <circle cx="527.79" cy="177.4" r="6.7"/>
      <circle cx="506.19" cy="199" r="6.7"/>
      <circle cx="484.59" cy="220.6" r="6.7"/>
      <circle cx="462.99" cy="242.2" r="6.7"/>
      <circle cx="441.39" cy="263.8" r="6.7"/>
      <circle cx="570.97" cy="177.39" r="6.7"/>
      <circle cx="549.37" cy="198.99" r="6.7"/>
      <circle cx="527.77" cy="220.59" r="6.7"/>
      <circle cx="506.18" cy="242.19" r="6.7"/>
      <circle cx="484.58" cy="263.79" r="6.7"/>
      <circle cx="462.98" cy="285.38" r="6.7"/>
      <path d="M79.11,64.83a6.7,6.7,0,1,0,0,9.47A6.69,6.69,0,0,0,79.11,64.83Z"/>
      <circle cx="52.78" cy="91.16" r="6.7"/>
      <circle cx="31.18" cy="112.76" r="6.7"/>
      <circle cx="9.58" cy="134.36" r="6.7"/>
      <circle cx="160.75" cy="26.36" r="6.7"/>
      <path d="M143.89,43.22a6.7,6.7,0,1,0,0,9.47A6.69,6.69,0,0,0,143.89,43.22Z"/>
      <path d="M122.29,64.82a6.7,6.7,0,1,0,0,9.47A6.69,6.69,0,0,0,122.29,64.82Z"/>
      <path d="M100.69,86.42a6.69,6.69,0,1,0,0,9.46A6.68,6.68,0,0,0,100.69,86.42Z"/>
      <circle cx="74.36" cy="112.75" r="6.7"/>
      <circle cx="52.76" cy="134.35" r="6.7"/>
      <circle cx="31.17" cy="155.94" r="6.7"/>
      <circle cx="9.57" cy="177.54" r="6.7"/>
      <path d="M187.08,43.21a6.7,6.7,0,1,0,0,9.47A6.69,6.69,0,0,0,187.08,43.21Z"/>
      <path d="M165.48,64.81a6.69,6.69,0,1,0,0,9.46A6.69,6.69,0,0,0,165.48,64.81Z"/>
      <path d="M143.88,86.4a6.7,6.7,0,1,0,0,9.47A6.71,6.71,0,0,0,143.88,86.4Z"/>
      <path d="M122.28,108a6.7,6.7,0,1,0,0,9.47A6.71,6.71,0,0,0,122.28,108Z"/>
      <path d="M100.68,129.6a6.7,6.7,0,1,0,0,9.47A6.71,6.71,0,0,0,100.68,129.6Z"/>
      <path d="M79.09,151.2a6.7,6.7,0,1,0,0,9.47A6.69,6.69,0,0,0,79.09,151.2Z"/>
      <path d="M57.49,172.8a6.69,6.69,0,1,0,0,9.46A6.69,6.69,0,0,0,57.49,172.8Z"/>
      <path d="M35.89,194.39a6.7,6.7,0,1,0,0,9.47A6.71,6.71,0,0,0,35.89,194.39Z"/>
      <path d="M14.29,216a6.7,6.7,0,1,0,0,9.47A6.71,6.71,0,0,0,14.29,216Z"/>
      <path d="M208.66,64.79a6.7,6.7,0,1,0,0,9.47A6.71,6.71,0,0,0,208.66,64.79Z"/>
      <path d="M187.06,86.39a6.69,6.69,0,1,0,0,9.47A6.69,6.69,0,0,0,187.06,86.39Z"/>
      <path d="M165.47,108a6.7,6.7,0,1,0,0,9.47A6.71,6.71,0,0,0,165.47,108Z"/>
      <path d="M143.87,129.59a6.7,6.7,0,1,0,0,9.47A6.69,6.69,0,0,0,143.87,129.59Z"/>
      <path d="M122.27,151.19a6.7,6.7,0,1,0,0,9.47A6.69,6.69,0,0,0,122.27,151.19Z"/>
      <path d="M100.67,172.78a6.7,6.7,0,1,0,0,9.47A6.71,6.71,0,0,0,100.67,172.78Z"/>
      <path d="M79.07,194.38a6.69,6.69,0,1,0,0,9.47A6.69,6.69,0,0,0,79.07,194.38Z"/>
      <path d="M57.48,216a6.7,6.7,0,1,0,0,9.47A6.71,6.71,0,0,0,57.48,216Z"/>
      <path d="M35.88,237.58a6.7,6.7,0,1,0,0,9.47A6.69,6.69,0,0,0,35.88,237.58Z"/>
      <path d="M14.28,259.18a6.7,6.7,0,1,0,0,9.47A6.69,6.69,0,0,0,14.28,259.18Z"/>
      <circle cx="225.51" cy="91.12" r="6.7"/>
      <path d="M208.65,108a6.7,6.7,0,1,0,0,9.47A6.69,6.69,0,0,0,208.65,108Z"/>
      <path d="M187.05,129.58a6.7,6.7,0,1,0,0,9.47A6.69,6.69,0,0,0,187.05,129.58Z"/>
      <path d="M165.45,151.18a6.69,6.69,0,1,0,0,9.46A6.68,6.68,0,0,0,165.45,151.18Z"/>
      <circle cx="139.12" cy="177.51" r="6.7"/>
      <circle cx="117.52" cy="199.11" r="6.7"/>
      <circle cx="95.93" cy="220.7" r="6.7"/>
      <circle cx="74.33" cy="242.3" r="6.7"/>
      <circle cx="52.73" cy="263.9" r="6.7"/>
      <circle cx="31.13" cy="285.5" r="6.7"/>
      <circle cx="9.53" cy="307.1" r="6.7"/>
      <circle cx="247.1" cy="112.7" r="6.7"/>
      <path d="M230.24,129.57a6.69,6.69,0,1,0,0,9.46A6.69,6.69,0,0,0,230.24,129.57Z"/>
      <path d="M208.64,151.16a6.7,6.7,0,1,0,0,9.47A6.71,6.71,0,0,0,208.64,151.16Z"/>
      <path d="M187,172.76a6.7,6.7,0,1,0,0,9.47A6.71,6.71,0,0,0,187,172.76Z"/>
      <circle cx="160.71" cy="199.09" r="6.7"/>
      <circle cx="139.11" cy="220.69" r="6.7"/>
      <circle cx="117.51" cy="242.29" r="6.7"/>
      <circle cx="95.91" cy="263.89" r="6.7"/>
      <circle cx="74.32" cy="285.49" r="6.7"/>
      <circle cx="52.72" cy="307.08" r="6.7"/>
      <circle cx="31.12" cy="328.68" r="6.7"/>
      <circle cx="9.52" cy="350.28" r="6.7"/>
      <circle cx="268.69" cy="134.29" r="6.7"/>
      <path d="M251.82,151.15a6.69,6.69,0,1,0,0,9.47A6.69,6.69,0,0,0,251.82,151.15Z"/>
      <path d="M230.23,172.75a6.7,6.7,0,1,0,0,9.47A6.71,6.71,0,0,0,230.23,172.75Z"/>
      <path d="M208.63,194.35a6.7,6.7,0,1,0,0,9.47A6.69,6.69,0,0,0,208.63,194.35Z"/>
      <circle cx="182.3" cy="220.68" r="6.7"/>
      <circle cx="160.7" cy="242.28" r="6.7"/>
      <circle cx="139.1" cy="263.88" r="6.7"/>
      <circle cx="117.5" cy="285.48" r="6.7"/>
      <circle cx="95.9" cy="307.07" r="6.7"/>
      <circle cx="74.31" cy="328.67" r="6.7"/>
      <circle cx="52.71" cy="350.27" r="6.7"/>
      <circle cx="31.11" cy="371.87" r="6.7"/>
      <circle cx="9.51" cy="393.47" r="6.7"/>
      <circle cx="290.27" cy="155.88" r="6.7"/>
      <path d="M273.41,172.74a6.7,6.7,0,1,0,0,9.47A6.69,6.69,0,0,0,273.41,172.74Z"/>
      <path d="M251.81,194.34a6.7,6.7,0,1,0,0,9.47A6.69,6.69,0,0,0,251.81,194.34Z"/>
      <path d="M230.21,215.94a6.69,6.69,0,1,0,0,9.46A6.68,6.68,0,0,0,230.21,215.94Z"/>
      <circle cx="203.88" cy="242.27" r="6.7"/>
      <circle cx="182.28" cy="263.87" r="6.7"/>
      <circle cx="160.69" cy="285.46" r="6.7"/>
      <circle cx="139.09" cy="307.06" r="6.7"/>
      <circle cx="117.49" cy="328.66" r="6.7"/>
      <circle cx="95.89" cy="350.26" r="6.7"/>
      <circle cx="74.29" cy="371.86" r="6.7"/>
      <circle cx="52.7" cy="393.45" r="6.7"/>
      <circle cx="31.1" cy="415.05" r="6.7"/>
      <circle cx="9.5" cy="436.65" r="6.7"/>
      <circle cx="311.86" cy="177.46" r="6.7"/>
      <path d="M295,194.33a6.69,6.69,0,1,0,0,9.46A6.69,6.69,0,0,0,295,194.33Z"/>
      <path d="M273.4,215.92a6.7,6.7,0,1,0,0,9.47A6.71,6.71,0,0,0,273.4,215.92Z"/>
      <path d="M251.8,237.52a6.7,6.7,0,1,0,0,9.47A6.71,6.71,0,0,0,251.8,237.52Z"/>
      <circle cx="225.47" cy="263.85" r="6.7"/>
      <circle cx="203.87" cy="285.45" r="6.7"/>
      <circle cx="182.27" cy="307.05" r="6.7"/>
      <circle cx="160.67" cy="328.65" r="6.7"/>
      <circle cx="139.08" cy="350.25" r="6.7"/>
      <circle cx="117.48" cy="371.84" r="6.7"/>
      <circle cx="95.88" cy="393.44" r="6.7"/>
      <circle cx="74.28" cy="415.04" r="6.7"/>
      <circle cx="52.68" cy="436.64" r="6.7"/>
      <circle cx="31.09" cy="458.24" r="6.7"/>
      <circle cx="333.45" cy="199.05" r="6.7"/>
      <path d="M316.58,215.91a6.69,6.69,0,1,0,0,9.47A6.69,6.69,0,0,0,316.58,215.91Z"/>
      <path d="M295,237.51a6.7,6.7,0,1,0,0,9.47A6.71,6.71,0,0,0,295,237.51Z"/>
      <path d="M273.39,259.11a6.7,6.7,0,1,0,0,9.47A6.69,6.69,0,0,0,273.39,259.11Z"/>
      <circle cx="247.06" cy="285.44" r="6.7"/>
      <circle cx="225.46" cy="307.04" r="6.7"/>
      <circle cx="203.86" cy="328.64" r="6.7"/>
      <circle cx="182.26" cy="350.24" r="6.7"/>
      <circle cx="160.66" cy="371.83" r="6.7"/>
      <circle cx="139.07" cy="393.43" r="6.7"/>
      <circle cx="117.47" cy="415.03" r="6.7"/>
      <circle cx="95.87" cy="436.63" r="6.7"/>
      <circle cx="74.27" cy="458.23" r="6.7"/>
      <circle cx="355.03" cy="220.64" r="6.7"/>
      <path d="M338.17,237.5a6.7,6.7,0,1,0,0,9.47A6.69,6.69,0,0,0,338.17,237.5Z"/>
      <path d="M316.57,259.1a6.7,6.7,0,1,0,0,9.47A6.69,6.69,0,0,0,316.57,259.1Z"/>
      <path d="M295,280.7a6.69,6.69,0,1,0,0,9.46A6.68,6.68,0,0,0,295,280.7Z"/>
      <circle cx="268.64" cy="307.03" r="6.7"/>
      <circle cx="247.04" cy="328.63" r="6.7"/>
      <circle cx="225.45" cy="350.22" r="6.7"/>
      <circle cx="203.85" cy="371.82" r="6.7"/>
      <circle cx="182.25" cy="393.42" r="6.7"/>
      <circle cx="160.65" cy="415.02" r="6.7"/>
      <circle cx="139.05" cy="436.62" r="6.7"/>
      <circle cx="117.46" cy="458.21" r="6.7"/>
      <path d="M381.36,237.49a6.7,6.7,0,1,0,0,9.47A6.69,6.69,0,0,0,381.36,237.49Z"/>
      <path d="M359.76,259.09a6.69,6.69,0,1,0,0,9.46A6.69,6.69,0,0,0,359.76,259.09Z"/>
      <path d="M338.16,280.68a6.7,6.7,0,1,0,0,9.47A6.71,6.71,0,0,0,338.16,280.68Z"/>
      <path d="M316.56,302.28a6.7,6.7,0,1,0,0,9.47A6.71,6.71,0,0,0,316.56,302.28Z"/>
      <path d="M295,323.88a6.7,6.7,0,1,0,0,9.47A6.71,6.71,0,0,0,295,323.88Z"/>
      <path d="M273.37,345.48a6.7,6.7,0,1,0,0,9.47A6.69,6.69,0,0,0,273.37,345.48Z"/>
      <path d="M251.77,367.08a6.69,6.69,0,1,0,0,9.46A6.69,6.69,0,0,0,251.77,367.08Z"/>
      <path d="M230.17,388.67a6.7,6.7,0,1,0,0,9.47A6.71,6.71,0,0,0,230.17,388.67Z"/>
      <path d="M208.57,410.27a6.7,6.7,0,1,0,0,9.47A6.71,6.71,0,0,0,208.57,410.27Z"/>
      <path d="M187,431.87a6.7,6.7,0,1,0,0,9.47A6.71,6.71,0,0,0,187,431.87Z"/>
      <path d="M165.37,453.47a6.69,6.69,0,1,0,0,9.47A6.68,6.68,0,0,0,165.37,453.47Z"/>
      <path d="M402.94,259.07a6.7,6.7,0,1,0,0,9.47A6.71,6.71,0,0,0,402.94,259.07Z"/>
      <path d="M381.34,280.67a6.69,6.69,0,1,0,0,9.47A6.69,6.69,0,0,0,381.34,280.67Z"/>
      <path d="M359.75,302.27a6.7,6.7,0,1,0,0,9.47A6.71,6.71,0,0,0,359.75,302.27Z"/>
      <path d="M338.15,323.87a6.7,6.7,0,1,0,0,9.47A6.69,6.69,0,0,0,338.15,323.87Z"/>
      <path d="M316.55,345.47a6.7,6.7,0,1,0,0,9.47A6.69,6.69,0,0,0,316.55,345.47Z"/>
      <path d="M295,367.06a6.7,6.7,0,1,0,0,9.47A6.71,6.71,0,0,0,295,367.06Z"/>
      <path d="M273.35,388.66a6.69,6.69,0,1,0,0,9.47A6.69,6.69,0,0,0,273.35,388.66Z"/>
      <path d="M251.76,410.26a6.7,6.7,0,1,0,0,9.47A6.71,6.71,0,0,0,251.76,410.26Z"/>
      <path d="M230.16,431.86a6.7,6.7,0,1,0,0,9.47A6.69,6.69,0,0,0,230.16,431.86Z"/>
      <path d="M208.56,453.46a6.7,6.7,0,1,0,0,9.47A6.69,6.69,0,0,0,208.56,453.46Z"/>
      <circle cx="419.79" cy="285.4" r="6.7"/>
      <path d="M402.93,302.26a6.7,6.7,0,1,0,0,9.47A6.69,6.69,0,0,0,402.93,302.26Z"/>
      <path d="M381.33,323.86a6.7,6.7,0,1,0,0,9.47A6.69,6.69,0,0,0,381.33,323.86Z"/>
      <path d="M359.73,345.46a6.69,6.69,0,1,0,0,9.46A6.68,6.68,0,0,0,359.73,345.46Z"/>
      <circle cx="333.4" cy="371.79" r="6.7"/>
      <circle cx="311.8" cy="393.39" r="6.7"/>
      <circle cx="290.21" cy="414.98" r="6.7"/>
      <circle cx="268.61" cy="436.58" r="6.7"/>
      <circle cx="247.01" cy="458.18" r="6.7"/>
      <circle cx="441.38" cy="306.98" r="6.7"/>
      <path d="M424.52,323.85a6.69,6.69,0,1,0,0,9.46A6.69,6.69,0,0,0,424.52,323.85Z"/>
      <path d="M402.92,345.44a6.7,6.7,0,1,0,0,9.47A6.71,6.71,0,0,0,402.92,345.44Z"/>
      <path d="M381.32,367a6.7,6.7,0,1,0,0,9.47A6.71,6.71,0,0,0,381.32,367Z"/>
      <circle cx="354.99" cy="393.37" r="6.7"/>
      <circle cx="333.39" cy="414.97" r="6.7"/>
      <circle cx="311.79" cy="436.57" r="6.7"/>
      <circle cx="290.19" cy="458.17" r="6.7"/>
      <circle cx="570.96" cy="220.58" r="6.7"/>
      <circle cx="549.36" cy="242.18" r="6.7"/>
      <circle cx="527.76" cy="263.77" r="6.7"/>
      <circle cx="506.16" cy="285.37" r="6.7"/>
      <circle cx="484.57" cy="306.97" r="6.7"/>
      <circle cx="570.95" cy="263.76" r="6.7"/>
      <circle cx="549.35" cy="285.36" r="6.7"/>
      <circle cx="527.75" cy="306.96" r="6.7"/>
      <circle cx="506.15" cy="328.56" r="6.7"/>
      <circle cx="570.94" cy="306.95" r="6.7"/>
      <circle cx="549.34" cy="328.55" r="6.7"/>
      <circle cx="527.74" cy="350.14" r="6.7"/>
      <circle cx="570.92" cy="350.13" r="6.7"/>
      <circle cx="549.33" cy="371.73" r="6.7"/>
      <circle cx="570.91" cy="393.32" r="6.7"/>
      <circle cx="462.97" cy="328.57" r="6.7"/>
      <path d="M446.1,345.43a6.69,6.69,0,1,0,0,9.47A6.69,6.69,0,0,0,446.1,345.43Z"/>
      <path d="M424.51,367a6.7,6.7,0,1,0,0,9.47A6.71,6.71,0,0,0,424.51,367Z"/>
      <path d="M402.91,388.63a6.7,6.7,0,1,0,0,9.47A6.69,6.69,0,0,0,402.91,388.63Z"/>
      <circle cx="376.58" cy="414.96" r="6.7"/>
      <circle cx="354.98" cy="436.56" r="6.7"/>
      <circle cx="333.38" cy="458.16" r="6.7"/>
      <circle cx="484.55" cy="350.16" r="6.7"/>
      <path d="M467.69,367a6.7,6.7,0,1,0,0,9.47A6.69,6.69,0,0,0,467.69,367Z"/>
      <path d="M446.09,388.62a6.7,6.7,0,1,0,0,9.47A6.69,6.69,0,0,0,446.09,388.62Z"/>
      <path d="M424.49,410.22a6.69,6.69,0,1,0,0,9.46A6.68,6.68,0,0,0,424.49,410.22Z"/>
      <circle cx="398.16" cy="436.55" r="6.7"/>
      <circle cx="376.56" cy="458.15" r="6.7"/>
      <circle cx="354.97" cy="479.74" r="6.7"/>
      <circle cx="506.14" cy="371.74" r="6.7"/>
      <path d="M489.28,388.61a6.69,6.69,0,1,0,0,9.46A6.69,6.69,0,0,0,489.28,388.61Z"/>
      <path d="M467.68,410.2a6.7,6.7,0,1,0,0,9.47A6.71,6.71,0,0,0,467.68,410.2Z"/>
      <path d="M446.08,431.8a6.7,6.7,0,1,0,0,9.47A6.71,6.71,0,0,0,446.08,431.8Z"/>
      <circle cx="419.75" cy="458.13" r="6.7"/>
      <circle cx="398.15" cy="479.73" r="6.7"/>
      <circle cx="527.73" cy="393.33" r="6.7"/>
      <path d="M510.86,410.19a6.69,6.69,0,1,0,0,9.47A6.69,6.69,0,0,0,510.86,410.19Z"/>
      <path d="M489.27,431.79a6.7,6.7,0,1,0,0,9.47A6.71,6.71,0,0,0,489.27,431.79Z"/>
      <path d="M467.67,453.39a6.7,6.7,0,1,0,0,9.47A6.69,6.69,0,0,0,467.67,453.39Z"/>
      <circle cx="441.34" cy="479.72" r="6.7"/>
      <circle cx="549.31" cy="414.92" r="6.7"/>
      <path d="M532.45,431.78a6.7,6.7,0,1,0,0,9.47A6.69,6.69,0,0,0,532.45,431.78Z"/>
      <path d="M510.85,453.38a6.7,6.7,0,1,0,0,9.47A6.69,6.69,0,0,0,510.85,453.38Z"/>
      <path d="M489.25,475a6.69,6.69,0,1,0,0,9.46A6.68,6.68,0,0,0,489.25,475Z"/>
      <path d="M575.64,431.77a6.7,6.7,0,1,0,0,9.47A6.69,6.69,0,0,0,575.64,431.77Z"/>
      <path d="M554,453.37a6.69,6.69,0,1,0,0,9.46A6.69,6.69,0,0,0,554,453.37Z"/>
      <path d="M532.44,475a6.7,6.7,0,1,0,0,9.47A6.71,6.71,0,0,0,532.44,475Z"/>
      <path d="M575.62,475a6.69,6.69,0,1,0,0,9.47A6.69,6.69,0,0,0,575.62,475Z"/>
    </g>
  </g>
</svg>
