<svg id="Calque_1" data-name="Calque 1" xmlns="http://www.w3.org/2000/svg" xmlns:xlink="http://www.w3.org/1999/xlink" viewBox="0 0 568.31 446.88">
  <defs>
    <clipPath id="clip-path">
      <path d="M0,0H520.27s77,66.2,21.57,124.74-72.41,81.64-89.35,124.78-50.84,46.21-50.84,46.21H264.55s-121.7-6.16-167.92,87.81C73.52,434.38,0,441,0,441Z" style="fill: none"/>
    </clipPath>
  </defs>
  <title>shape</title>
  <g style="clip-path: url(#clip-path)">
    <g>
      <line x1="-229.1" y1="204.19" x2="268.41" y2="730.41" style="fill: none;stroke: #000;stroke-miterlimit: 10;stroke-width: 3px"/>
      <line x1="-214.1" y1="190.02" x2="283.41" y2="716.23" style="fill: none;stroke: #000;stroke-miterlimit: 10;stroke-width: 3px"/>
      <line x1="-199.11" y1="175.84" x2="298.4" y2="702.06" style="fill: none;stroke: #000;stroke-miterlimit: 10;stroke-width: 3px"/>
      <line x1="-184.11" y1="161.66" x2="313.4" y2="687.88" style="fill: none;stroke: #000;stroke-miterlimit: 10;stroke-width: 3px"/>
      <line x1="-169.12" y1="147.49" x2="328.39" y2="673.7" style="fill: none;stroke: #000;stroke-miterlimit: 10;stroke-width: 3px"/>
      <line x1="-154.12" y1="133.31" x2="343.38" y2="659.53" style="fill: none;stroke: #000;stroke-miterlimit: 10;stroke-width: 3px"/>
      <line x1="-139.13" y1="119.13" x2="358.38" y2="645.35" style="fill: none;stroke: #000;stroke-miterlimit: 10;stroke-width: 3px"/>
      <line x1="-124.13" y1="104.96" x2="373.37" y2="631.17" style="fill: none;stroke: #000;stroke-miterlimit: 10;stroke-width: 3px"/>
      <line x1="-109.14" y1="90.78" x2="388.37" y2="617" style="fill: none;stroke: #000;stroke-miterlimit: 10;stroke-width: 3px"/>
      <line x1="-94.14" y1="76.6" x2="403.36" y2="602.82" style="fill: none;stroke: #000;stroke-miterlimit: 10;stroke-width: 3px"/>
      <line x1="-79.15" y1="62.43" x2="418.36" y2="588.64" style="fill: none;stroke: #000;stroke-miterlimit: 10;stroke-width: 3px"/>
      <line x1="-64.15" y1="48.25" x2="433.35" y2="574.47" style="fill: none;stroke: #000;stroke-miterlimit: 10;stroke-width: 3px"/>
      <line x1="-49.16" y1="34.07" x2="448.35" y2="560.29" style="fill: none;stroke: #000;stroke-miterlimit: 10;stroke-width: 3px"/>
      <line x1="-34.16" y1="19.9" x2="463.34" y2="546.11" style="fill: none;stroke: #000;stroke-miterlimit: 10;stroke-width: 3px"/>
      <line x1="-19.17" y1="5.72" x2="478.34" y2="531.94" style="fill: none;stroke: #000;stroke-miterlimit: 10;stroke-width: 3px"/>
      <line x1="-4.17" y1="-8.46" x2="493.33" y2="517.76" style="fill: none;stroke: #000;stroke-miterlimit: 10;stroke-width: 3px"/>
      <line x1="10.82" y1="-22.63" x2="508.33" y2="503.58" style="fill: none;stroke: #000;stroke-miterlimit: 10;stroke-width: 3px"/>
      <line x1="25.82" y1="-36.81" x2="523.32" y2="489.41" style="fill: none;stroke: #000;stroke-miterlimit: 10;stroke-width: 3px"/>
      <line x1="40.81" y1="-50.99" x2="538.32" y2="475.23" style="fill: none;stroke: #000;stroke-miterlimit: 10;stroke-width: 3px"/>
      <line x1="55.81" y1="-65.16" x2="553.31" y2="461.05" style="fill: none;stroke: #000;stroke-miterlimit: 10;stroke-width: 3px"/>
      <line x1="70.8" y1="-79.34" x2="568.31" y2="446.88" style="fill: none;stroke: #000;stroke-miterlimit: 10;stroke-width: 3px"/>
      <line x1="85.8" y1="-93.52" x2="583.3" y2="432.7" style="fill: none;stroke: #000;stroke-miterlimit: 10;stroke-width: 3px"/>
      <line x1="100.79" y1="-107.69" x2="598.3" y2="418.52" style="fill: none;stroke: #000;stroke-miterlimit: 10;stroke-width: 3px"/>
      <line x1="115.79" y1="-121.87" x2="613.29" y2="404.35" style="fill: none;stroke: #000;stroke-miterlimit: 10;stroke-width: 3px"/>
      <line x1="130.78" y1="-136.05" x2="628.29" y2="390.17" style="fill: none;stroke: #000;stroke-miterlimit: 10;stroke-width: 3px"/>
      <line x1="145.77" y1="-150.22" x2="643.28" y2="375.99" style="fill: none;stroke: #000;stroke-miterlimit: 10;stroke-width: 3px"/>
      <line x1="160.77" y1="-164.4" x2="658.28" y2="361.82" style="fill: none;stroke: #000;stroke-miterlimit: 10;stroke-width: 3px"/>
      <line x1="175.76" y1="-178.58" x2="673.27" y2="347.64" style="fill: none;stroke: #000;stroke-miterlimit: 10;stroke-width: 3px"/>
      <line x1="190.76" y1="-192.75" x2="688.27" y2="333.46" style="fill: none;stroke: #000;stroke-miterlimit: 10;stroke-width: 3px"/>
      <line x1="205.75" y1="-206.93" x2="703.26" y2="319.29" style="fill: none;stroke: #000;stroke-miterlimit: 10;stroke-width: 3px"/>
      <line x1="220.75" y1="-221.11" x2="718.26" y2="305.11" style="fill: none;stroke: #000;stroke-miterlimit: 10;stroke-width: 3px"/>
      <line x1="235.74" y1="-235.29" x2="733.25" y2="290.93" style="fill: none;stroke: #000;stroke-miterlimit: 10;stroke-width: 3px"/>
      <line x1="250.74" y1="-249.46" x2="748.25" y2="276.75" style="fill: none;stroke: #000;stroke-miterlimit: 10;stroke-width: 3px"/>
      <line x1="265.73" y1="-263.64" x2="763.24" y2="262.58" style="fill: none;stroke: #000;stroke-miterlimit: 10;stroke-width: 3px"/>
      <line x1="280.73" y1="-277.82" x2="778.23" y2="248.4" style="fill: none;stroke: #000;stroke-miterlimit: 10;stroke-width: 3px"/>
    </g>
  </g>
</svg>
