<svg id="Calque_1" data-name="Calque 1" xmlns="http://www.w3.org/2000/svg" viewBox="0 0 369 207.98">
  <title>vague</title>
  <polyline points="27 3.21 41.33 10.41 55.4 3.21 69.14 10.41 82.23 3.21 96.14 10.41 109.56 3.21 122.98 10.41 136.72 3.21 150.14 10.41 163.39 3.21 176.81 10.41 190.39 3.21 203.97 10.41 217.71 3.21 231.13 10.41 245.04 3.21 258.13 10.41" style="fill: none;stroke: #000;stroke-miterlimit: 10;stroke-width: 3px"/>
  <polyline points="27 3.21 41.33 10.41 55.4 3.21 69.14 10.41 82.23 3.21 96.14 10.41 109.56 3.21 122.98 10.41 136.72 3.21 150.14 10.41 163.39 3.21 176.81 10.41 190.39 3.21 203.97 10.41 217.71 3.21 231.13 10.41 245.04 3.21 258.13 10.41" style="fill: none;stroke: #000;stroke-miterlimit: 10;stroke-width: 3px"/>
  <polyline points="27 31.1 41.33 38.3 55.4 31.1 69.14 38.3 82.23 31.1 96.14 38.3 109.56 31.1 122.98 38.3 136.72 31.1 150.14 38.3 163.39 31.1 176.81 38.3 190.39 31.1 203.97 38.3 217.71 31.1 231.13 38.3 245.04 31.1 258.13 38.3" style="fill: none;stroke: #000;stroke-miterlimit: 10;stroke-width: 3px"/>
  <polyline points="0 59 14.33 66.2 28.4 59 42.15 66.2 55.23 59 69.14 66.2 82.56 59 95.98 66.2 109.72 59 123.14 66.2 136.39 59 149.81 66.2 163.39 59 176.97 66.2 190.71 59 204.13 66.2 218.04 59 231.13 66.2" style="fill: none;stroke: #000;stroke-miterlimit: 10;stroke-width: 3px"/>
  <polyline points="1 86.89 15.33 94.09 29.4 86.89 43.15 94.09 56.23 86.89 70.14 94.09 83.56 86.89 96.98 94.09 110.72 86.89 124.14 94.09 137.39 86.89 150.81 94.09 164.39 86.89 177.97 94.09 191.71 86.89 205.13 94.09 219.04 86.89 232.13 94.09" style="fill: none;stroke: #000;stroke-miterlimit: 10;stroke-width: 3px"/>
  <polyline points="27 114.79 41.33 121.99 55.4 114.79 69.14 121.99 82.23 114.79 96.14 121.99 109.56 114.79 122.98 121.99 136.72 114.79 150.14 121.99 163.39 114.79 176.81 121.99 190.39 114.79 203.97 121.99 217.71 114.79 231.13 121.99 245.04 114.79 258.13 121.99" style="fill: none;stroke: #000;stroke-miterlimit: 10;stroke-width: 3px"/>
  <polyline points="53 142.69 67.33 149.88 81.4 142.69 95.14 149.88 108.23 142.69 122.14 149.88 135.56 142.69 148.98 149.88 162.72 142.69 176.14 149.88 189.39 142.69 202.81 149.88 216.39 142.69 229.97 149.88 243.71 142.69 257.13 149.88 271.04 142.69 284.13 149.88" style="fill: none;stroke: #000;stroke-miterlimit: 10;stroke-width: 3px"/>
  <polyline points="80 170.58 94.33 177.78 108.4 170.58 122.14 177.78 135.24 170.58 149.14 177.78 162.56 170.58 175.98 177.78 189.72 170.58 203.14 177.78 216.39 170.58 229.81 177.78 243.39 170.58 256.97 177.78 270.71 170.58 284.13 177.78 298.04 170.58 311.13 177.78" style="fill: none;stroke: #000;stroke-miterlimit: 10;stroke-width: 3px"/>
  <polyline points="135 198.48 149.33 205.68 163.4 198.48 177.15 205.68 190.24 198.48 204.14 205.68 217.56 198.48 230.98 205.68 244.72 198.48 258.14 205.68 271.39 198.48 284.81 205.68 298.39 198.48 311.97 205.68 325.71 198.48 339.13 205.68 353.04 198.48 366.13 205.68" style="fill: none;stroke: #000;stroke-miterlimit: 10;stroke-width: 3px"/>
</svg>
