<svg xmlns="http://www.w3.org/2000/svg" viewBox="0 0 49.97 49.98">
  <g>
    <g>
      <rect x="0.5" y="0.5" width="48.97" height="48.97" rx="11.1" style="fill: #fff"/>
      <path d="M38.38,50H11.6A11.61,11.61,0,0,1,0,38.38V11.6A11.61,11.61,0,0,1,11.6,0H38.38A11.61,11.61,0,0,1,50,11.6V38.38A11.61,11.61,0,0,1,38.38,50ZM11.6,1A10.61,10.61,0,0,0,1,11.6V38.38A10.61,10.61,0,0,0,11.6,49H38.38A10.61,10.61,0,0,0,49,38.38V11.6A10.6,10.6,0,0,0,38.38,1Z"/>
    </g>
    <g id="qVntmz.tif">
      <g>
        <g>
          <path d="M24.09,42.28a23.51,23.51,0,0,1-15.8-6.83,2,2,0,0,1-.28-.3.32.32,0,0,1,0-.43.27.27,0,0,1,.37,0,3.07,3.07,0,0,1,.31.17,31.75,31.75,0,0,0,17.51,4.72A30.62,30.62,0,0,0,38,36.92l.38-.16c.32-.14.65-.19.87.16s0,.62-.29.83a19.7,19.7,0,0,1-5.51,3A25.72,25.72,0,0,1,24.09,42.28Z" style="fill: #03abe6"/>
          <path d="M24.09,42.53h0a23.94,23.94,0,0,1-16-6.9,2.09,2.09,0,0,1-.31-.34.55.55,0,0,1,.05-.73.51.51,0,0,1,.68-.11l.07,0,.25.15a31.62,31.62,0,0,0,17.38,4.68,30.33,30.33,0,0,0,11.62-2.62l.17-.07.2-.08c.67-.31,1,0,1.19.25s.13.79-.34,1.16a20.56,20.56,0,0,1-5.58,3A26.14,26.14,0,0,1,24.09,42.53Zm-16-7.81.19.17c-.06.06-.05.08,0,.11a1.55,1.55,0,0,0,.24.27A23.47,23.47,0,0,0,24.09,42a25.68,25.68,0,0,0,9.24-1.5,19.7,19.7,0,0,0,5.44-3c.33-.26.3-.37.22-.5s-.18-.23-.55-.06l-.22.09-.16.07a31.09,31.09,0,0,1-11.81,2.66A32.22,32.22,0,0,1,8.6,35.06l-.24-.14Z"/>
        </g>
        <g>
          <path d="M26.39,11.46a4.52,4.52,0,0,1,2-.82,2,2,0,0,1,2,.63c.2.25.33.07.48,0a4.09,4.09,0,0,1,2.2-.64A1.8,1.8,0,0,1,35,12.55c0,1.51,0,3,0,4.55,0,.44-.14.56-.56.56-1.42,0-1.42,0-1.42-1.41,0-1,0-2.07,0-3.11,0-.81-.26-1-1.08-1a1.07,1.07,0,0,0-.25,0c-.88.18-.88.18-.88,1.06,0,1.26,0,2.52,0,3.78,0,.44-.1.65-.61.63-1.59-.05-1.37.26-1.39-1.4,0-1,0-2,0-3.06s-.27-1.14-1.17-1c-.15,0-.3.07-.45.1-.47.07-.63.3-.61.81,0,1.34,0,2.69,0,4,0,.44-.15.56-.58.56-1.4,0-1.4,0-1.4-1.42V11.59c0-.78,0-.77.81-.79C25.88,10.79,26.32,10.78,26.39,11.46Z" style="fill: #03abe6"/>
          <path d="M30.27,17.92h-.08c-.25,0-.45,0-.62,0-.43,0-.67,0-.84-.18s-.17-.44-.17-.95c0-.15,0-.32,0-.52V13.21c0-.39-.06-.62-.17-.72a1.06,1.06,0,0,0-.72-.08l-.22.05-.22,0c-.31.05-.42.14-.4.56,0,.78,0,1.57,0,2.34,0,.57,0,1.13,0,1.7a.85.85,0,0,1-.19.61.79.79,0,0,1-.64.2c-1.55,0-1.65-.11-1.65-1.67V11.59c0-.91.1-1,1-1,.42,0,.95,0,1.17.51a4.53,4.53,0,0,1,1.83-.67,2.26,2.26,0,0,1,2.19.73s0,0,.05,0l.1-.06A4.35,4.35,0,0,1,33,10.36h0a2.05,2.05,0,0,1,2.19,2.19v1.81c0,.91,0,1.83,0,2.74a.88.88,0,0,1-.19.62.92.92,0,0,1-.63.19c-1.56,0-1.66-.11-1.66-1.66v-.9c0-.74,0-1.47,0-2.21a.91.91,0,0,0-.15-.63.92.92,0,0,0-.66-.1l-.22,0c-.68.14-.68.14-.68.82v1.06c0,.91,0,1.81,0,2.71a.92.92,0,0,1-.21.7A.79.79,0,0,1,30.27,17.92Zm-.65-.51h.59a.41.41,0,0,0,.29-.05.55.55,0,0,0,.06-.33c0-.91,0-1.81,0-2.72V13.25c0-1,.08-1.1,1.08-1.31a1.36,1.36,0,0,1,.29,0,1.24,1.24,0,0,1,1,.24,1.33,1.33,0,0,1,.31,1c0,.74,0,1.47,0,2.21v.9c0,1.16,0,1.16,1.12,1.16.23,0,.3,0,.32-.05s0-.06,0-.26c0-.91,0-1.82,0-2.74V12.55a1.55,1.55,0,0,0-1.69-1.69h0a3.87,3.87,0,0,0-2.05.61l-.06,0a.48.48,0,0,1-.74-.08,1.72,1.72,0,0,0-1.75-.54,4.4,4.4,0,0,0-1.91.78l-.33.21-.05-.4c0-.42-.2-.44-.7-.43a2.58,2.58,0,0,0-.55,0,2.79,2.79,0,0,0,0,.5v4.65c0,1.17,0,1.17,1.11,1.17.27,0,.3,0,.32-.05s.05-.07.05-.26c0-.56,0-1.13,0-1.7,0-.76,0-1.55,0-2.33A.89.89,0,0,1,27.15,12l.18,0,.28-.06a1.44,1.44,0,0,1,1.12.21,1.41,1.41,0,0,1,.33,1.08v3.05c0,.21,0,.38,0,.53a2.73,2.73,0,0,0,0,.6,1.78,1.78,0,0,0,.48,0Z"/>
        </g>
        <g>
          <path d="M24.39,30.76a3.18,3.18,0,0,1-1.62.74,2.79,2.79,0,0,1-3.18-2,5.32,5.32,0,0,1,0-3.5,2.9,2.9,0,0,1,4.25-1.65c.36.19.42.14.41-.24,0-.88,0-1.76,0-2.64,0-.37.11-.54.51-.52a9.73,9.73,0,0,0,1.08,0c.37,0,.48.16.48.5v9.42c0,.4-.14.58-.55.55a3.21,3.21,0,0,0-.62,0C24.74,31.44,24.44,31.31,24.39,30.76Zm-.1-3V26.2c0-.13,0-.27-.1-.38a1.72,1.72,0,0,0-2.57.6,4.11,4.11,0,0,0-.15,2,1.58,1.58,0,0,0,2.36,1.37c.32-.13.5-.29.47-.68A12.89,12.89,0,0,1,24.29,27.75Z" style="fill: #253242"/>
          <path d="M22.35,31.77a3,3,0,0,1-3-2.22,5.56,5.56,0,0,1,0-3.67A3.12,3.12,0,0,1,24,24.1l.05,0v0c0-.45,0-.89,0-1.34s0-.87,0-1.3a.81.81,0,0,1,.19-.61.75.75,0,0,1,.58-.17,9.34,9.34,0,0,0,1.06,0,.73.73,0,0,1,.55.17.8.8,0,0,1,.19.58v9.42a.83.83,0,0,1-.21.63.75.75,0,0,1-.61.17,2.7,2.7,0,0,0-.57,0,1,1,0,0,1-.76-.17.78.78,0,0,1-.21-.29,3.15,3.15,0,0,1-1.44.57A3.46,3.46,0,0,1,22.35,31.77Zm0-7.6a2.52,2.52,0,0,0-.9.17,2.81,2.81,0,0,0-1.57,1.71,5.1,5.1,0,0,0-.05,3.34,2.57,2.57,0,0,0,2.93,1.86,2.93,2.93,0,0,0,1.49-.69l.36-.28,0,.46a.47.47,0,0,0,.13.34.53.53,0,0,0,.39.06,3.62,3.62,0,0,1,.66,0,.36.36,0,0,0,.23,0,.5.5,0,0,0,.05-.27V21.42c0-.17,0-.21,0-.22s-.07,0-.18,0a10.25,10.25,0,0,1-1.11,0c-.15,0-.19,0-.2,0s0,.05,0,.24c0,.43,0,.87,0,1.31s0,.88,0,1.32c0,.18,0,.44-.19.56s-.39,0-.59-.08A3,3,0,0,0,22.34,24.17ZM23,30.24a1.6,1.6,0,0,1-.84-.22,2,2,0,0,1-.9-1.53,4.27,4.27,0,0,1,.15-2.16,2,2,0,0,1,3-.69.62.62,0,0,1,.17.5v1.61c0,.14,0,.28,0,.43a7.34,7.34,0,0,0,0,.94.83.83,0,0,1-.64.93A2.54,2.54,0,0,1,23,30.24Zm.24-4.53a1.81,1.81,0,0,0-.39.05,1.32,1.32,0,0,0-1,.74,3.9,3.9,0,0,0-.13,1.92,1.33,1.33,0,0,0,2,1.16c.27-.1.33-.18.31-.42a8.22,8.22,0,0,1,0-1c0-.14,0-.28,0-.42V26.13C24,26,24,26,24,26A1.13,1.13,0,0,0,23.21,25.71Z"/>
        </g>
        <g>
          <path d="M9.83,17.23c0,.94,0,1.82,0,2.69,0,.38-.14.54-.52.51a7.21,7.21,0,0,0-.93,0c-.41,0-.54-.17-.54-.55,0-2.85,0-5.7,0-8.54,0-.37.14-.56.52-.54a2.36,2.36,0,0,0,.46,0c.44-.05.75.09.81.6a3.89,3.89,0,0,1,1.6-.74,2.56,2.56,0,0,1,2.95,1.56,4.79,4.79,0,0,1,.12,3.53C13.64,17.75,11.85,18.36,9.83,17.23Zm1.28-5.1a2.45,2.45,0,0,0-1,.2.41.41,0,0,0-.28.43c0,1,0,2,0,2.94A.37.37,0,0,0,10,16a1.62,1.62,0,0,0,2.47-.68,4,4,0,0,0,0-2.23A1.16,1.16,0,0,0,11.11,12.13Z" style="fill: #03abe6"/>
          <path d="M8.31,20.68a.69.69,0,0,1-.5-.17.85.85,0,0,1-.21-.63V11.34a.79.79,0,0,1,.21-.61.74.74,0,0,1,.57-.18,2,2,0,0,0,.42,0,.86.86,0,0,1,1,.45,4.08,4.08,0,0,1,1.42-.59,2.81,2.81,0,0,1,3.22,1.71,5.05,5.05,0,0,1,.13,3.71,3.1,3.1,0,0,1-1.78,2,3.39,3.39,0,0,1-2.69-.22V18c0,.64,0,1.26,0,1.88a.79.79,0,0,1-.2.6.75.75,0,0,1-.58.16,6.76,6.76,0,0,0-.9,0Zm0-9.63a.31.31,0,0,0-.16,0,.43.43,0,0,0-.05.25v8.54a.5.5,0,0,0,.05.27.34.34,0,0,0,.22,0,7.85,7.85,0,0,1,1,0,.31.31,0,0,0,.21,0,.39.39,0,0,0,0-.22c0-.62,0-1.24,0-1.89V16.8L10,17a3.13,3.13,0,0,0,2.64.39,2.61,2.61,0,0,0,1.48-1.73A4.55,4.55,0,0,0,14,12.32a2.3,2.3,0,0,0-2.67-1.41,3.51,3.51,0,0,0-1.5.7l-.35.24,0-.41c0-.33-.17-.43-.53-.39a2.89,2.89,0,0,1-.51,0Zm2.58,5.55a1.66,1.66,0,0,1-1.11-.4.6.6,0,0,1-.2-.5V12.76A.65.65,0,0,1,10,12.1a2.77,2.77,0,0,1,1.1-.22h0A1.41,1.41,0,0,1,12.67,13a4.28,4.28,0,0,1,0,2.38,1.67,1.67,0,0,1-1.2,1.1A2.16,2.16,0,0,1,10.89,16.6Zm.22-4.22a2.16,2.16,0,0,0-.9.18c-.11,0-.13.08-.13.2V15.7c0,.1,0,.11,0,.13a1.28,1.28,0,0,0,1.2.21,1.2,1.2,0,0,0,.87-.77,3.71,3.71,0,0,0,0-2.09.93.93,0,0,0-1.06-.8Z"/>
        </g>
        <g>
          <path d="M42.11,27.65A4.7,4.7,0,0,1,42,29.07a3.34,3.34,0,0,1-3.92,2.5c-2.13-.28-3.28-1.94-3.05-4.32.33-3.22,3-3.73,5-3.06a3.2,3.2,0,0,1,2.11,3.09C42.12,27.45,42.11,27.62,42.11,27.65Zm-5,.16a4.21,4.21,0,0,0,.22,1.33,1.25,1.25,0,0,0,1.28.85,1.18,1.18,0,0,0,1.22-.84,4,4,0,0,0,0-2.78,1.23,1.23,0,0,0-1.24-.84,1.26,1.26,0,0,0-1.25.83A4.27,4.27,0,0,0,37.09,27.81Z" style="fill: #253242"/>
          <path d="M38.66,31.86a4.64,4.64,0,0,1-.63,0c-2.27-.3-3.52-2.06-3.26-4.59a3.8,3.8,0,0,1,1.62-3,4.3,4.3,0,0,1,3.69-.3,3.46,3.46,0,0,1,2.28,3.3,2.33,2.33,0,0,1,0,.38l-.25,0h.25a4.84,4.84,0,0,1-.14,1.49A3.5,3.5,0,0,1,38.66,31.86Zm-.18-7.68a3.33,3.33,0,0,0-1.82.49,3.29,3.29,0,0,0-1.4,2.61c-.22,2.27.84,3.78,2.84,4A3.09,3.09,0,0,0,41.73,29a4,4,0,0,0,.13-1.35v-.05a1.57,1.57,0,0,0,0-.31,3,3,0,0,0-1.94-2.88A4.58,4.58,0,0,0,38.48,24.18Zm.1,6.06a1.49,1.49,0,0,1-1.5-1,3.43,3.43,0,0,1-.22-1.2l0-.23v-.18a4.16,4.16,0,0,1,.24-1.37,1.51,1.51,0,0,1,1.48-1h0a1.47,1.47,0,0,1,1.47,1,4.28,4.28,0,0,1,0,2.95,1.45,1.45,0,0,1-1.46,1ZM37.34,27.8V28a3.49,3.49,0,0,0,.19,1,1,1,0,0,0,1,.7h0a1,1,0,0,0,1-.68,3.84,3.84,0,0,0,0-2.61,1,1,0,0,0-1-.67h0a1,1,0,0,0-1,.68,3.64,3.64,0,0,0-.2,1.2Z"/>
        </g>
        <g>
          <path d="M31,28.49c-.37,0-.75-.06-1.13-.13s-.34.08-.3.33A1.5,1.5,0,0,0,30.85,30a4.8,4.8,0,0,0,2.35-.15c.45-.13.55,0,.55.43,0,.87,0,.92-.84,1.14a5.31,5.31,0,0,1-3.06,0A2.78,2.78,0,0,1,28,29.5a5.31,5.31,0,0,1-.07-3.06,3.53,3.53,0,0,1,5-2.08A2.15,2.15,0,0,1,34,26.56a1.89,1.89,0,0,1-1.5,1.7A7.46,7.46,0,0,1,31,28.49Zm-.4-1.31a3.1,3.1,0,0,0,1-.09.84.84,0,0,0,.09-1.56,1.45,1.45,0,0,0-1.88.71c-.36.76-.3.86.52.92Z" style="fill: #253242"/>
          <path d="M31.29,31.86a4.83,4.83,0,0,1-1.52-.23,3,3,0,0,1-2.06-2.05,5.55,5.55,0,0,1-.07-3.2A3.65,3.65,0,0,1,29.76,24a3.71,3.71,0,0,1,3.25.13,2.39,2.39,0,0,1,1.27,2.44A2.15,2.15,0,0,1,32.6,28.5a6.9,6.9,0,0,1-1.48.23H31l-.34,0a5.6,5.6,0,0,1-.81-.1h0v0a1.26,1.26,0,0,0,1.05,1.08,4.54,4.54,0,0,0,2.22-.16.79.79,0,0,1,.65.05.76.76,0,0,1,.22.63c0,1-.09,1.13-1,1.38A6.39,6.39,0,0,1,31.29,31.86Zm0-7.66a3.29,3.29,0,0,0-1.3.27,3.16,3.16,0,0,0-1.84,2,5.1,5.1,0,0,0,.07,2.92,2.51,2.51,0,0,0,1.74,1.72,5,5,0,0,0,2.91,0c.67-.17.67-.17.66-.88,0-.18,0-.23,0-.24a.85.85,0,0,0-.2,0,5.17,5.17,0,0,1-2.47.16,1.74,1.74,0,0,1-1.43-1.49.52.52,0,0,1,.1-.52.5.5,0,0,1,.49-.1,6.56,6.56,0,0,0,.76.09l.32,0h0A6.76,6.76,0,0,0,32.45,28a1.64,1.64,0,0,0,1.33-1.48,1.92,1.92,0,0,0-1-2A3.23,3.23,0,0,0,31.26,24.2Zm-.63,3.23-.32,0c-.43,0-.75-.07-.89-.32s0-.55.17-.95a1.71,1.71,0,0,1,2.2-.84,1.09,1.09,0,0,1-.1,2,2.75,2.75,0,0,1-.93.11Zm-.77-.57a4.41,4.41,0,0,0,.48.05l.3,0h.12a2.34,2.34,0,0,0,.76-.08.59.59,0,0,0,.07-1.09,1.2,1.2,0,0,0-1.55.59,1.94,1.94,0,0,0-.19.51Z"/>
        </g>
        <g>
          <path d="M39.6,17.86c-2.86.08-3.75-2-3.43-4.24a3.22,3.22,0,0,1,4.23-2.85,2.07,2.07,0,0,1,1.72,2.33,2,2,0,0,1-1.93,1.74,5.47,5.47,0,0,1-1.85,0c-.38-.09-.45.07-.36.4a1.33,1.33,0,0,0,1,1,4.73,4.73,0,0,0,2.15-.07c.23,0,.55-.31.69.14a1,1,0,0,1-.38,1.19A4.55,4.55,0,0,1,39.6,17.86Zm-.67-4.17a2.4,2.4,0,0,0,.9-.1.72.72,0,0,0,.51-.75.75.75,0,0,0-.53-.74,1.31,1.31,0,0,0-1.6.58c-.43.93-.37.93.55,1Z" style="fill: #03abe6"/>
          <path d="M39.8,18.12h-.2a3.53,3.53,0,0,1-2.88-1.06,4.2,4.2,0,0,1-.79-3.47A3.63,3.63,0,0,1,37.42,11a3.72,3.72,0,0,1,3-.45,2.32,2.32,0,0,1,1.91,2.59,2.22,2.22,0,0,1-2.15,2,5.69,5.69,0,0,1-1.93,0H38.2a.36.36,0,0,0,0,.11,1.08,1.08,0,0,0,.83.87,4.66,4.66,0,0,0,2-.07l.13,0a.65.65,0,0,1,.55,0,.59.59,0,0,1,.3.38,1.19,1.19,0,0,1-.54,1.5A5.06,5.06,0,0,1,39.8,18.12Zm-.2-.51h0a4.38,4.38,0,0,0,1.76-.3c.24-.09.35-.49.23-.88,0-.07,0-.08,0-.08l-.16,0a.8.8,0,0,1-.2.07,5.27,5.27,0,0,1-2.25.07,1.6,1.6,0,0,1-1.21-1.23.62.62,0,0,1,.08-.61.6.6,0,0,1,.58-.11,5.2,5.2,0,0,0,1.76,0,1.74,1.74,0,0,0,1.71-1.5A1.82,1.82,0,0,0,40.34,11a3.27,3.27,0,0,0-2.64.37,3.21,3.21,0,0,0-1.28,2.27,3.76,3.76,0,0,0,.68,3.07,3,3,0,0,0,2.49.89Zm-.47-3.67h-.21v-.25l0,.25h-.16c-.55,0-.84-.07-1-.31s0-.54.23-1a1.53,1.53,0,0,1,1.9-.71,1,1,0,0,1,.7,1,1,1,0,0,1-.68,1A2.32,2.32,0,0,1,39.13,13.94Zm-.19-.5a2.1,2.1,0,0,0,.8-.09.46.46,0,0,0,.35-.5.47.47,0,0,0-.36-.51,1.05,1.05,0,0,0-1.29.45,2.6,2.6,0,0,0-.24.61,4.15,4.15,0,0,1,.57,0h.17Z"/>
        </g>
        <g>
          <path d="M11.53,29.33c.44-1.48.9-2.95,1.3-4.44.15-.57.42-.82,1-.74a4.31,4.31,0,0,0,.72,0c.56,0,.62.08.42.6l-1.15,3c-.38,1-.77,2-1.12,2.94a.84.84,0,0,1-.94.67c-1.46,0-1.2.18-1.74-1.22-.69-1.78-1.37-3.57-2-5.35-.23-.61-.19-.68.47-.67,1.74,0,1.37-.29,1.88,1.41.38,1.25.73,2.5,1.1,3.76Z" style="fill: #253242"/>
          <path d="M11.83,31.65h-.58c-.88,0-1-.07-1.3-1l-.15-.4c-.58-1.47-1.14-2.95-1.7-4.42l-.35-.93c-.13-.34-.21-.6-.07-.8s.41-.21.78-.21.49,0,.67,0c.93,0,1,.06,1.27,1l.17.6c.27.87.52,1.75.77,2.62l.14.5.19-.62c.31-1,.63-2.11.91-3.18a1.06,1.06,0,0,1,1.29-.91,2.16,2.16,0,0,0,.44,0h.25c.32,0,.57,0,.7.22s.06.44,0,.71l-.9,2.36-.6,1.56c-.26.69-.53,1.37-.77,2.06A1.08,1.08,0,0,1,11.83,31.65ZM8.11,24.42a3.15,3.15,0,0,0,.1.32l.36.93c.56,1.47,1.12,2.95,1.69,4.42l.15.4c.25.64.25.64.84.65h.53c.4,0,.55-.1.7-.5.24-.69.51-1.38.78-2.07L13.85,27c.3-.78.61-1.57.9-2.35a1.57,1.57,0,0,0,.08-.25h-.51a2.28,2.28,0,0,1-.52,0c-.43-.06-.6.07-.73.55-.29,1.07-.61,2.15-.92,3.19l-.43,1.44h-.48l-.38-1.31c-.25-.87-.5-1.75-.77-2.62C10,25.4,10,25.2,9.92,25c-.17-.63-.17-.63-.78-.62-.18,0-.41,0-.69,0Z"/>
        </g>
        <g>
          <path d="M17.67,11.8a2.82,2.82,0,0,1,2-1.05c.39,0,.55.11.55.53,0,1.25,0,1.25-1.18,1.28h-.15c-1,.08-1.08.16-1.08,1.15s0,2.25,0,3.37c0,.41-.12.57-.56.57-1.43,0-1.43,0-1.43-1.4,0-1.62,0-3.24,0-4.86,0-.45.15-.65.6-.6a1.09,1.09,0,0,0,.36,0c.53-.08.77.18.83.67C17.6,11.55,17.63,11.63,17.67,11.8Z" style="fill: #03abe6"/>
          <path d="M17.25,17.91h0c-1.57,0-1.68-.11-1.68-1.65V14.93c0-1.17,0-2.35,0-3.53a.91.91,0,0,1,.23-.69.78.78,0,0,1,.65-.16,1,1,0,0,0,.29,0,.92.92,0,0,1,.75.14.93.93,0,0,1,.35.61,2.7,2.7,0,0,1,1.83-.81h0c.37,0,.8.09.8.77,0,1.39-.08,1.5-1.42,1.54H18.9c-.85.07-.85.07-.85.9v1c0,.8,0,1.6,0,2.4a.79.79,0,0,1-.19.63A.82.82,0,0,1,17.25,17.91Zm-1-6.86a.28.28,0,0,0-.16,0s-.07.09-.07.32c0,1.18,0,2.35,0,3.53v1.33c0,1.15,0,1.15,1.14,1.15h0c.24,0,.29,0,.31-.05s0-.08,0-.27c0-.8,0-1.61,0-2.41v-1c0-1.12.17-1.31,1.3-1.4H19c1,0,1,0,1-1,0-.29,0-.32-.31-.32h0a2.6,2.6,0,0,0-1.82,1l-.32.3-.13-.57a1.23,1.23,0,0,1-.05-.21.54.54,0,0,0-.17-.4.46.46,0,0,0-.37,0,1.54,1.54,0,0,1-.43,0Z"/>
        </g>
        <g>
          <path d="M38.17,35.7l-2,.2c-.17,0-.37.08-.45-.12s.08-.35.24-.46a5.45,5.45,0,0,1,2.41-1,7.18,7.18,0,0,1,2.92.07c.72.18.87.34.84,1.07a8.47,8.47,0,0,1-1.86,5.08,2.65,2.65,0,0,1-.33.34c-.14.12-.31.26-.5.12s0-.32,0-.47a21.07,21.07,0,0,0,1-3.2,1.94,1.94,0,0,0,.05-.2c.15-1-.05-1.29-1.1-1.41A7.75,7.75,0,0,0,38.17,35.7Z" style="fill: #03abe6"/>
          <path d="M39.59,41.32a.51.51,0,0,1-.31-.11.5.5,0,0,1-.11-.68l0-.07.12-.35a19.1,19.1,0,0,0,.84-2.82.36.36,0,0,1,0-.1.29.29,0,0,0,0-.09c.07-.47.06-.73,0-.86s-.35-.21-.83-.26a7.17,7.17,0,0,0-1.14,0l-.54,0-1.46.15h-.07a.53.53,0,0,1-.64-.28.64.64,0,0,1,.32-.76,5.58,5.58,0,0,1,2.52-1,7.08,7.08,0,0,1,3,.07c.85.21,1.06.48,1,1.32a8.66,8.66,0,0,1-1.92,5.23,4.12,4.12,0,0,1-.35.37A.87.87,0,0,1,39.59,41.32Zm-1-5.88a6.68,6.68,0,0,1,.78,0,1.22,1.22,0,0,1,1.32,1.69l0,.14,0,.07a19.46,19.46,0,0,1-.86,2.9l-.12.34a.37.37,0,0,1-.05.11s0,.09,0,.11a1.44,1.44,0,0,0,.19-.14,2.72,2.72,0,0,0,.29-.3,8.23,8.23,0,0,0,1.81-4.94c0-.6,0-.66-.65-.82a6.64,6.64,0,0,0-2.82-.06,5.15,5.15,0,0,0-2.3.94c-.13.09-.16.13-.16.15h.2l1.46-.14.55-.06Z"/>
        </g>
        <g>
          <path d="M18,27.82c0,1,0,2,0,3.05,0,.38-.12.53-.51.52-1.84,0-1.53.27-1.55-1.5s0-3.41,0-5.12c0-.47.15-.63.63-.62,1.43,0,1.43,0,1.43,1.44Z" style="fill: #253242"/>
          <path d="M17.54,31.64h-.72c-.51,0-.77,0-1-.18s-.17-.45-.16-.93v-.64c0-.8,0-1.61,0-2.42s0-1.8,0-2.7a1,1,0,0,1,.2-.67.91.91,0,0,1,.68-.2c1.58,0,1.68.13,1.68,1.69v3.09c0,.73,0,1.46,0,2.18a.8.8,0,0,1-.19.6A.73.73,0,0,1,17.54,31.64Zm-.43-.5h.41c.15,0,.2,0,.21,0s0-.05,0-.23c0-.73,0-1.46,0-2.19V25.59c0-1.18,0-1.18-1.13-1.19-.28,0-.35,0-.37.06s-.06.1-.06.31c0,.9,0,1.8,0,2.7s0,1.61,0,2.42v.65a2.13,2.13,0,0,0,0,.57,2.62,2.62,0,0,0,.59,0Z"/>
        </g>
        <g>
          <path d="M21,14.21c0-1,0-1.9,0-2.85,0-.38.12-.57.54-.56,1.72,0,1.42-.23,1.44,1.4s0,3.24,0,4.86c0,.43-.11.65-.58.6a3.39,3.39,0,0,0-.78,0c-.52.07-.65-.18-.63-.66C21.05,16.07,21,15.14,21,14.21Z" style="fill: #03abe6"/>
          <path d="M21.51,17.92a.66.66,0,0,1-.5-.17.91.91,0,0,1-.23-.75c0-.66,0-1.32,0-2V13.4c0-.68,0-1.36,0-2a.86.86,0,0,1,.2-.63.82.82,0,0,1,.59-.19h.62c.49,0,.74,0,.92.18s.16.42.15.86v.6c0,.79,0,1.58,0,2.37s0,1.66,0,2.5a.91.91,0,0,1-.22.7.8.8,0,0,1-.64.15,2.89,2.89,0,0,0-.72,0Zm0-6.87a.45.45,0,0,0-.21,0s0,.09,0,.27c0,.68,0,1.36,0,2V15c0,.66,0,1.33,0,2,0,.27,0,.35.06.37a.4.4,0,0,0,.29,0,3.93,3.93,0,0,1,.84,0c.18,0,.23,0,.24,0s.06-.08.06-.33c0-.83,0-1.67,0-2.51s0-1.57,0-2.35v-.62a2.45,2.45,0,0,0,0-.51,3.59,3.59,0,0,0-.56,0h-.65Z"/>
        </g>
        <g>
          <path d="M17,23a1.07,1.07,0,0,1-1.21-1.1A1.08,1.08,0,0,1,17,20.84,1.08,1.08,0,0,1,18.18,22,1.06,1.06,0,0,1,17,23Z" style="fill: #253242"/>
          <path d="M17,23.29a1.48,1.48,0,0,1-1.08-.39,1.37,1.37,0,0,1,1-2.31h0a1.5,1.5,0,0,1,1.06.39,1.33,1.33,0,0,1,.38,1A1.31,1.31,0,0,1,17,23.29h0Zm0-2.2h0a.83.83,0,0,0-.92.85.82.82,0,0,0,.23.61,1.05,1.05,0,0,0,.73.24h0a.81.81,0,0,0,.92-.84.84.84,0,0,0-.23-.61A1,1,0,0,0,17,21.09Z"/>
        </g>
        <g>
          <path d="M22,9.78a1,1,0,0,1-1.15-1,1,1,0,0,1,1.13-1,1,1,0,1,1,0,2.09Z" style="fill: #03abe6"/>
          <path d="M22,10a1.27,1.27,0,0,1-1.39-1.28A1.22,1.22,0,0,1,21,7.83a1.44,1.44,0,0,1,1-.39h0a1.27,1.27,0,0,1,1.4,1.28,1.18,1.18,0,0,1-.35.91,1.41,1.41,0,0,1-1,.4h0Zm0-2.09h0a.91.91,0,0,0-.68.24.8.8,0,0,0-.2.56.78.78,0,0,0,.89.79h0a1,1,0,0,0,.68-.25.76.76,0,0,0,.2-.56C22.92,8.24,22.57,7.94,22,7.94Z"/>
        </g>
        <path d="M24.29,27.75a12.89,12.89,0,0,0,0,1.39c0,.39-.15.55-.47.68a1.58,1.58,0,0,1-2.36-1.37,4.11,4.11,0,0,1,.15-2,1.72,1.72,0,0,1,2.57-.6c.12.11.09.25.1.38Z" style="fill: #fdfefe"/>
        <g>
          <path d="M11.11,12.13a1.16,1.16,0,0,1,1.31,1,4,4,0,0,1,0,2.23A1.62,1.62,0,0,1,10,16a.37.37,0,0,1-.12-.32c0-1,0-2,0-2.94a.41.41,0,0,1,.28-.43A2.45,2.45,0,0,1,11.11,12.13Z" style="fill: #fdfefe"/>
          <path d="M10.89,16.6a1.66,1.66,0,0,1-1.11-.4.6.6,0,0,1-.2-.5V12.76A.65.65,0,0,1,10,12.1a2.77,2.77,0,0,1,1.1-.22h0A1.41,1.41,0,0,1,12.67,13a4.28,4.28,0,0,1,0,2.38,1.67,1.67,0,0,1-1.2,1.1A2.16,2.16,0,0,1,10.89,16.6Zm.22-4.22a2.16,2.16,0,0,0-.9.18c-.11,0-.13.08-.13.2V15.7c0,.1,0,.11,0,.13a1.28,1.28,0,0,0,1.2.21,1.2,1.2,0,0,0,.87-.77,3.71,3.71,0,0,0,0-2.09.93.93,0,0,0-1.06-.8Z"/>
        </g>
        <path d="M37.09,27.81a4.27,4.27,0,0,1,.23-1.45,1.26,1.26,0,0,1,1.25-.83,1.23,1.23,0,0,1,1.24.84,4,4,0,0,1,0,2.78,1.18,1.18,0,0,1-1.22.84,1.25,1.25,0,0,1-1.28-.85A4.21,4.21,0,0,1,37.09,27.81Z" style="fill: #fdfefe"/>
        <path d="M30.64,27.18l-.31,0c-.82-.06-.88-.16-.52-.92a1.45,1.45,0,0,1,1.88-.71.84.84,0,0,1-.09,1.56A3.1,3.1,0,0,1,30.64,27.18Z" style="fill: #fdfefe"/>
        <g>
          <path d="M38.93,13.69h-.17c-.92-.08-1-.08-.55-1a1.31,1.31,0,0,1,1.6-.58.75.75,0,0,1,.53.74.72.72,0,0,1-.51.75A2.4,2.4,0,0,1,38.93,13.69Z" style="fill: #fdfefe"/>
          <path d="M39.13,13.94h-.21v-.25l0,.25h-.16c-.55,0-.84-.07-1-.31s0-.54.23-1a1.53,1.53,0,0,1,1.9-.71,1,1,0,0,1,.7,1,1,1,0,0,1-.68,1A2.32,2.32,0,0,1,39.13,13.94Zm-.19-.5a2.1,2.1,0,0,0,.8-.09.46.46,0,0,0,.35-.5.47.47,0,0,0-.36-.51,1.05,1.05,0,0,0-1.29.45,2.6,2.6,0,0,0-.24.61,4.15,4.15,0,0,1,.57,0h.17Z"/>
        </g>
      </g>
    </g>
  </g>
</svg>
