<svg xmlns="http://www.w3.org/2000/svg" viewBox="0 0 219.25 84">
  <g>
    <path d="M12.83,24.88V23.59c0-6.3,2.09-10.8,9.75-10.8,5.76,0,8.36,2.41,9,7.7l-4.89.72c-.18-2.77-1.33-4.43-4.21-4.43-3.93,0-5.08,2.56-5.08,6.81v1.29c0,4.61,1.19,6.8,5.15,6.8,3.09,0,4-1.33,4.39-4.71l4.86.54c-.86,5-3.24,8.13-9.61,8.13C15,35.64,12.83,31.11,12.83,24.88Z" style="fill: #00447a"/>
    <path d="M33.67,24.88V23.59c0-6.3,2.09-10.8,9.76-10.8,5.76,0,8.35,2.41,9,7.7l-4.9.72c-.18-2.77-1.33-4.43-4.21-4.43-3.92,0-5.07,2.56-5.07,6.81v1.29c0,4.61,1.18,6.8,5.14,6.8,3.1,0,4-1.33,4.39-4.71l4.86.54c-.86,5-3.24,8.13-9.61,8.13C35.87,35.64,33.67,31.11,33.67,24.88Z" style="fill: #00447a"/>
    <path d="M55.74,13h4.54V35.5H55.74Z" style="fill: #00447a"/>
    <path d="M69.85,19.45h2.88V17.61c0-3.42.72-5.72,6-5.72h1.87V15.7H79.1C77.2,15.7,77,16.57,77,18v1.41h3.67V23.3H77V35.5H72.73V23.3H69.85Z" style="fill: #00447a"/>
    <path d="M82,27.9V27c0-4.39,1.87-7.81,7.34-7.81s7.38,3.32,7.38,7.71v.93c0,4.36-2.27,7.81-7.38,7.81S82,32.22,82,27.9Zm10.4-.28v-.36c0-3-.65-4.32-3.06-4.32s-3,1.37-3,4.35v.33c0,2.91.83,4.39,3,4.39S92.35,30.57,92.35,27.62Z" style="fill: #00447a"/>
    <path d="M99.52,19.45h4.32v1.87a5.83,5.83,0,0,1,4.42-2v3.75c-3.13,0-4.42,1.18-4.42,4.24V35.5H99.52Z" style="fill: #00447a"/>
    <path d="M110.78,19.45h4.29V21a6.2,6.2,0,0,1,4.75-1.8c2.27,0,3.09.69,3.89,2,1-1.22,2.55-2,5.4-2,3.56,0,4.53,2,4.53,5.4V35.5h-4.28V25.39c0-1.34-.18-2.45-2.05-2.45-2.06,0-3,.83-3,3.45V35.5h-4.28V25.39c0-1.34-.18-2.45-2-2.45-2.12,0-3,.83-3,3.67V35.5h-4.29Z" style="fill: #00447a"/>
    <path d="M136.34,30.82c0-3.45,2.85-5.33,9.51-6.15v-.29c0-1.23-.51-1.69-2.52-1.69-1.66,0-2.38.54-2.81,1.33l-4-1.37c.86-1.8,3.35-3.46,7.16-3.46,4.61,0,6.37,1.62,6.37,5.08V35.5h-4.17V33.81c-1,1.19-2.24,1.83-4.65,1.83C137.64,35.64,136.34,33.63,136.34,30.82Zm9.51-1.4V27.76c-3.64.54-5.22,1.22-5.22,2.77,0,1.19.68,1.8,2,1.8C145.2,32.33,145.85,31,145.85,29.42Z" style="fill: #00447a"/>
    <path d="M152.47,19.45h2.88V14.91h4.25v4.54h3.67V23.3H159.6v6.15c0,1.8.32,2.31,2.16,2.31h1.51V35.5h-2.56c-4.28,0-5.36-1.48-5.36-5.44V23.3h-2.88Z" style="fill: #00447a"/>
    <path d="M166.51,13.36h4.28v4.21h-4.28Zm0,6.09h4.28V35.5h-4.28Z" style="fill: #00447a"/>
    <path d="M173.71,27.9V27c0-4.39,1.87-7.81,7.34-7.81s7.38,3.32,7.38,7.71v.93c0,4.36-2.27,7.81-7.38,7.81S173.71,32.22,173.71,27.9Zm10.4-.28v-.36c0-3-.64-4.32-3.06-4.32s-3,1.37-3,4.35v.33c0,2.91.83,4.39,3,4.39S184.11,30.57,184.11,27.62Z" style="fill: #00447a"/>
    <path d="M191.28,19.45h4.28v1.62a6.51,6.51,0,0,1,4.93-1.88c3.57,0,4.72,2,4.72,5.4V35.5h-4.29V25.39c0-1.34-.36-2.45-2.23-2.45-2.12,0-3.13.83-3.13,3.67V35.5h-4.28Z" style="fill: #00447a"/>
  </g>
  <g>
    <g>
      <path d="M45,56.44v-.62c0-3,1-5.17,4.67-5.17,2.76,0,4,1.15,4.31,3.68l-2.35.35c-.08-1.33-.63-2.12-2-2.12-1.88,0-2.43,1.22-2.43,3.26v.62c0,2.2.57,3.25,2.46,3.25,1.48,0,1.93-.64,2.1-2.26l2.33.26c-.41,2.4-1.55,3.9-4.6,3.9C46,61.59,45,59.41,45,56.44Z" style="fill: #00447a"/>
      <path d="M54.8,56.44v-.62c0-3,1-5.17,4.67-5.17,2.76,0,4,1.15,4.31,3.68l-2.34.35c-.09-1.33-.64-2.12-2-2.12-1.88,0-2.43,1.22-2.43,3.26v.62c0,2.2.57,3.25,2.47,3.25,1.48,0,1.92-.64,2.1-2.26l2.32.26c-.41,2.4-1.55,3.9-4.6,3.9C55.85,61.59,54.8,59.41,54.8,56.44Z" style="fill: #00447a"/>
      <path d="M65.19,50.73h2.17V61.52H65.19Z" style="fill: #00447a"/>
      <path d="M77.88,57H74.19v4.53h-2V51.78h2v3.48h3.69V51.78h2v9.74h-2Z" style="fill: #00447a"/>
      <path d="M84.14,51.7h2l3.31,9.82h-2l-.67-2H83.42l-.65,2H80.86ZM84,58h2.32L85.1,54.55Z" style="fill: #00447a"/>
      <path d="M90.41,58.16V51.78h2v6.3c0,1.24.32,1.85,1.84,1.85s1.88-.61,1.88-1.83V51.78H98v6.36c0,2.55-1.24,3.46-3.78,3.46S90.41,60.69,90.41,58.16Z" style="fill: #00447a"/>
      <path d="M101.9,53.51H99V51.78h7.67v1.73h-2.85v8h-2v-8Z" style="fill: #00447a"/>
      <path d="M107.81,51.78h6.61v1.73h-4.65v1.88H114v1.69h-4.19V59.8h4.65v1.72h-6.61Z" style="fill: #00447a"/>
      <path d="M115.37,56.51h4.75v1.65h-4.75Z" style="fill: #00447a"/>
      <path d="M120.66,58.59l2.1-.22c.2,1,.65,1.51,2.16,1.51,1.12,0,1.85-.29,1.85-1.18s-.79-1-2.24-1.37c-1.78-.39-3.42-.81-3.42-2.88,0-1.54,1-2.75,3.75-2.75,2.16,0,3.36.89,3.78,2.57l-2.16.28c-.16-.76-.59-1.12-1.62-1.12-1.31,0-1.77.34-1.77,1s.6.87,2,1.2c2.29.51,3.64,1,3.64,3.1,0,1.92-1.71,2.87-3.84,2.87C122,61.6,121.08,60.35,120.66,58.59Z" style="fill: #00447a"/>
      <path d="M132.53,51.7h2l3.31,9.82h-2l-.67-2h-3.38l-.65,2h-1.91ZM132.34,58h2.32l-1.17-3.44Z" style="fill: #00447a"/>
      <path d="M143.29,61.6h-2l-3.25-9.82h2l2.3,7.16,2.3-7.16h1.91Z" style="fill: #00447a"/>
      <path d="M147.09,56.93v-.56c0-2.55.86-4.67,4.2-4.67s4.22,2.09,4.22,4.62v.59c0,2.35-1,4.67-4.22,4.67S147.09,59.45,147.09,56.93Zm6.44,0v-.62c0-2.06-.64-2.91-2.24-2.91s-2.23.87-2.23,2.92v.59c0,2,.78,3,2.23,3S153.53,59,153.53,57Z" style="fill: #00447a"/>
      <path d="M156.86,51.78h2v9.74h-2Z" style="fill: #00447a"/>
      <path d="M160.64,51.78h6.61v1.73H162.6v1.88h4.18v1.69H162.6V59.8h4.65v1.72h-6.61Z" style="fill: #00447a"/>
    </g>
    <g>
      <g>
        <path d="M12.85,57.49A14.19,14.19,0,0,0,27,71.66a14,14,0,0,0,8.71-3l-3-3.34A9.57,9.57,0,0,1,27,67.17a9.68,9.68,0,1,1,0-19.36,9.5,9.5,0,0,1,3.88.82l1.78-4.13a14.16,14.16,0,0,0-19.84,13Z" style="fill: #00447a"/>
        <path d="M19.47,57.49A7.56,7.56,0,0,0,27,65a7.45,7.45,0,0,0,4.24-1.34l-3.05-3.4a3.21,3.21,0,0,1-1.19.24,3.06,3.06,0,0,1-3.06-3A3.1,3.1,0,0,1,27,54.39a3.2,3.2,0,0,1,1.24.26l1.78-4.07a7.77,7.77,0,0,0-3-.64A7.56,7.56,0,0,0,19.47,57.49Z" style="fill: #00447a"/>
        <g style="opacity: 0.6000000000000001">
          <path d="M32.66,54.55a6.67,6.67,0,0,1,.73,2.94,6.91,6.91,0,0,1-1.39,4l3,3.34a10.82,10.82,0,0,0,1.71-12.15Z" style="fill: #00447a;stroke: #00447a;stroke-miterlimit: 10"/>
        </g>
      </g>
      <g style="opacity: 0.6000000000000001">
        <path d="M31.4,52.88l7.7-3.61a14.67,14.67,0,0,0-4.27-4.16l-3.45,7.74Z" style="fill: #00447a"/>
      </g>
    </g>
  </g>
</svg>
