<svg xmlns="http://www.w3.org/2000/svg" viewBox="0 0 49.97 49.97">
  <g>
    <g>
      <rect x="0.5" y="0.5" width="48.97" height="48.97" rx="11.1" style="fill: #355291"/>
      <path d="M38.38,50H11.6A11.61,11.61,0,0,1,0,38.38V11.6A11.61,11.61,0,0,1,11.6,0H38.38A11.61,11.61,0,0,1,50,11.6V38.38A11.6,11.6,0,0,1,38.38,50ZM11.6,1A10.61,10.61,0,0,0,1,11.6V38.38A10.6,10.6,0,0,0,11.6,49H38.38A10.6,10.6,0,0,0,49,38.38V11.6A10.6,10.6,0,0,0,38.38,1Z"/>
    </g>
    <g>
      <path d="M25.93,49.47V30.39H19.62V22.67h6.31V15.21s1.41-7.33,8.49-7.33H41.5v6.94L36.61,15s-2.83-.13-3,2.58,0,5.08,0,5.08H41v7.77H33.65V49.47Z" style="fill: #fff"/>
      <path d="M34.15,50H25.43V30.89H19.12V22.17h6.31v-7c0-.17,1.59-7.83,9-7.83H42v7.93l-5.38.14a2.23,2.23,0,0,0-2.47,2.1c-.1,1.94,0,3.74,0,4.56H41.5v8.77H34.15Zm-7.72-1h6.72V29.88H40.5V23.11H33.17l0-.47s-.13-2.44,0-5.14a3.17,3.17,0,0,1,3.48-3.05L41,14.34v-6H34.42c-6.57,0-8,6.64-8,6.93v7.86H20.12v6.72h6.31Z"/>
    </g>
  </g>
</svg>
