<svg xmlns="http://www.w3.org/2000/svg" viewBox="0 0 259.81 179.36">
  <g>
    <path d="M129.81,62.25A31.13,31.13,0,1,1,161,31.18,31.13,31.13,0,0,1,129.81,62.25ZM129.88,38a6.86,6.86,0,1,0-6.9-6.79A6.91,6.91,0,0,0,129.88,38Z" style="fill: #015194"/>
    <path d="M165.07,106.41c-.21,6.88-4,13.39-12,17.33l-.54.25c-.2.1-.39.12-.49-.12s.14-.35.28-.41a19.18,19.18,0,0,0,3.29-2,11.51,11.51,0,0,0,2.88-2.86,4.57,4.57,0,0,0-.56-6.11,10.05,10.05,0,0,0-4.51-2.6c-14-4.21-28-8.41-42-13A27.7,27.7,0,0,1,101,91c-9.72-9.1-7.8-25.49,3.76-32,.43-.24,1-.9,1.39-.32.2.28-.64.52-1,.75a13.54,13.54,0,0,0-3.37,2.85,4.24,4.24,0,0,0,.25,6,9.21,9.21,0,0,0,4.13,2.31c14.24,4.29,28.51,8.49,42.63,13.19,5.51,1.83,10.24,4.86,13.41,9.91C164.24,97,165.08,100.65,165.07,106.41Z" style="fill: #015194"/>
    <path d="M25.23,137.31c-1.75,0-3.31,0-4.87,0a1.29,1.29,0,0,1-1.08-.59,8.23,8.23,0,0,0-9.91-2,8.8,8.8,0,0,0-4.59,9.45A8.48,8.48,0,0,0,12.42,151c3.68.23,6.88-1.51,8.11-4.52H12.26c-2,0-2,0-2-1.92,0-2.36,0-2.36,2.38-2.36,4.24,0,8.48,0,12.72,0,.91,0,1.13.23,1.06,1.16-.53,7-6.34,12.14-13.66,12a12.83,12.83,0,0,1-3-25.29A13.27,13.27,0,0,1,24.59,136C24.8,136.33,25,136.74,25.23,137.31Z" style="fill: #75685b"/>
    <path d="M209.83,137.21v4c0,4.2,0,8.39,0,12.59,0,.84-.22,1.13-1.07,1.06a17.76,17.76,0,0,0-2.63,0c-.73,0-1-.19-1-.93.05-2.32,0-4.64,0-7,0-5.24,0-10.47,0-15.71,0-1,.26-1.26,1.2-1.18,1.35.11,3-.47,4,.21s1.42,2.15,2.07,3.29q3.75,6.56,7.47,13.11c.21.37.44.72.84,1.38v-1.5c0-5.16,0-10.32,0-15.47,0-.76.16-1.09,1-1,1.15.08,2.65-.36,3.36.21s.23,2.18.23,3.32c0,6.71,0,13.43,0,20.15,0,.91-.29,1-1.13,1.13-2.93.45-4.64-.6-6-3.35-2.24-4.54-5-8.83-7.51-13.23A2.19,2.19,0,0,0,209.83,137.21Z" style="fill: #75685b"/>
    <path d="M53,129.57a12.88,12.88,0,1,1-12.91,13A12.85,12.85,0,0,1,53,129.57Zm.22,4.3a8.57,8.57,0,1,0,8.19,8.82A8.46,8.46,0,0,0,53.2,133.87Z" style="fill: #75685b"/>
    <path d="M94.07,141.27c3.43,1.92,4.6,4.17,4,7.57-.54,3.08-3,5.25-6.52,5.77-2.94.44-5.91.12-8.86.22-.91,0-.62-.65-.62-1.09,0-6.64,0-13.27,0-19.9,0-1,0-2,0-3,0-.44,0-.79.62-.77,2.87.1,5.76-.26,8.61.29a6.37,6.37,0,0,1,5.19,7.91A5.51,5.51,0,0,1,94.07,141.27Zm-7.78,6c0,.84,0,1.68,0,2.52,0,.36-.05.76.5.75a13.09,13.09,0,0,0,4.28-.34,3,3,0,0,0,1.65-4.49A4,4,0,0,0,89.08,144c-2.8-.09-2.8-.08-2.8,2.65C86.28,146.86,86.28,147.06,86.29,147.26Zm0-10.19c0,2.91.34,3.16,3.28,2.43a3.68,3.68,0,0,0,.57-.15A2.33,2.33,0,0,0,91.69,137c0-1.89-1.19-2.66-4.1-2.67-1.31,0-1.31,0-1.31,2.23Z" style="fill: #75685b"/>
    <path d="M246.15,147.71a4,4,0,0,0,.6,0c1.14-.16,1.84.09,2.17,1.42s1.71,2,3.25,1.87a3.21,3.21,0,0,0,2.91-2.29,3,3,0,0,0-1.46-3.6c-1.53-.89-3.26-1.31-4.85-2.05a6.84,6.84,0,0,1-3.79-8.75,7.09,7.09,0,0,1,7.76-4.69,7.26,7.26,0,0,1,6.38,6.07c.09.64,0,1-.76.92a13.52,13.52,0,0,0-1.8,0c-1.14,0-2.17.19-2.55-1.45-.27-1.18-1.54-1.38-2.69-1.24a2.16,2.16,0,0,0-2,1.66,2.55,2.55,0,0,0,.88,2.91,9.89,9.89,0,0,0,2.72,1.2,18,18,0,0,1,2.77,1.12,7.36,7.36,0,0,1,3.88,8.57,7.65,7.65,0,0,1-6.87,5.92,8.05,8.05,0,0,1-8.71-5.62c-.55-1.94-.54-2,1.42-2Z" style="fill: #75685b"/>
    <path d="M117.29,142.45c0-3.8,0-7.6,0-11.39,0-.78.21-1,1-1,3.76,0,7.51,0,11.27,0,.87,0,1,.28,1,1.09,0,3.23,0,3.23-3.22,3.23-1.52,0-3,0-4.56,0-.7,0-1,.14-1,.92.06,1.35.06,2.72,0,4.07,0,.82.17,1.11,1,1.08,2.16-.06,4.32,0,6.48,0,.65,0,.88.15.9.86.09,3.45.12,3.45-3.35,3.45-1.44,0-2.88,0-4.32,0-.57,0-.76.19-.74.76,0,1.44,0,2.88,0,4.31,0,.7.3.77.86.77,2.24,0,4.48,0,6.72,0,.86,0,1.27.16,1.16,1.11s.41,2.36-.21,3-2,.19-3,.2c-3,0-6.08,0-9.12,0-.79,0-1-.22-1-1C117.32,150.05,117.29,146.25,117.29,142.45Z" style="fill: #75685b"/>
    <path d="M149.83,142.43c0-3.72,0-7.43,0-11.15,0-1,.31-1.32,1.29-1.22s2.47-.43,3.12.2.23,2.12.23,3.22c0,5.32,0,10.63,0,15.94,0,.9.23,1.17,1.13,1.13,1.8-.07,3.6,0,5.4,0,.72,0,1.11.12,1,1-.09,1.06.32,2.46-.22,3.12s-2,.2-3.08.22c-2.52,0-5-.06-7.55,0-1.17,0-1.36-.37-1.34-1.41C149.86,149.78,149.83,146.1,149.83,142.43Z" style="fill: #75685b"/>
    <path d="M184.69,142.48c0,3.76,0,7.52,0,11.28,0,.81-.17,1.15-1,1.08-1.15-.09-2.66.36-3.37-.21s-.23-2.18-.23-3.33c0-6.67,0-13.35,0-20,0-.89.16-1.33,1.17-1.21s2.54-.44,3.25.2.21,2.12.22,3.23C184.71,136.48,184.69,139.48,184.69,142.48Z" style="fill: #75685b"/>
    <path d="M193,176.49a7.84,7.84,0,0,0,1-2.09c1.55-3.59,3.08-7.19,4.62-10.79a2.26,2.26,0,0,1,2.74-1c.35.16.28.45.28.72,0,5,0,10.07,0,15.11,0,.7-.34.75-.89.77s-.83-.21-.82-.83c0-4,0-7.92,0-11.88v-1.35c-.63.27-.65.76-.8,1.13q-2.53,6-5,11.92c-.21.5-.29,1-1.08,1s-1-.54-1.18-1.09q-2.5-6-5-12.05c-.15-.36-.32-.71-.64-1.4,0,.65-.09,1-.09,1.29q0,6,0,12.11c0,.62.09,1.16-.88,1.14s-.8-.53-.8-1.09c0-4.8,0-9.6,0-14.4,0-.39-.34-1.16.44-1.12s1.9-.6,2.45.75c1.47,3.58,3,7.13,4.54,10.69Z" style="fill: #75685b"/>
    <path d="M243,173h-8c-.59,0-1.08.05-1.06-.83s.53-.73,1-.73h8.87c1.47,0,1.52,0,1.1,1.48a8.35,8.35,0,0,1-7,6.31,8.59,8.59,0,1,1-2.56-17,8.93,8.93,0,0,1,8,3.38c.27.34.87.88.46,1.17a1.48,1.48,0,0,1-1.77-.15,5.58,5.58,0,0,1-.38-.47,7.09,7.09,0,0,0-8.17-1.92,7.1,7.1,0,1,0,9,10A2,2,0,0,0,243,173Z" style="fill: #75685b"/>
    <path d="M62.85,179.37a8.56,8.56,0,1,1,8.86-8.5A8.65,8.65,0,0,1,62.85,179.37Zm-7-8.49a7.1,7.1,0,0,0,14.19,0,7.1,7.1,0,1,0-14.19,0Z" style="fill: #75685b"/>
    <path d="M112.8,170.84c0-2.44,0-4.88,0-7.32,0-.79.23-1,1-1,2.47.09,5-.21,7.38.57a8.16,8.16,0,0,1-.72,15.74,35.39,35.39,0,0,1-7,.34c-.71,0-.61-.46-.61-.89C112.79,175.8,112.8,173.32,112.8,170.84Zm1.66.07v5.87c0,.45-.06.89.64.87a26.28,26.28,0,0,0,5-.27,6.53,6.53,0,0,0,5.06-6.33,6.66,6.66,0,0,0-4.43-6.45c-1.75-.61-3.55-.43-5.34-.51-.72,0-1,.2-1,.94C114.49,167,114.46,169,114.46,170.91Z" style="fill: #75685b"/>
    <path d="M207.6,179c2.27-5.33,4.52-10.61,6.75-15.89.24-.57.63-.62,1.14-.6s1-.06,1.25.61c2.24,5.28,4.52,10.54,6.82,15.88-1.19.38-1.9.14-2.31-1.08s-1-2.41-1.52-3.64a1.05,1.05,0,0,0-1.16-.76c-2,0-4,0-6,0a1.09,1.09,0,0,0-1.24.8c-.46,1.19-1.09,2.32-1.49,3.52S208.89,179.47,207.6,179Zm8-14.56c-1.13,2.65-2.17,5.08-3.24,7.62h5.57c.39,0,.9.1.61-.6C217.55,169.22,216.6,167,215.56,164.47Z" style="fill: #75685b"/>
    <path d="M133.31,170.89c0-2.48,0-4.95,0-7.43,0-.74.2-1,.94-.94,2.44,0,4.88,0,7.31,0,.58,0,.88.1.88.77s-.25.82-.85.81c-1.88,0-3.76,0-5.63,0-.72,0-1,.2-1,.95.05,1.35.05,2.71,0,4.07,0,.76.26,1,1,.94,1.64,0,3.28,0,4.91,0,.56,0,1.35-.35,1.33.8s-.76.72-1.27.73c-1.68,0-3.35,0-5,0-.66,0-.93.16-.91.87.05,1.47,0,2.95,0,4.43,0,.66.26.8.85.79,1.88,0,3.76,0,5.63,0,.59,0,1,0,1,.8s-.38.75-.92.75c-2.43,0-4.87,0-7.31,0-.8,0-.91-.31-.9-1C133.33,175.76,133.31,173.33,133.31,170.89Z" style="fill: #75685b"/>
    <path d="M50.22,166.69a2.27,2.27,0,0,1-2.47-.82,6.74,6.74,0,0,0-9.76-.1,6.9,6.9,0,0,0-.09,10,6.65,6.65,0,0,0,9.82-.06,2.34,2.34,0,0,1,2.49-.88c-1,3-5.22,5.07-8.91,4.45a8.56,8.56,0,0,1-.13-16.88C44.75,161.65,49.06,163.69,50.22,166.69Z" style="fill: #75685b"/>
    <path d="M19.4,170.88c0-2.44,0-4.87,0-7.31,0-.73.1-1.07,1-1,2.43,0,4.87,0,7.31,0,.57,0,.88.08.87.77s-.23.82-.84.81c-1.92,0-3.83,0-5.75,0-.69,0-.9.22-.88.89q.07,2.1,0,4.2c0,.7.23.88.9.86,1.79,0,3.59,0,5.39,0,.62,0,.95.09.94.84s-.41.72-.92.72c-1.76,0-3.52,0-5.28,0-.74,0-1.07.13-1,1,.07,1.44.05,2.88,0,4.32,0,.63.18.83.81.81,1.92,0,3.84,0,5.76,0,.52,0,.89,0,.91.72s-.35.83-.95.82c-2.4,0-4.79,0-7.19,0-.76,0-1-.18-1-1C19.44,175.76,19.4,173.32,19.4,170.88Z" style="fill: #75685b"/>
    <path d="M91.43,170.9c0-2.47,0-5,0-7.43,0-.74.22-1,1-.95,2.44,0,4.88,0,7.32,0,.58,0,.86.11.86.78s-.26.81-.85.8c-1.84,0-3.68,0-5.52,0-.79,0-1.16.15-1.11,1,.08,1.32.06,2.64,0,4,0,.72.19,1,.94,1,1.71,0,3.43,0,5.15,0,.52,0,1.13-.22,1.14.74s-.52.8-1.09.8c-1.71,0-3.44,0-5.15,0-.82,0-1,.26-1,1,0,1.4,0,2.8,0,4.2,0,.68.18.9.87.89,1.84,0,3.68,0,5.52,0,.55,0,1.09-.13,1.08.79s-.62.73-1.13.74c-2.32,0-4.64,0-7,0-.86,0-1.06-.28-1-1.09C91.46,175.7,91.43,173.3,91.43,170.9Z" style="fill: #75685b"/>
    <path d="M250.51,170.85c0-2.48,0-5,0-7.43,0-.68.2-.9.88-.89,2.48,0,5,0,7.43,0,.64,0,.82.23.82.84s-.29.72-.81.72c-1.92,0-3.84,0-5.76,0-.66,0-.91.18-.89.87q.08,2.1,0,4.2c0,.68.19.9.88.88,1.8,0,3.6,0,5.39,0,.61,0,1,.07.95.83s-.4.73-.92.73c-1.76,0-3.52,0-5.27,0-.75,0-1.07.15-1,1,.07,1.39.06,2.8,0,4.19,0,.74.18,1,.93.95,1.88,0,3.76,0,5.64,0,.53,0,.9,0,.9.74s-.25.81-.85.8c-2.48,0-5,0-7.43,0-.71,0-.87-.25-.86-.9C250.53,175.81,250.51,173.33,250.51,170.85Z" style="fill: #75685b"/>
    <path d="M154.34,170.79q0-3.6,0-7.2c0-.58-.07-1.08.82-1.08s.85.43.85,1.05c0,4.31,0,8.63,0,12.95,0,.86.17,1.2,1.11,1.15,1.67-.08,3.36,0,5,0,.65,0,.79.24.8.84s-.3.71-.81.71c-2.28,0-4.56,0-6.84,0-.73,0-1-.24-1-1C154.36,175.75,154.34,173.27,154.34,170.79Z" style="fill: #75685b"/>
    <path d="M77.2,170.83c0-2.35,0-4.71,0-7.07,0-.59-.24-1.28.87-1.25s.79.66.79,1.21c0,4.23,0,8.46,0,12.69,0,1,.24,1.31,1.25,1.26,1.59-.09,3.19,0,4.79,0,.6,0,.84.15.85.79s-.32.77-.88.76c-2.24,0-4.47-.05-6.71,0-.86,0-1-.34-1-1.05C77.22,175.7,77.2,173.27,77.2,170.83Z" style="fill: #75685b"/>
    <path d="M.2,170.82q0-3.58,0-7.19c0-.62-.08-1.15.89-1.13s.79.53.79,1.09c0,4.32,0,8.63,0,12.95,0,.9.22,1.17,1.12,1.12,1.64-.07,3.28,0,4.92,0,.57,0,.88.1.88.78s-.34.77-.9.77c-2.24,0-4.48,0-6.71,0-.81,0-1-.3-1-1.05C.23,175.7.2,173.26.2,170.82Z" style="fill: #75685b"/>
    <path d="M175.94,170.92c0,2.43,0,4.86,0,7.29,0,.56,0,1-.77,1s-.93-.26-.93-1q0-7.36,0-14.72c0-.68.14-1,.91-1s.79.42.79,1C175.93,166,175.93,168.45,175.94,170.92Z" style="fill: #75685b"/>
    <path d="M13,162.74c-.64,1.4-1.3,2.8-1.91,4.21-.36.86-1,.49-1.76.54.63-1.58,1.2-3,1.81-4.49.39-.95,1.19-.2,1.74-.53Z" style="fill: #75685b"/>
    <path d="M167.7,162.66c-.68,1.48-1.35,2.92-2,4.38-.29.67-.89.57-1.32.42-.64-.21-.09-.67,0-1,.28-.87.72-1.69,1-2.56C165.72,162.8,166.31,162.22,167.7,162.66Z" style="fill: #75685b"/>
    <path d="M22.41,161.53c-.52,0-.54-.46-.74-.73a.41.41,0,0,1,.16-.68c1.21-.66,2.43-1.32,3.64-2,.25-.14.46-.15.58.12s.64.84.34,1C25.1,160.11,23.72,160.8,22.41,161.53Z" style="fill: #75685b"/>
  </g>
</svg>
