<svg xmlns="http://www.w3.org/2000/svg" viewBox="0 0 50.97 50.97">
  <g>
    <g>
      <rect x="1" y="1" width="48.97" height="48.97" rx="11.1"/>
      <path d="M38.88,51H12.1A12.11,12.11,0,0,1,0,38.88V12.1A12.12,12.12,0,0,1,12.1,0H38.88A12.11,12.11,0,0,1,51,12.1V38.88A12.1,12.1,0,0,1,38.88,51ZM12.1,2A10.11,10.11,0,0,0,2,12.1V38.88A10.11,10.11,0,0,0,12.1,49H38.88A10.11,10.11,0,0,0,49,38.88V12.1A10.11,10.11,0,0,0,38.88,2Z"/>
    </g>
    <g>
      <path d="M23.69,8.71H17V42.26a33.17,33.17,0,0,1,6.39-.52V27.33l5,14.49a41,41,0,0,1,6.92.44V8.71H29.13v15.1Z" style="fill: #e50917"/>
      <path d="M16.48,42.85V8.21h7.57l4.58,12.73V8.21h7.15V42.85l-.58-.1a41.52,41.52,0,0,0-6.83-.43H28l-4.14-12v12l-.52,0a33.15,33.15,0,0,0-6.28.51Zm12.73-1.54a42.68,42.68,0,0,1,5.57.37V9.21H29.63V26.67L23.34,9.21H17.48V41.67a33.79,33.79,0,0,1,5.39-.44V24.34l5.85,17Z"/>
    </g>
  </g>
</svg>
