<svg xmlns="http://www.w3.org/2000/svg" viewBox="0 0 50.06 49.98">
  <g>
    <rect x="0.59" y="0.5" width="48.97" height="48.97" rx="11.1" style="fill: #fff"/>
    <path d="M38.47,50H11.69A11.61,11.61,0,0,1,.09,38.38V11.6A11.61,11.61,0,0,1,11.69,0H38.47A11.61,11.61,0,0,1,50.06,11.6V38.38A11.61,11.61,0,0,1,38.47,50ZM11.69,1A10.61,10.61,0,0,0,1.09,11.6V38.38A10.61,10.61,0,0,0,11.69,49H38.47a10.61,10.61,0,0,0,10.59-10.6V11.6A10.6,10.6,0,0,0,38.47,1Z"/>
  </g>
  <g>
    <path d="M7.42,18.08s.26-4.3,4.24-4.88,13.17-.58,13.17-.58h.25s9.19,0,13.17.58,4.24,4.88,4.24,4.88a57.58,57.58,0,0,1,0,14.54s-.26,4.3-4.24,4.88-13.17.58-13.17.58h-.25s-9.19,0-13.17-.58-4.24-4.88-4.24-4.88A69.71,69.71,0,0,1,7.42,18.08Z" style="fill: #fe0600"/>
    <path d="M25.08,38.58h-.25c-.38,0-9.28,0-13.25-.59-4.33-.63-4.66-5.29-4.66-5.34A71.69,71.69,0,0,1,6.92,18c0-.34.48-4.71,4.66-5.32,4-.57,12.87-.58,13.25-.58h.25c.37,0,9.27,0,13.24.58C42.66,13.33,43,18,43,18.05a58.94,58.94,0,0,1,0,14.64s-.32,4.67-4.66,5.3C34.35,38.57,25.45,38.58,25.08,38.58Zm-.25-25.46c-.09,0-9.2,0-13.1.57-3.52.51-3.8,4.26-3.81,4.42v0a69,69,0,0,0,0,14.42c0,.19.29,3.93,3.81,4.44,3.9.57,13,.58,13.1.58h.25c.09,0,9.2,0,13.1-.58,3.54-.51,3.81-4.37,3.81-4.41a57.76,57.76,0,0,0,0-14.44c0-.2-.29-3.95-3.81-4.46-3.9-.56-13-.57-13.1-.57Z"/>
  </g>
  <g>
    <polygon points="21.36 19.97 21.36 30.43 30.48 25.2 21.36 19.97" style="fill: #fff"/>
    <path d="M21.36,30.92a.57.57,0,0,1-.25-.06.52.52,0,0,1-.25-.44V20a.52.52,0,0,1,.25-.44.5.5,0,0,1,.5,0l9.12,5.23a.5.5,0,0,1,0,.87l-9.12,5.23A.51.51,0,0,1,21.36,30.92Zm.5-10.09v8.73l7.62-4.36Z"/>
  </g>
</svg>
