<svg id="Calque_1" data-name="Calque 1" xmlns="http://www.w3.org/2000/svg" viewBox="0 0 106.88 42.4">
  <title>Avion</title>
  <g>
    <g>
      <g>
        <path d="M94.93,34.89h8.84c2.48,0,2.5-7.85,1.47-10.28.33-2.15-1.16-4.71-1.16-4.71s-2.22-4-20.71-6.32C80.72,13.12,73.6,6,59.16,2.48,51.47.6,38.26.5,31.57,2.55c-10.65,3.25-11.13,7.27-18.33,9a55.21,55.21,0,0,0-6.73,1.87c-2,.78-3.83,1.68-4,3.83C2,23.8,1.09,23.13,1,26.25c0,1.9,0,3.69.05,5.08a3.75,3.75,0,0,0,3.75,3.56H94.93" style="fill: #1c1caa"/>
        <path d="M103.77,35.89H4.82A4.75,4.75,0,0,1,.07,31.38C0,30,0,28.16,0,26.23a9.88,9.88,0,0,1,.51-3.11,25.48,25.48,0,0,0,1-5.92c.24-3,3-4,4.64-4.68a42.74,42.74,0,0,1,5.71-1.63L13,10.61A19.09,19.09,0,0,0,20.11,7.1,35,35,0,0,1,31.27,1.59c6.62-2,20-2.06,28.13-.08a65.65,65.65,0,0,1,20.53,9.1,16.61,16.61,0,0,0,3.6,2C102,14.86,104.71,19,105,19.41a10,10,0,0,1,1.3,5.07c.87,2.43.95,8-.53,10.24A2.3,2.3,0,0,1,103.77,35.89ZM45,2A49,49,0,0,0,31.86,3.5,33.32,33.32,0,0,0,21.25,8.74a21.36,21.36,0,0,1-7.77,3.82l-1.17.27a40.83,40.83,0,0,0-5.43,1.56c-2.1.81-3.26,1.52-3.37,3a28.29,28.29,0,0,1-1.06,6.33A8.23,8.23,0,0,0,2,26.28c0,1.88,0,3.65,0,5a2.75,2.75,0,0,0,2.75,2.61h98.95c.11,0,.25-.21.3-.27,1.09-1.66,1-6.92.25-8.63l-.11-.26,0-.28a7.52,7.52,0,0,0-1-4.05s-2.69-3.7-20-5.83c-1.08-.19-2.39-1-4.38-2.27A63.56,63.56,0,0,0,58.92,3.46,62.09,62.09,0,0,0,45,2Z"/>
      </g>
      <g>
        <path d="M29.59,32.6a8.81,8.81,0,1,1-8.81-8.8A8.8,8.8,0,0,1,29.59,32.6Z"/>
        <path d="M20.78,42.4a9.8,9.8,0,1,1,9.81-9.8A9.82,9.82,0,0,1,20.78,42.4Zm0-17.6a7.8,7.8,0,1,0,7.81,7.8A7.81,7.81,0,0,0,20.78,24.8Z"/>
      </g>
      <g>
        <path d="M94.93,32.6a8.8,8.8,0,1,1-8.8-8.8A8.8,8.8,0,0,1,94.93,32.6Z"/>
        <path d="M86.13,42.4a9.8,9.8,0,1,1,9.8-9.8A9.81,9.81,0,0,1,86.13,42.4Zm0-17.6a7.8,7.8,0,1,0,7.8,7.8A7.8,7.8,0,0,0,86.13,24.8Z"/>
      </g>
      <g>
        <path d="M100.81,17.66c-5.84-2.06-2.59,5.1-1.37,5.68a21,21,0,0,0,5.8,1.27S105.77,19.41,100.81,17.66Z" style="fill: #ffe3c2"/>
        <path d="M106.13,25.72l-1-.12A21.63,21.63,0,0,1,99,24.24c-1.22-.58-3.22-4.41-2.35-6.51.35-.85,1.4-2.1,4.49-1h0a7.7,7.7,0,0,1,5.1,8ZM99,18.29c-.29,0-.46.07-.51.17-.45.86.8,3.58,1.39,4a16.8,16.8,0,0,0,4.31,1,5.49,5.49,0,0,0-3.75-4.87h0A4.65,4.65,0,0,0,99,18.29Z"/>
      </g>
      <g>
        <path d="M2,23.13c1.31.06,4.78.14,5.94-.61s1.11-3.88,1-5.11c0-.29-4.41-2.13-4.75-2.14,0,0-1.46-.62-1.74,2a39.12,39.12,0,0,1-.95,5.88Z" style="fill: #ffe3c2"/>
        <path d="M3.63,24.17c-.54,0-1.08,0-1.59,0l-.41,0a1,1,0,0,1-1-1.39,41.63,41.63,0,0,0,.87-5.59,3.34,3.34,0,0,1,1.36-2.7,2,2,0,0,1,1.68-.16,19.57,19.57,0,0,1,2.6,1c2.38,1,2.81,1.34,2.85,2,.18,3.23-.33,5.25-1.49,6C7.52,24,5.53,24.17,3.63,24.17Zm-.8-2C5.4,22.22,7,22,7.42,21.68s.67-1.48.6-3.75a36.87,36.87,0,0,0-3.89-1.66.44.44,0,0,1-.27-.08,2.32,2.32,0,0,0-.36,1.2C3.35,18.8,3.09,20.78,2.83,22.15Z"/>
      </g>
      <g>
        <path d="M70.27,6.36c.61.27,4.3,6.55,4.47,7a.74.74,0,0,1-.72,1l-24.19-.77a.31.31,0,0,1-.29-.26L47.48,1.08S57.24.48,70.27,6.36Z" style="fill: #fff"/>
        <path d="M74.05,15.39H74L49.8,14.62a1.31,1.31,0,0,1-1.25-1.13L46.49,1.25a1,1,0,0,1,.2-.79,1,1,0,0,1,.73-.37c.4,0,10.15-.56,23.27,5.36h0c1.17.53,5,7.52,5,7.58a1.75,1.75,0,0,1-.22,1.63A1.72,1.72,0,0,1,74.05,15.39ZM50.43,12.64l23.19.73a65.94,65.94,0,0,0-3.87-6.15A55.43,55.43,0,0,0,48.66,2.07Zm.09.51v0S50.52,13.17,50.52,13.15Z"/>
      </g>
      <g>
        <path d="M49.83,13.62l-23-.73c-.32,0,4.52-10.11,4.75-10.34,0,0,5.28-2,15.91-1.47C47.69,2.35,49.83,13.62,49.83,13.62Z" style="fill: #fff"/>
        <path d="M49.83,14.62h0l-23-.73a1,1,0,0,1-.9-.62c-.48-1.12,4.88-11.34,4.95-11.41a.9.9,0,0,1,.38-.25c.22-.08,5.6-2,16.3-1.53a1,1,0,0,1,.94.84c.21,1.24,2.33,12.4,2.35,12.51a1,1,0,0,1-.22.84A1,1,0,0,1,49.83,14.62ZM28.21,11.93l20.4.65C48.13,10,47,4.29,46.63,2.05,38.32,1.74,33.5,3,32.24,3.38,31.57,4.66,29.2,9.64,28.21,11.93Zm3.36-9.38h0Z"/>
      </g>
      <g>
        <circle cx="20.78" cy="32.6" r="6.02" style="fill: #fff"/>
        <path d="M20.78,39.62a7,7,0,1,1,7-7A7,7,0,0,1,20.78,39.62Zm0-12a5,5,0,1,0,5,5A5,5,0,0,0,20.78,27.58Z"/>
      </g>
      <g>
        <circle cx="86.13" cy="32.6" r="6.02" style="fill: #fff"/>
        <path d="M86.13,39.62a7,7,0,1,1,7-7A7,7,0,0,1,86.13,39.62Zm0-12a5,5,0,1,0,5,5A5,5,0,0,0,86.13,27.58Z"/>
      </g>
    </g>
    <g>
      <line x1="52.49" y1="19.45" x2="57.53" y2="19.59" style="fill: #fff"/>
      <rect x="54.01" y="17" width="2" height="5.05" transform="translate(33.9 73.94) rotate(-88.33)"/>
    </g>
    <g>
      <line x1="29.59" y1="18.78" x2="34.64" y2="18.92" style="fill: #fff"/>
      <rect x="31.11" y="16.33" width="2" height="5.05" transform="translate(12.34 50.4) rotate(-88.34)"/>
    </g>
  </g>
</svg>
