<svg id="Calque_1" data-name="Calque 1" xmlns="http://www.w3.org/2000/svg" viewBox="0 0 209.23 267.99">
  <title>PictoSlide</title>
  <g>
    <g>
      <path d="M81.38,202.27a7.48,7.48,0,0,0-8.75,7.93l-2.11,45.18a8.36,8.36,0,0,0,1.86,6.26,8.66,8.66,0,0,0,6.18,2.45L161.71,268a8.39,8.39,0,0,0,6.27-1.87,8.72,8.72,0,0,0,2.41-6.18l2.11-45.18a7.41,7.41,0,0,0-7.83-8.59Z" style="fill: #fff"/>
      <path d="M81.38,202.27a7.48,7.48,0,0,0-8.75,7.93l-2.11,45.18a8.36,8.36,0,0,0,1.86,6.26,8.66,8.66,0,0,0,6.18,2.45L161.71,268a8.39,8.39,0,0,0,6.27-1.87,8.72,8.72,0,0,0,2.41-6.18l2.11-45.18a7.41,7.41,0,0,0-7.83-8.59Zm-.12,2.38,83.3,3.89a6.39,6.39,0,0,1,4,1.26c-15,10.63-29.36,22.27-44.42,32.7a6.28,6.28,0,0,1-6-.27C104.44,230.09,90.72,217.79,77,205.56A6.54,6.54,0,0,1,81.26,204.65Zm88.58,7.15a8.38,8.38,0,0,1,.28,2.84L168,259.82a7.66,7.66,0,0,1-.95,3.64l-29.65-27.78Zm-94.25-4.37,30,26.76-32.14,24.9a7.32,7.32,0,0,1-.58-3.6L75,210.31a8.37,8.37,0,0,1,.58-2.88Zm31.84,28.41c3.19,2.8,6.36,5.7,9.55,8.45a8.84,8.84,0,0,0,8.17.38c3.44-2.45,6.88-5,10.3-7.52l29.82,27.9a7.2,7.2,0,0,1-3.45.55l-83.15-3.89a7.76,7.76,0,0,1-3.53-.87Z"/>
    </g>
    <g>
      <path d="M8.34,173.5c-3.18.72-5.62,2.11-7,4.31S-.32,182.86.39,186L12.87,241.4c.71,3.15,2.12,5.57,4.34,7s5.09,1.63,8.3.91l101.93-23c3.13-.7,5.58-2.12,7-4.34s1.59-5.07.86-8.28l-12.48-55.39c-.69-3.1-2.09-5.5-4.28-6.88s-5-1.61-8-.91Z" style="fill: #fff"/>
      <path d="M8.34,173.5c-3.18.72-5.62,2.11-7,4.31S-.32,182.86.39,186L12.87,241.4c.71,3.15,2.12,5.57,4.34,7s5.09,1.63,8.3.91l101.93-23c3.13-.7,5.58-2.12,7-4.34s1.59-5.07.86-8.28l-12.48-55.39c-.69-3.1-2.09-5.5-4.28-6.88s-5-1.61-8-.91ZM9,176.42l102.11-23a8.07,8.07,0,0,1,5.26.2C101.78,171.46,88.24,190.33,73.49,208a7.89,7.89,0,0,1-7.29,1.65C45.52,199.5,24.82,189.18,4.16,179,5.08,177.8,6.6,177,9,176.42ZM118.59,155.6a10.51,10.51,0,0,1,1.28,3.35l12.48,55.38a9.58,9.58,0,0,1,.06,4.73L87.28,195.29ZM3.05,181.68l45.25,22.4L17.68,244.91a9.16,9.16,0,0,1-1.9-4.17L3.3,185.36a10.76,10.76,0,0,1-.25-3.68Zm48,23.79c4.78,2.33,9.59,4.79,14.37,7.05a11.13,11.13,0,0,0,10-2.26c3.34-4.11,6.65-8.35,10-12.53l45.38,23.85a9.16,9.16,0,0,1-4,1.81l-101.93,23a9.93,9.93,0,0,1-4.57.12Z"/>
    </g>
    <g>
      <path d="M81.36,119.61c-3.67-.54-6.82-.07-9.21,1.7s-3.81,4.68-4.34,8.32l-9.42,63.88c-.54,3.63,0,6.78,1.76,9.16s4.72,3.81,8.43,4.36l117.55,17.34c3.62.53,6.8,0,9.17-1.76s3.76-4.73,4.31-8.44L209,150.3c.53-3.58,0-6.7-1.73-9.06s-4.59-3.73-8.17-4.26Z" style="fill: #fff"/>
      <path d="M81.36,119.61c-3.67-.54-6.82-.07-9.21,1.7s-3.81,4.68-4.34,8.32l-9.42,63.88c-.54,3.63,0,6.78,1.76,9.16s4.72,3.81,8.43,4.36l117.55,17.34c3.62.53,6.8,0,9.17-1.76s3.76-4.73,4.31-8.44L209,150.3c.53-3.58,0-6.7-1.73-9.06s-4.59-3.73-8.17-4.26ZM80.87,123l117.77,17.37c2.63.39,4.37,1.19,5.5,2.37-22.79,13-44.88,27.45-67.75,40.13A9,9,0,0,1,128,181.6C110.17,162.41,92.44,143,74.7,123.67,76.14,122.83,78.1,122.56,80.87,123Zm124.81,22.76a12,12,0,0,1,0,4.07l-9.42,63.88a11.06,11.06,0,0,1-1.87,5L156.22,175ZM72.4,126.12l38.85,42.28L62.06,199.2a10.31,10.31,0,0,1-.31-5.2l9.42-63.87a12,12,0,0,1,1.23-4ZM113.61,171c4.12,4.43,8.21,9,12.36,13.37a12.66,12.66,0,0,0,11.55,1.7c5.23-3,10.48-6.15,15.69-9.23l38.4,43.88a10.47,10.47,0,0,1-5,.29L69.07,203.67a11.23,11.23,0,0,1-4.89-1.74Z"/>
    </g>
    <g>
      <g>
        <path d="M2.44,69.71a7.37,7.37,0,0,0-.19,2.82l11.36,92.31a7.44,7.44,0,0,0,8.31,6.48l158.21-19.47a7.45,7.45,0,0,0,6.49-8.31L175.25,51.23a7.2,7.2,0,0,0-.74-2.45" style="fill: #fff"/>
        <path d="M21.43,173.23a9.32,9.32,0,0,1-9.67-8.16L.4,72.76a9.53,9.53,0,0,1,.24-3.53l3.59,1a5.61,5.61,0,0,0-.14,2.12l11.36,92.31a5.62,5.62,0,0,0,6.24,4.87L179.91,150a5.58,5.58,0,0,0,4.86-6.23L173.41,51.46a5.54,5.54,0,0,0-.56-1.84l3.32-1.68A9.36,9.36,0,0,1,177.1,51l11.36,92.32a9.3,9.3,0,0,1-8.1,10.37L22.14,173.17C21.91,173.2,21.67,173.22,21.43,173.23Z"/>
      </g>
      <rect x="4.69" y="137.31" width="84.1" height="3.72" transform="translate(-85.61 75.64) rotate(-45.79)"/>
      <rect x="146.53" y="84.2" width="3.72" height="84.86" transform="translate(-36.99 187.38) rotate(-58.62)"/>
      <g>
        <path d="M174.24,48.74,89.09,3.42A12.86,12.86,0,0,0,74.24,5.25L2.63,69.86l0,.32L95.88,119.8l78.39-70.74Z" style="fill: #fff"/>
        <path d="M96,121.66a1.91,1.91,0,0,1-1-.22L1.8,71.82a1.82,1.82,0,0,1-1-1.41l0-.32a1.85,1.85,0,0,1,.6-1.61L73,3.87A14.74,14.74,0,0,1,90,1.78L175.11,47.1a1.85,1.85,0,0,1,1,1.41l0,.32a1.88,1.88,0,0,1-.6,1.61L97.13,121.18A1.9,1.9,0,0,1,96,121.66Zm-90.33-52,90,47.89,75.67-68.28L88.22,5.06A11.08,11.08,0,0,0,75.48,6.62Z"/>
      </g>
      <g>
        <path d="M160.26,61.42,154,10.53a4.43,4.43,0,0,0-4.93-3.85L83,14.82,16.86,23A4.43,4.43,0,0,0,13,27.89l6.27,50.89,76.61,41Z" style="fill: #fff"/>
        <path d="M96.16,122.06,17.54,80,11.16,28.12a6.3,6.3,0,0,1,5.47-7L148.83,4.84a6.28,6.28,0,0,1,7,5.47l6.38,51.84ZM21,77.59l74.6,40,62.69-56.85-6.14-49.93a2.55,2.55,0,0,0-2.86-2.23L17.08,24.8a2.58,2.58,0,0,0-2.23,2.86Z"/>
      </g>
      <g>
        <rect x="26.87" y="36.27" width="23.05" height="23.05" transform="translate(-5.55 5.05) rotate(-7.02)" style="fill: #99ffd3"/>
        <path d="M26.75,62.71,23.48,36.14l26.57-3.27,3.27,26.57Zm.87-23.33L30,58.57l19.19-2.36L46.81,37Z"/>
      </g>
      <g>
        <line x1="30.46" y1="77.66" x2="147.75" y2="63.22" style="fill: #fff"/>
        <rect x="30.02" y="68.59" width="118.17" height="3.72" transform="translate(-7.93 11.4) rotate(-7.01)"/>
      </g>
      <g>
        <line x1="51.6" y1="86.47" x2="129.38" y2="76.89" style="fill: #fff"/>
        <rect x="51.3" y="79.82" width="78.37" height="3.72" transform="translate(-9.29 11.66) rotate(-7.01)"/>
      </g>
      <g>
        <line x1="65.89" y1="95.71" x2="117.75" y2="89.32" style="fill: #fff"/>
        <rect x="65.7" y="90.66" width="52.25" height="3.72" transform="translate(-10.61 11.9) rotate(-7.01)"/>
      </g>
      <g>
        <line x1="145.17" y1="23.04" x2="117.95" y2="26.39" style="fill: #fff"/>
        <rect x="117.84" y="22.85" width="27.43" height="3.72" transform="translate(-2.03 16.24) rotate(-7.01)"/>
      </g>
      <g>
        <line x1="146.51" y1="33.93" x2="119.29" y2="37.28" style="fill: #fff"/>
        <rect x="119.18" y="33.75" width="27.43" height="3.72" transform="translate(-3.35 16.49) rotate(-7.01)"/>
      </g>
      <g>
        <line x1="147.85" y1="44.82" x2="120.63" y2="48.17" style="fill: #fff"/>
        <rect x="120.53" y="44.64" width="27.43" height="3.72" transform="translate(-4.67 16.73) rotate(-7.01)"/>
      </g>
    </g>
  </g>
</svg>
