<svg id="Calque_1" data-name="Calque 1" xmlns="http://www.w3.org/2000/svg" viewBox="0 0 144.33 246">
  <title>Ampoule</title>
  <polygon points="37.54 173.79 106.69 173.79 106.69 215.2 96.91 224.97 96.2 236.31 85.58 243.25 61.49 243.25 50.15 238.15 45.62 222.71 37.54 213.35 37.54 173.79" style="fill: #ffe6c5"/>
  <polygon points="29.42 160.85 28.54 138.03 26.79 128.38 19.77 117.42 12.09 106.89 3.54 86.49 3.54 59.07 12.97 34.94 35.34 12.79 61.88 3.36 92.37 4.67 114.53 15.86 135.36 42.62 141.72 77.94 134.7 101.19 120.23 123 114.74 136.06 114.96 156.68 111.02 168.52 100.49 173.79 47.19 173.79 34.47 169.84 29.42 160.85" style="fill: #fff"/>
  <path d="M123.2,21.14A72.17,72.17,0,0,0,16.68,118.32h0l1.81,2.32A31.58,31.58,0,0,1,25.93,141v15.53a20.28,20.28,0,0,0,8.77,16.69,3,3,0,0,0-.12.6,19.68,19.68,0,0,0,.18,2.57,3,3,0,0,0-.18.89v13.84a19.65,19.65,0,0,0,.18,2.56,3,3,0,0,0-.18.9v13.83A20.26,20.26,0,0,0,43.23,225v.7A20.31,20.31,0,0,0,63.52,246H80.81a20.32,20.32,0,0,0,20.3-20.29V225a20.3,20.3,0,0,0,8.64-16.59V194.59a3,3,0,0,0-.18-.9,19.65,19.65,0,0,0,.18-2.56V177.29a3,3,0,0,0-.18-.89,19.68,19.68,0,0,0,.18-2.57,3,3,0,0,0-.12-.6,20.3,20.3,0,0,0,8.77-16.69V141a31.54,31.54,0,0,1,7.44-20.36l1.27-1.68a72.18,72.18,0,0,0-3.91-97.82ZM58.33,176.83H98.1a20.21,20.21,0,0,0,5.42-.75,14.29,14.29,0,0,1-14.07,12H54.87a14.27,14.27,0,0,1-14.06-12,20.15,20.15,0,0,0,5.42.75Zm31.12,28.59H54.87a14.31,14.31,0,0,1-14.29-14.3v-2.9a20.24,20.24,0,0,0,14.29,5.9H89.45a20.2,20.2,0,0,0,14.29-5.9v2.9A14.31,14.31,0,0,1,89.45,205.42Zm5.34,23.29a14.33,14.33,0,0,1-14,11.29H63.52a14.33,14.33,0,0,1-14-11.29H94.79Zm-5.34-6H54.87a14.31,14.31,0,0,1-14.29-14.29v-2.91a20.21,20.21,0,0,0,14.29,5.91H89.45a20.21,20.21,0,0,0,14.29-5.91v2.91A14.31,14.31,0,0,1,89.45,222.71ZM83,170.84H46.23a14.31,14.31,0,0,1-14.3-14.29V141a37.61,37.61,0,0,0-7.06-21.92h0l-1.76-2.5a66.17,66.17,0,1,1,98.1,0L119.5,119h0a37.63,37.63,0,0,0-7.1,22v15.57A14.31,14.31,0,0,1,98.1,170.84H83Z"/>
  <path d="M81.19,172c0-.24-1.89-23.9-1.83-47.63,0-15.39.89-26.11,2.11-33.6q-4.31.18-9.31.19h-.38q-5,0-9.31-.19c1.22,7.49,2.06,18.21,2.11,33.6.06,23.73-1.81,47.39-1.83,47.63l-3-.24c0-.24,1.88-23.79,1.82-47.4,0-15.86-.93-26.55-2.15-33.75A80.39,80.39,0,0,1,45.68,88.8a8.41,8.41,0,0,1-5.84-5.13,7.8,7.8,0,0,1,.75-7.26c2.27-3.42,6.6-4.53,12.84-3.31,1.75.34,5.79,1.13,8.49,14.64,2.91.13,6.24.22,10,.22s7.14-.09,10-.22c2.7-13.51,6.74-14.3,8.48-14.64,6.26-1.22,10.58-.11,12.85,3.31a7.8,7.8,0,0,1,.75,7.26,8.43,8.43,0,0,1-5.84,5.13,80.39,80.39,0,0,1-13.75,1.81c-1.22,7.2-2.1,17.89-2.15,33.75-.06,23.61,1.8,47.16,1.82,47.4ZM95,75.62a20.19,20.19,0,0,0-3.93.43c-1.46.28-4,2.24-6,11.51a74.73,74.73,0,0,0,12.45-1.67,5.45,5.45,0,0,0,3.77-3.31,4.87,4.87,0,0,0-.46-4.51C99.77,76.44,97.81,75.62,95,75.62Zm-46.08,0c-2.8,0-4.76.82-5.85,2.45a4.9,4.9,0,0,0-.45,4.51,5.46,5.46,0,0,0,3.76,3.31,74.89,74.89,0,0,0,12.46,1.67c-2-9.27-4.53-11.23-6-11.51A20.35,20.35,0,0,0,48.93,75.62Z"/>
</svg>
