<svg id="Calque_1" data-name="Calque 1" xmlns="http://www.w3.org/2000/svg" xmlns:xlink="http://www.w3.org/1999/xlink" viewBox="0 0 213 308">
  <defs>
    <clipPath id="clip-path">
      <path d="M57.21,198.35c-15.12-50.7,34.87-59.66,34.87-59.66s36.81-13,30.67-42.24,22.67-42.73,22.67-42.73L209.33,251.1,211.5,262l-3.15,7.79-5.45,4.65-9.85,2.74L103.4,296.8l-7.56.63L89.41,295,84,289.25Z" style="fill: none"/>
    </clipPath>
  </defs>
  <title>PictoSlide</title>
  <g>
    <g>
      <path d="M22.64,13.71s-25.23.84-20.56,23.06C7.22,61.21,74.67,290.39,74.67,290.39s6.1,20.59,31.75,15.21c20.14-4.22,67.81-14.37,86.88-18.57,6.51-1.43,15.8-8,17.33-14.4.89-3.71.76-6.67.87-10.63" style="fill: #fff"/>
      <path d="M98.32,308a25.84,25.84,0,0,1-25.09-17.18C72.56,288.53,5.7,61.3.61,37.08-.78,30.47.21,25,3.54,20.72c6.27-8,18.53-8.49,19.05-8.51l.1,3c-.12,0-11.4.48-16.8,7.37C3.14,26.1,2.35,30.77,3.55,36.46,8.62,60.57,75.43,287.68,76.11,290c.21.69,4.75,15,22.16,15a38.26,38.26,0,0,0,7.84-.86c20.11-4.22,68-14.43,86.87-18.57,6.23-1.37,14.84-7.6,16.19-13.29A36,36,0,0,0,210,264c0-.64,0-1.31,0-2l3,.08c0,.68,0,1.34,0,2a38.54,38.54,0,0,1-.87,9c-1.78,7.49-12,14.08-18.47,15.51-18.84,4.15-66.77,14.36-86.89,18.58A41.14,41.14,0,0,1,98.32,308Z"/>
    </g>
    <g>
      <path d="M22.64,13.71,114.82,1.64a16,16,0,0,1,17.27,10.91l78.63,242.82a16,16,0,0,1-11.79,20.52l-97.44,21.33a16,16,0,0,1-18.76-11.14L9.37,34A16,16,0,0,1,22.64,13.71Z" style="fill: #fff"/>
      <path d="M98.09,299.09a17.54,17.54,0,0,1-16.8-12.59L7.93,34.42a17.47,17.47,0,0,1,14.51-22.2L114.62.15a17.48,17.48,0,0,1,18.9,11.94l78.63,242.82a17.47,17.47,0,0,1-12.89,22.44l-97.45,21.33A17.52,17.52,0,0,1,98.09,299.09ZM22.64,13.71l.19,1.48a14.48,14.48,0,0,0-12,18.39L84.17,285.66a14.51,14.51,0,0,0,17,10.09l97.44-21.33a14.45,14.45,0,0,0,10.68-18.59L130.67,13A14.5,14.5,0,0,0,115,3.12L22.83,15.19Z"/>
    </g>
    <rect x="63.74" y="11.82" width="22.2" height="3" transform="matrix(0.99, -0.13, 0.13, 0.99, -1.11, 10.21)"/>
    <rect x="49.6" y="15.01" width="5.69" height="3" transform="translate(-2.09 9.48) rotate(-10.12)"/>
    <path d="M51.22,24.23C38.78,24.23,37,12.3,37,12.17l-.2-1.49L97.05,2.8V4.51c0,13.16-6.06,14.31-7.15,14.41-1.28.2-23.53,3.71-36.22,5.17A23.72,23.72,0,0,1,51.22,24.23Zm-10.88-11c.89,2.89,3.85,8.9,13,7.86C66.28,19.62,89.26,16,89.49,16l.21,0s3.89-.42,4.31-9.71Z"/>
    <path d="M200.2,274.18c-22.43-2.06-34.23-9-34.23-9s-51.28-22.62-50.53-107.76-102.16-116-102.16-116S68.6,231.42,79.49,268.88c.16.6.32,1.15.48,1.72h0l.26.86.18.62,4.08,13.8S87.73,296.75,99.2,296l3.68-.69a13.22,13.22,0,0,0,3.86-.65Z" style="fill: #99ffd3"/>
    <g style="clip-path: url(#clip-path)">
      <g>
        <circle cx="26.04" cy="0.27" r="3"/>
        <circle cx="45.41" cy="0.26" r="3"/>
        <circle cx="35.72" cy="9.95" r="3"/>
        <circle cx="64.79" cy="0.26" r="3"/>
        <circle cx="55.1" cy="9.94" r="3"/>
        <circle cx="45.41" cy="19.63" r="3"/>
        <circle cx="84.17" cy="0.25" r="3"/>
        <circle cx="74.48" cy="9.94" r="3"/>
        <circle cx="64.79" cy="19.62" r="3"/>
        <circle cx="55.09" cy="29.31" r="3"/>
        <circle cx="103.54" cy="0.25" r="3"/>
        <circle cx="93.85" cy="9.93" r="3"/>
        <circle cx="84.16" cy="19.62" r="3"/>
        <circle cx="74.47" cy="29.3" r="3"/>
        <circle cx="64.78" cy="38.99" r="3"/>
        <path d="M125-1.88a3,3,0,0,0-4.25,0,3,3,0,0,0,0,4.24,3,3,0,0,0,4.25,0A3,3,0,0,0,125-1.88Z"/>
        <path d="M115.35,7.8a3,3,0,1,0,0,4.25A3,3,0,0,0,115.35,7.8Z"/>
        <path d="M105.66,17.49a3,3,0,1,0,0,4.24A3,3,0,0,0,105.66,17.49Z"/>
        <path d="M96,27.17a3,3,0,1,0,0,4.25A3,3,0,0,0,96,27.17Z"/>
        <path d="M86.28,36.86a3,3,0,1,0,0,4.24A3,3,0,0,0,86.28,36.86Z"/>
        <path d="M76.59,46.54a3,3,0,1,0,0,4.25A3,3,0,0,0,76.59,46.54Z"/>
        <path d="M144.42-1.89a3,3,0,0,0-4.25,0,3,3,0,0,0,0,4.25,3,3,0,0,0,4.25,0A3,3,0,0,0,144.42-1.89Z"/>
        <path d="M134.73,7.8a3,3,0,1,0,0,4.24A3,3,0,0,0,134.73,7.8Z"/>
        <path d="M125,17.48a3,3,0,1,0,0,4.25A3,3,0,0,0,125,17.48Z"/>
        <path d="M115.35,27.17a3,3,0,1,0,0,4.24A3,3,0,0,0,115.35,27.17Z"/>
        <path d="M105.66,36.85a3,3,0,1,0,0,4.25A3,3,0,0,0,105.66,36.85Z"/>
        <path d="M96,46.54a3,3,0,0,0-4.25,0,3,3,0,1,0,4.25,0Z"/>
        <path d="M86.28,56.22a3,3,0,1,0,0,4.25A3,3,0,0,0,86.28,56.22Z"/>
        <circle cx="142.29" cy="19.6" r="3"/>
        <circle cx="132.6" cy="29.29" r="3"/>
        <circle cx="122.91" cy="38.97" r="3"/>
        <circle cx="113.22" cy="48.66" r="3"/>
        <circle cx="103.53" cy="58.34" r="3"/>
        <circle cx="93.84" cy="68.03" r="3"/>
        <circle cx="142.28" cy="38.97" r="3"/>
        <circle cx="132.59" cy="48.65" r="3"/>
        <circle cx="122.9" cy="58.34" r="3"/>
        <circle cx="113.21" cy="68.02" r="3"/>
        <circle cx="103.52" cy="77.71" r="3"/>
        <circle cx="6.66" cy="0.27" r="3"/>
        <circle cx="16.35" cy="9.95" r="3"/>
        <path d="M8.78,17.51a3,3,0,1,0,0,4.25A3,3,0,0,0,8.78,17.51Z"/>
        <circle cx="26.03" cy="19.63" r="3"/>
        <path d="M18.47,27.19a3,3,0,1,0,0,4.25A3,3,0,0,0,18.47,27.19Z"/>
        <path d="M8.78,36.88a3,3,0,1,0,0,4.24A3,3,0,0,0,8.78,36.88Z"/>
        <circle cx="35.72" cy="29.31" r="3"/>
        <path d="M28.15,36.87a3,3,0,1,0,0,4.25A3,3,0,0,0,28.15,36.87Z"/>
        <path d="M18.46,46.56a3,3,0,1,0,0,4.25A3,3,0,0,0,18.46,46.56Z"/>
        <path d="M8.77,56.24a3,3,0,1,0,0,4.25A3,3,0,0,0,8.77,56.24Z"/>
        <circle cx="45.4" cy="38.99" r="3"/>
        <path d="M37.84,46.55a3,3,0,1,0,0,4.25A3,3,0,0,0,37.84,46.55Z"/>
        <path d="M28.15,56.24a3,3,0,1,0,0,4.25A3,3,0,0,0,28.15,56.24Z"/>
        <path d="M18.46,65.92a3,3,0,1,0,0,4.25A3,3,0,0,0,18.46,65.92Z"/>
        <circle cx="6.64" cy="77.73" r="3"/>
        <circle cx="55.09" cy="48.67" r="3"/>
        <path d="M47.52,56.23a3,3,0,1,0,0,4.25A3,3,0,0,0,47.52,56.23Z"/>
        <path d="M37.83,65.92a3,3,0,1,0,0,4.25A3,3,0,0,0,37.83,65.92Z"/>
        <path d="M28.14,75.6a3,3,0,1,0,0,4.25A3,3,0,0,0,28.14,75.6Z"/>
        <circle cx="16.33" cy="87.41" r="3"/>
        <circle cx="6.64" cy="97.1" r="3"/>
        <path d="M66.9,56.23a3,3,0,1,0,0,4.25A3,3,0,0,0,66.9,56.23Z"/>
        <path d="M57.21,65.91a3,3,0,1,0,0,4.25A3,3,0,0,0,57.21,65.91Z"/>
        <path d="M47.52,75.6a3,3,0,1,0,0,4.25A3,3,0,0,0,47.52,75.6Z"/>
        <path d="M37.83,85.28a3,3,0,1,0,0,4.25A3,3,0,0,0,37.83,85.28Z"/>
        <path d="M28.14,95a3,3,0,1,0,0,4.25A3,3,0,0,0,28.14,95Z"/>
        <path d="M18.45,104.66a3,3,0,1,0,0,4.24A3,3,0,0,0,18.45,104.66Z"/>
        <path d="M8.76,114.34a3,3,0,1,0,0,4.25A3,3,0,0,0,8.76,114.34Z"/>
        <path d="M76.58,65.91a3,3,0,1,0,0,4.25A3,3,0,0,0,76.58,65.91Z"/>
        <path d="M66.89,75.59a3,3,0,1,0,0,4.25A3,3,0,0,0,66.89,75.59Z"/>
        <path d="M57.2,85.28a3,3,0,1,0,0,4.25A3,3,0,0,0,57.2,85.28Z"/>
        <path d="M47.51,95a3,3,0,1,0,0,4.24A3,3,0,0,0,47.51,95Z"/>
        <path d="M37.82,104.65a3,3,0,1,0,0,4.25A3,3,0,0,0,37.82,104.65Z"/>
        <path d="M28.13,114.34a3,3,0,1,0,0,4.24A3,3,0,0,0,28.13,114.34Z"/>
        <path d="M18.44,124a3,3,0,1,0,0,4.25A3,3,0,0,0,18.44,124Z"/>
        <path d="M8.75,133.71a3,3,0,1,0,0,4.24A3,3,0,0,0,8.75,133.71Z"/>
        <circle cx="84.15" cy="77.71" r="3"/>
        <path d="M76.58,85.27a3,3,0,1,0,0,4.25A3,3,0,0,0,76.58,85.27Z"/>
        <path d="M66.89,95a3,3,0,1,0,0,4.25A3,3,0,0,0,66.89,95Z"/>
        <path d="M57.2,104.65a3,3,0,1,0,0,4.24A3,3,0,0,0,57.2,104.65Z"/>
        <circle cx="45.38" cy="116.45" r="3"/>
        <circle cx="35.69" cy="126.14" r="3"/>
        <circle cx="26" cy="135.82" r="3"/>
        <circle cx="16.31" cy="145.51" r="3"/>
        <circle cx="6.62" cy="155.2" r="3"/>
        <circle cx="93.83" cy="87.39" r="3"/>
        <path d="M86.26,95a3,3,0,1,0,0,4.25A3,3,0,0,0,86.26,95Z"/>
        <path d="M76.57,104.64a3,3,0,1,0,0,4.25A3,3,0,0,0,76.57,104.64Z"/>
        <path d="M66.88,114.33a3,3,0,1,0,0,4.24A3,3,0,0,0,66.88,114.33Z"/>
        <circle cx="55.07" cy="126.13" r="3"/>
        <circle cx="45.38" cy="135.82" r="3"/>
        <circle cx="35.69" cy="145.5" r="3"/>
        <circle cx="26" cy="155.19" r="3"/>
        <circle cx="16.31" cy="164.88" r="3"/>
        <circle cx="6.62" cy="174.56" r="3"/>
        <circle cx="142.28" cy="58.33" r="3"/>
        <circle cx="132.59" cy="68.02" r="3"/>
        <circle cx="122.9" cy="77.7" r="3"/>
        <circle cx="113.21" cy="87.39" r="3"/>
        <circle cx="142.27" cy="77.7" r="3"/>
        <circle cx="132.58" cy="87.38" r="3"/>
        <circle cx="122.89" cy="97.07" r="3"/>
        <circle cx="161.65" cy="77.69" r="3"/>
        <circle cx="151.96" cy="87.38" r="3"/>
        <circle cx="142.27" cy="97.06" r="3"/>
        <circle cx="132.58" cy="106.75" r="3"/>
        <circle cx="181.03" cy="77.69" r="3"/>
        <circle cx="171.33" cy="87.37" r="3"/>
        <circle cx="161.64" cy="97.06" r="3"/>
        <circle cx="151.95" cy="106.74" r="3"/>
        <circle cx="142.26" cy="116.43" r="3"/>
        <circle cx="200.4" cy="77.68" r="3"/>
        <circle cx="190.71" cy="87.37" r="3"/>
        <circle cx="181.02" cy="97.05" r="3"/>
        <circle cx="171.33" cy="106.74" r="3"/>
        <circle cx="161.64" cy="116.42" r="3"/>
        <circle cx="151.95" cy="126.11" r="3"/>
        <path d="M212.21,85.24a3,3,0,1,0,0,4.24A3,3,0,0,0,212.21,85.24Z"/>
        <path d="M202.52,94.92a3,3,0,1,0,0,4.25A3,3,0,0,0,202.52,94.92Z"/>
        <path d="M192.83,104.61a3,3,0,1,0,0,4.25A3,3,0,0,0,192.83,104.61Z"/>
        <path d="M183.14,114.29a3,3,0,1,0,0,4.25A3,3,0,0,0,183.14,114.29Z"/>
        <path d="M173.45,124a3,3,0,1,0,0,4.25A3,3,0,0,0,173.45,124Z"/>
        <path d="M163.76,133.67a3,3,0,1,0,0,4.24A3,3,0,0,0,163.76,133.67Z"/>
        <circle cx="210.08" cy="106.73" r="3"/>
        <circle cx="200.39" cy="116.41" r="3"/>
        <circle cx="190.7" cy="126.1" r="3"/>
        <circle cx="181.01" cy="135.78" r="3"/>
        <circle cx="171.32" cy="145.47" r="3"/>
        <circle cx="210.08" cy="126.09" r="3"/>
        <circle cx="200.39" cy="135.78" r="3"/>
        <circle cx="190.7" cy="145.46" r="3"/>
        <circle cx="181" cy="155.15" r="3"/>
        <circle cx="210.07" cy="145.46" r="3"/>
        <circle cx="200.38" cy="155.14" r="3"/>
        <circle cx="190.69" cy="164.83" r="3"/>
        <circle cx="210.07" cy="164.82" r="3"/>
        <circle cx="200.38" cy="174.51" r="3"/>
        <circle cx="210.06" cy="184.19" r="3"/>
        <circle cx="103.52" cy="97.07" r="3"/>
        <path d="M96,104.64a3,3,0,1,0,0,4.24A3,3,0,0,0,96,104.64Z"/>
        <path d="M86.26,114.32a3,3,0,1,0,0,4.25A3,3,0,0,0,86.26,114.32Z"/>
        <path d="M76.57,124a3,3,0,1,0,0,4.24A3,3,0,0,0,76.57,124Z"/>
        <circle cx="64.75" cy="135.81" r="3"/>
        <circle cx="55.06" cy="145.5" r="3"/>
        <circle cx="45.37" cy="155.18" r="3"/>
        <circle cx="35.68" cy="164.87" r="3"/>
        <circle cx="25.99" cy="174.56" r="3"/>
        <circle cx="16.3" cy="184.24" r="3"/>
        <circle cx="6.61" cy="193.93" r="3"/>
        <circle cx="113.2" cy="106.75" r="3"/>
        <path d="M105.64,114.32a3,3,0,1,0,0,4.24A3,3,0,0,0,105.64,114.32Z"/>
        <path d="M96,124a3,3,0,1,0,0,4.25A3,3,0,0,0,96,124Z"/>
        <path d="M86.25,133.69a3,3,0,1,0,0,4.24A3,3,0,0,0,86.25,133.69Z"/>
        <circle cx="74.44" cy="145.49" r="3"/>
        <circle cx="64.75" cy="155.18" r="3"/>
        <circle cx="55.06" cy="164.87" r="3"/>
        <circle cx="45.37" cy="174.55" r="3"/>
        <circle cx="35.68" cy="184.24" r="3"/>
        <circle cx="25.99" cy="193.92" r="3"/>
        <circle cx="16.3" cy="203.61" r="3"/>
        <circle cx="122.89" cy="116.43" r="3"/>
        <path d="M115.32,124a3,3,0,1,0,0,4.24A3,3,0,0,0,115.32,124Z"/>
        <path d="M105.63,133.68a3,3,0,1,0,0,4.25A3,3,0,0,0,105.63,133.68Z"/>
        <path d="M95.94,143.37a3,3,0,1,0,0,4.24A3,3,0,0,0,95.94,143.37Z"/>
        <circle cx="84.13" cy="155.17" r="3"/>
        <circle cx="74.43" cy="164.86" r="3"/>
        <circle cx="64.74" cy="174.55" r="3"/>
        <circle cx="55.05" cy="184.23" r="3"/>
        <circle cx="45.36" cy="193.92" r="3"/>
        <circle cx="35.67" cy="203.6" r="3"/>
        <circle cx="132.57" cy="126.11" r="3"/>
        <path d="M125,133.68a3,3,0,1,0,0,4.24A3,3,0,0,0,125,133.68Z"/>
        <path d="M115.32,143.36a3,3,0,1,0,0,4.25A3,3,0,0,0,115.32,143.36Z"/>
        <path d="M105.63,153.05a3,3,0,1,0,0,4.24A3,3,0,0,0,105.63,153.05Z"/>
        <circle cx="93.81" cy="164.85" r="3"/>
        <circle cx="84.12" cy="174.54" r="3"/>
        <circle cx="74.43" cy="184.23" r="3"/>
        <circle cx="64.74" cy="193.91" r="3"/>
        <circle cx="55.05" cy="203.6" r="3"/>
        <circle cx="142.26" cy="135.79" r="3"/>
        <path d="M134.69,143.36a3,3,0,1,0,0,4.24A3,3,0,0,0,134.69,143.36Z"/>
        <path d="M125,153a3,3,0,1,0,0,4.25A3,3,0,0,0,125,153Z"/>
        <path d="M115.31,162.73a3,3,0,1,0,0,4.24A3,3,0,0,0,115.31,162.73Z"/>
        <circle cx="103.5" cy="174.54" r="3"/>
        <circle cx="93.81" cy="184.22" r="3"/>
        <circle cx="84.11" cy="193.91" r="3"/>
        <circle cx="74.42" cy="203.59" r="3"/>
        <circle cx="64.73" cy="213.28" r="3"/>
        <circle cx="55.04" cy="222.96" r="3"/>
        <path d="M154.07,143.35a3,3,0,1,0,0,4.25A3,3,0,0,0,154.07,143.35Z"/>
        <path d="M144.38,153a3,3,0,1,0,0,4.24A3,3,0,0,0,144.38,153Z"/>
        <path d="M134.69,162.72a3,3,0,1,0,0,4.25A3,3,0,0,0,134.69,162.72Z"/>
        <path d="M125,172.41a3,3,0,1,0,0,4.24A3,3,0,0,0,125,172.41Z"/>
        <path d="M115.31,182.09a3,3,0,1,0,0,4.25A3,3,0,0,0,115.31,182.09Z"/>
        <path d="M105.62,191.78a3,3,0,1,0,0,4.24A3,3,0,0,0,105.62,191.78Z"/>
        <path d="M95.92,201.46a3,3,0,1,0,0,4.25A3,3,0,0,0,95.92,201.46Z"/>
        <path d="M86.23,211.15a3,3,0,1,0,0,4.24A3,3,0,0,0,86.23,211.15Z"/>
        <path d="M76.54,220.83a3,3,0,1,0,0,4.25A3,3,0,0,0,76.54,220.83Z"/>
        <path d="M66.85,230.52a3,3,0,1,0,0,4.25A3,3,0,0,0,66.85,230.52Z"/>
        <path d="M57.16,240.2a3,3,0,1,0,0,4.25A3,3,0,0,0,57.16,240.2Z"/>
        <circle cx="161.63" cy="155.15" r="3"/>
        <path d="M154.06,162.72a3,3,0,1,0,0,4.24A3,3,0,0,0,154.06,162.72Z"/>
        <path d="M144.37,172.4a3,3,0,1,0,0,4.25A3,3,0,0,0,144.37,172.4Z"/>
        <path d="M134.68,182.09a3,3,0,1,0,0,4.24A3,3,0,0,0,134.68,182.09Z"/>
        <circle cx="122.87" cy="193.9" r="3"/>
        <circle cx="113.18" cy="203.58" r="3"/>
        <circle cx="103.49" cy="213.27" r="3"/>
        <circle cx="93.8" cy="222.95" r="3"/>
        <circle cx="84.1" cy="232.64" r="3"/>
        <circle cx="74.41" cy="242.32" r="3"/>
        <circle cx="64.72" cy="252.01" r="3"/>
        <circle cx="55.03" cy="261.69" r="3"/>
        <circle cx="171.31" cy="164.83" r="3"/>
        <path d="M163.75,172.4a3,3,0,1,0,0,4.24A3,3,0,0,0,163.75,172.4Z"/>
        <path d="M154.06,182.08a3,3,0,1,0,0,4.25A3,3,0,0,0,154.06,182.08Z"/>
        <path d="M144.37,191.77a3,3,0,1,0,0,4.24A3,3,0,0,0,144.37,191.77Z"/>
        <circle cx="132.55" cy="203.58" r="3"/>
        <circle cx="122.86" cy="213.26" r="3"/>
        <circle cx="113.17" cy="222.95" r="3"/>
        <circle cx="103.48" cy="232.63" r="3"/>
        <circle cx="93.79" cy="242.32" r="3"/>
        <circle cx="84.1" cy="252" r="3"/>
        <circle cx="74.41" cy="261.69" r="3"/>
        <circle cx="64.72" cy="271.37" r="3"/>
        <circle cx="55.03" cy="281.06" r="3"/>
        <circle cx="181" cy="174.51" r="3"/>
        <path d="M173.43,182.08a3,3,0,1,0,0,4.24A3,3,0,0,0,173.43,182.08Z"/>
        <path d="M163.74,191.76a3,3,0,1,0,0,4.25A3,3,0,0,0,163.74,191.76Z"/>
        <path d="M154.05,201.45a3,3,0,1,0,0,4.24A3,3,0,0,0,154.05,201.45Z"/>
        <circle cx="142.24" cy="213.26" r="3"/>
        <circle cx="132.55" cy="222.94" r="3"/>
        <circle cx="122.86" cy="232.63" r="3"/>
        <circle cx="113.17" cy="242.31" r="3"/>
        <circle cx="103.48" cy="252" r="3"/>
        <circle cx="93.78" cy="261.68" r="3"/>
        <circle cx="84.09" cy="271.37" r="3"/>
        <circle cx="74.4" cy="281.05" r="3"/>
        <circle cx="64.71" cy="290.74" r="3"/>
        <circle cx="55.02" cy="300.42" r="3"/>
        <circle cx="190.68" cy="184.19" r="3"/>
        <path d="M183.12,191.76a3,3,0,1,0,0,4.24A3,3,0,0,0,183.12,191.76Z"/>
        <path d="M173.43,201.44a3,3,0,1,0,0,4.25A3,3,0,0,0,173.43,201.44Z"/>
        <path d="M163.74,211.13a3,3,0,1,0,0,4.24A3,3,0,0,0,163.74,211.13Z"/>
        <circle cx="151.92" cy="222.94" r="3"/>
        <circle cx="142.23" cy="232.62" r="3"/>
        <circle cx="132.54" cy="242.31" r="3"/>
        <circle cx="122.85" cy="251.99" r="3"/>
        <circle cx="113.16" cy="261.68" r="3"/>
        <circle cx="103.47" cy="271.36" r="3"/>
        <circle cx="93.78" cy="281.05" r="3"/>
        <circle cx="84.09" cy="290.73" r="3"/>
        <circle cx="74.4" cy="300.42" r="3"/>
        <circle cx="200.37" cy="193.87" r="3"/>
        <path d="M192.8,201.44a3,3,0,1,0,0,4.24A3,3,0,0,0,192.8,201.44Z"/>
        <path d="M183.11,211.12a3,3,0,1,0,0,4.25A3,3,0,0,0,183.11,211.12Z"/>
        <path d="M173.42,220.81a3,3,0,1,0,0,4.24A3,3,0,0,0,173.42,220.81Z"/>
        <circle cx="161.61" cy="232.62" r="3"/>
        <circle cx="151.92" cy="242.3" r="3"/>
        <circle cx="142.23" cy="251.99" r="3"/>
        <circle cx="132.54" cy="261.67" r="3"/>
        <circle cx="122.85" cy="271.36" r="3"/>
        <circle cx="113.16" cy="281.04" r="3"/>
        <circle cx="103.47" cy="290.73" r="3"/>
        <circle cx="93.77" cy="300.41" r="3"/>
        <circle cx="210.06" cy="203.56" r="3"/>
        <path d="M202.49,211.12a3,3,0,1,0,0,4.24A3,3,0,0,0,202.49,211.12Z"/>
        <path d="M192.8,220.8a3,3,0,1,0,0,4.25A3,3,0,0,0,192.8,220.8Z"/>
        <path d="M183.11,230.49a3,3,0,1,0,0,4.24A3,3,0,0,0,183.11,230.49Z"/>
        <circle cx="171.29" cy="242.3" r="3"/>
        <circle cx="161.6" cy="251.98" r="3"/>
        <circle cx="151.91" cy="261.67" r="3"/>
        <circle cx="142.22" cy="271.35" r="3"/>
        <circle cx="132.53" cy="281.04" r="3"/>
        <circle cx="122.84" cy="290.72" r="3"/>
        <circle cx="113.15" cy="300.41" r="3"/>
        <path d="M212.17,220.8a3,3,0,1,0,0,4.24A3,3,0,0,0,212.17,220.8Z"/>
        <path d="M202.48,230.48a3,3,0,1,0,0,4.25A3,3,0,0,0,202.48,230.48Z"/>
        <path d="M192.79,240.17a3,3,0,1,0,0,4.24A3,3,0,0,0,192.79,240.17Z"/>
        <path d="M183.1,249.85a3,3,0,1,0,0,4.25A3,3,0,0,0,183.1,249.85Z"/>
        <path d="M173.41,259.54a3,3,0,1,0,0,4.24A3,3,0,0,0,173.41,259.54Z"/>
        <path d="M163.72,269.22a3,3,0,1,0,0,4.25A3,3,0,0,0,163.72,269.22Z"/>
        <path d="M154,278.91a3,3,0,1,0,0,4.25A3,3,0,0,0,154,278.91Z"/>
        <path d="M144.34,288.6a3,3,0,1,0,0,4.24A3,3,0,0,0,144.34,288.6Z"/>
        <path d="M134.65,298.28a3,3,0,1,0,0,4.25A3,3,0,0,0,134.65,298.28Z"/>
        <path d="M212.17,240.16a3,3,0,1,0,0,4.25A3,3,0,0,0,212.17,240.16Z"/>
        <path d="M202.48,249.85a3,3,0,1,0,0,4.24A3,3,0,0,0,202.48,249.85Z"/>
        <path d="M192.79,259.53a3,3,0,1,0,0,4.25A3,3,0,0,0,192.79,259.53Z"/>
        <path d="M183.1,269.22a3,3,0,1,0,0,4.25A3,3,0,0,0,183.1,269.22Z"/>
        <path d="M173.41,278.9a3,3,0,1,0,0,4.25A3,3,0,0,0,173.41,278.9Z"/>
        <path d="M163.72,288.59a3,3,0,1,0,0,4.25A3,3,0,0,0,163.72,288.59Z"/>
        <path d="M154,298.28a3,3,0,1,0,0,4.24A3,3,0,0,0,154,298.28Z"/>
        <path d="M212.16,259.53a3,3,0,1,0,0,4.24A3,3,0,0,0,212.16,259.53Z"/>
        <circle cx="200.35" cy="271.34" r="3" transform="translate(-77.32 462.82) rotate(-88.15)"/>
        <circle cx="190.66" cy="281.02" r="3" transform="translate(-96.37 462.51) rotate(-88.15)"/>
        <circle cx="180.97" cy="290.71" r="3" transform="translate(-115.43 462.19) rotate(-88.15)"/>
        <circle cx="171.28" cy="300.39" r="3" transform="translate(-134.49 461.88) rotate(-88.15)"/>
        <circle cx="210.04" cy="281.02" r="3" transform="translate(-77.62 481.87) rotate(-88.15)"/>
        <circle cx="200.34" cy="290.7" r="3" transform="translate(-96.68 481.55) rotate(-88.15)"/>
        <circle cx="190.65" cy="300.39" r="3" transform="translate(-115.73 481.24) rotate(-88.15)"/>
        <path d="M212.15,298.26a3,3,0,1,0,0,4.25A3,3,0,0,0,212.15,298.26Z"/>
      </g>
    </g>
  </g>
</svg>
