<svg id="Calque_1" data-name="Calque 1" xmlns="http://www.w3.org/2000/svg" viewBox="0 0 155.11 54.01">
  <title>Avion</title>
  <g>
    <path d="M147.41,33.42s-4.16-6.88-22.8-6.88H36.83A18.14,18.14,0,0,1,26,20.84C21.45,15.73,9.87,1,9.87,1H1.36L9.51,28.31S1,29.49,1,30.86s40.54,16.9,59,16.9H83.21a3.49,3.49,0,0,0,.43,1.13A19.6,19.6,0,0,0,87.34,50c1.53.22,3.79.45,3.79.45s.1,1.45.41,1.67a38.11,38.11,0,0,0,8.72.89c4.1,0,7.89-.22,8.1-.89a32.23,32.23,0,0,0,0-4.36h16.26c15.2,0,29.5-7.66,29.5-9.43S147.41,33.42,147.41,33.42Z" style="fill: #fff"/>
    <path d="M100.26,54c-3.34,0-8.56-.54-9.31-1.08-.17-.12-.53-.39-.72-1.57-.81-.09-2.06-.23-3-.37a20.38,20.38,0,0,1-3.93-1.18L83,49.7l-.17-.26a4.6,4.6,0,0,1-.33-.68H60c-10.63,0-27.58-5-36.73-8-5.75-1.87-11.44-3.92-16-5.77C0,32.09,0,31.58,0,30.86s0-2.11,8.22-3.37L0,0H10.36l.3.38c.11.15,11.61,14.77,16.07,19.8a17.22,17.22,0,0,0,10.2,5.37h87.68c17.11,0,22.45,5.73,23.47,7.09,2.73,1.3,7,3.67,7,5.7,0,2.46-8.69,5.92-9.69,6.31a59.44,59.44,0,0,1-20.81,4.12H109.39c.1,3.08,0,3.45-.07,3.65C109.08,53.16,108.82,54,100.26,54Zm-8-2.72a45.49,45.49,0,0,0,8,.72,33.58,33.58,0,0,0,7.16-.46c0-.42,0-1.44-.07-3.75l0-1h17.3c14.08,0,27.06-6.66,28.46-8.52-.39-.74-3.14-2.54-6.08-3.92l-.28-.13-.15-.25c-.09-.14-4.38-6.4-22-6.4H36.83a19,19,0,0,1-11.6-6C21.14,16.9,11.24,4.35,9.38,2H2.71L10.8,29.14l-1.16.16a40.65,40.65,0,0,0-7,1.52C8.83,34.06,43.5,46.76,60,46.76H84l.17.79a2.4,2.4,0,0,0,.17.55,17.17,17.17,0,0,0,3.12.91c1.5.22,3.72.44,3.75.44l.84.09.05.84A9,9,0,0,0,92.25,51.29Z"/>
  </g>
  <g>
    <path d="M108.35,47.76v4.36a37.41,37.41,0,0,1-16.82,0l-.41-1.67s-.56-5.35.65-8.06c2.3-.51,8.07-1.11,16.58,0C108.36,43.29,108.35,47.76,108.35,47.76Z" style="fill: #fff"/>
    <path d="M100.15,54.06a40.53,40.53,0,0,1-8.83-1,1,1,0,0,1-.75-.73l-.41-1.67,0-.14c0-.23-.57-5.65.73-8.57a1,1,0,0,1,.7-.57c1.07-.23,6.89-1.32,16.93,0a1,1,0,0,1,.87,1c0,.89,0,5.26,0,5.37v4.36a1,1,0,0,1-.72,1A33.29,33.29,0,0,1,100.15,54.06Zm-7.79-2.79a37.61,37.61,0,0,0,15,.06V47.76h0s0-2.89,0-4.49a52.39,52.39,0,0,0-14.85,0,21.18,21.18,0,0,0-.39,7Z"/>
  </g>
  <g>
    <path d="M83.21,47.76l.43,1.13s2.24,1.39,7.49,1.56a32.15,32.15,0,0,1,.05-5.75s-5-.24-8,1.14Z" style="fill: #ffe3c2"/>
    <path d="M92.21,51.48l-1.11,0c-5.46-.18-7.89-1.65-8-1.71l-.28-.18-.62-1.62V45.2l.57-.27c3.13-1.47,8.23-1.24,8.45-1.23l1.14,0-.21,1.13a31.75,31.75,0,0,0,0,5.5Zm-7.77-3.3a16.53,16.53,0,0,0,5.63,1.21,35,35,0,0,1,0-3.71,19.45,19.45,0,0,0-5.85.83v1.06Z"/>
  </g>
  <g>
    <path d="M109.8,38.14a6.08,6.08,0,0,1,3.24,1.4c1.17,1,1.58,2.41-3.74,2.85-8.86.73-20.74-.63-20.74-.63L54.61,35.13S36.44,29.11,109.8,38.14Z" style="fill: #1c1caa"/>
    <path d="M103.33,43.61c-7.34,0-14.51-.81-14.89-.85L54.29,36.08c-2-.66-2.87-1.46-2.65-2.43.32-1.43.8-3.58,58.28,3.5a7,7,0,0,1,3.78,1.64c1.15,1,1.18,1.9,1,2.46-.4,1.22-2,1.86-5.31,2.13C107.45,43.54,105.38,43.61,103.33,43.61ZM55,34.19l33.73,6.59s11.82,1.33,20.47.61a8.51,8.51,0,0,0,3.5-.74,2.42,2.42,0,0,0-.34-.36,5.1,5.1,0,0,0-2.71-1.16h0C71.53,34.44,59,33.93,55,34.19Z"/>
  </g>
  <g>
    <path d="M147.41,33.42a46.09,46.09,0,0,1-12.08,0c-5.42-1,10.11-1.94,10.11-1.94Z" style="fill: #fff"/>
    <path d="M140.9,34.84a34,34,0,0,1-5.74-.44c-.71-.12-2-.35-2-1.46.05-.94.09-1.68,12.19-2.46a1,1,0,0,1,.76.29l2,1.93a1,1,0,0,1,.25,1,1,1,0,0,1-.81.68A53.48,53.48,0,0,1,140.9,34.84Zm4.16-2.33c-1.36.09-2.78.2-4.12.33,1.63,0,3.13-.1,4.26-.19Z"/>
  </g>
  <g>
    <path d="M7.6,28.59c-2.27.35-6.09,1.09-6.6,2.27,0,.34,2.1,2,10.14,4.63,2.09.68,8.67.44,10.85.19,6.71-.78,6-3,6-3s1.38-3.37-15.24-4.24C11.87,28.35,8.45,28.46,7.6,28.59Z" style="fill: #1c1caa"/>
    <path d="M16.27,36.93a21.31,21.31,0,0,1-5.44-.49C5.89,34.83,0,32.55,0,30.86v-.2l.08-.19c.37-.86,1.55-2,7.37-2.87h0a48,48,0,0,1,5.33-.2c9.18.47,14.52,1.79,15.87,3.92A2,2,0,0,1,29,32.65a2.22,2.22,0,0,1-.38,1.42c-.85,1.33-3,2.2-6.49,2.6C21.11,36.78,18.69,36.93,16.27,36.93ZM2.53,30.87a43.75,43.75,0,0,0,8.92,3.67c1.86.61,8.23.39,10.43.14,4.11-.47,5.05-1.52,5.11-1.83l-.09-.26.07-.17c-.19-.36-1.83-2.38-14.29-3-.84,0-4.17.07-4.93.19h0A20.54,20.54,0,0,0,2.53,30.87Z"/>
  </g>
  <g>
    <polygon points="1.36 1 9.87 1 18.82 12.28 4.73 12.28 1.36 1" style="fill: #1c1caa"/>
    <path d="M20.89,13.28H4L0,0H10.35Zm-15.42-2H16.75L9.39,2H2.71Z"/>
  </g>
  <g>
    <path d="M147.41,33.42s5.59,2.41,6.7,4.91c-.6.87-1.24,1.82-6.7,4.4a7,7,0,0,1-1.93-5.12A6,6,0,0,1,147.41,33.42Z" style="fill: #1c1caa"/>
    <path d="M147.41,43.73a1,1,0,0,1-.66-.26,8,8,0,0,1-2.27-5.88,7.05,7.05,0,0,1,2.29-4.94,1,1,0,0,1,1-.15c.61.26,6,2.65,7.21,5.42a1,1,0,0,1-.09,1c-.7,1-1.41,2.05-7.09,4.73A.94.94,0,0,1,147.41,43.73Zm.24-9.11a4.86,4.86,0,0,0-1.17,3,6.34,6.34,0,0,0,1.19,3.88c3.58-1.73,4.69-2.6,5.24-3.24C152,37,149.46,35.48,147.65,34.62Z"/>
  </g>
</svg>
