<svg xmlns="http://www.w3.org/2000/svg" viewBox="0 0 107.89 43.4">
    <g>
      <g>
        <path d="M95.43,35.39h8.84c2.48,0,2.5-7.85,1.47-10.29.33-2.14-1.16-4.7-1.16-4.7s-2.22-4-20.71-6.32C81.22,13.62,74.1,6.51,59.66,3,52,1.1,38.76,1,32.07,3c-10.65,3.26-11.13,7.28-18.33,9A53.46,53.46,0,0,0,7,14c-2,.78-3.83,1.68-4,3.83-.53,6.52-1.42,5.85-1.49,9,0,1.9,0,3.69.05,5.08a3.75,3.75,0,0,0,3.75,3.56H95.43" style="fill: #1c1cac"/>
        <path d="M104.27,36.89H5.32a5.25,5.25,0,0,1-5.25-5C0,30.5,0,28.66,0,26.72a10.57,10.57,0,0,1,.53-3.24,25,25,0,0,0,1-5.82c.27-3.29,3.32-4.47,5-5.11a44.56,44.56,0,0,1,5.77-1.65l1.14-.27a18.74,18.74,0,0,0,6.94-3.44A35.78,35.78,0,0,1,31.63,1.61C38.32-.43,51.85-.47,60,1.53a65.94,65.94,0,0,1,20.67,9.15,17.53,17.53,0,0,0,3.43,1.92c18.26,2.25,21.34,6.29,21.78,7.07a10.4,10.4,0,0,1,1.37,5.25c.87,2.58,1,8.2-.62,10.58A2.82,2.82,0,0,1,104.27,36.89ZM45.46,3a48.36,48.36,0,0,0-13,1.45A32.91,32.91,0,0,0,22,9.65a21.72,21.72,0,0,1-7.94,3.89l-1.17.28a40.47,40.47,0,0,0-5.37,1.53c-2.23.86-3,1.48-3.06,2.55a27.83,27.83,0,0,1-1.07,6.43A7.66,7.66,0,0,0,3,26.79c0,1.86,0,3.62,0,5a2.25,2.25,0,0,0,2.25,2.14h98.81c.86-1,1-6.31.23-8.2l-.17-.39.07-.42a7.05,7.05,0,0,0-1-3.73h0s-2.83-3.51-19.6-5.59c-1.2-.2-2.55-1.05-4.59-2.34A63.49,63.49,0,0,0,59.31,4.44,61.94,61.94,0,0,0,45.46,3Z"/>
      </g>
      <g>
        <path d="M30.09,33.1a8.81,8.81,0,1,1-8.81-8.8A8.8,8.8,0,0,1,30.09,33.1Z"/>
        <path d="M21.28,43.4A10.3,10.3,0,1,1,31.59,33.1,10.32,10.32,0,0,1,21.28,43.4Zm0-17.6a7.3,7.3,0,1,0,7.31,7.3A7.31,7.31,0,0,0,21.28,25.8Z"/>
      </g>
      <g>
        <path d="M95.43,33.1a8.8,8.8,0,1,1-8.8-8.8A8.8,8.8,0,0,1,95.43,33.1Z"/>
        <path d="M86.63,43.4a10.3,10.3,0,1,1,10.3-10.3A10.31,10.31,0,0,1,86.63,43.4Zm0-17.6a7.3,7.3,0,1,0,7.3,7.3A7.3,7.3,0,0,0,86.63,25.8Z"/>
      </g>
      <g>
        <path d="M101.31,18.16c-5.84-2.06-2.59,5.1-1.37,5.68a20.69,20.69,0,0,0,5.8,1.26S106.27,19.91,101.31,18.16Z" style="fill: #ffe5c4"/>
        <path d="M107.08,26.78l-1.52-.19a21.81,21.81,0,0,1-6.27-1.4c-1.57-.75-3.54-4.88-2.6-7.15.34-.81,1.51-2.57,5.11-1.3h0a8.2,8.2,0,0,1,5.43,8.52Zm-6.4-4.25a15.07,15.07,0,0,0,3.46.85,4.91,4.91,0,0,0-3.33-3.81h0a3.66,3.66,0,0,0-1.38-.28A6,6,0,0,0,100.68,22.53Z"/>
      </g>
      <g>
        <path d="M2.52,23.62c1.31.06,4.78.15,5.94-.61s1.11-3.87,1-5.1c0-.29-4.41-2.13-4.75-2.14,0,0-1.46-.62-1.74,2a39.12,39.12,0,0,1-.95,5.88Z" style="fill: #ffe5c4"/>
        <path d="M4.16,25.16l-1.61,0-.38,0a1.51,1.51,0,0,1-1.33-.62,1.47,1.47,0,0,1-.16-1.46,44.59,44.59,0,0,0,.84-5.46,3.76,3.76,0,0,1,1.59-3.07,2.56,2.56,0,0,1,2.23-.16l0,0c1.49.43,5.59,1.8,5.68,3.4C11.28,23,9.77,24,9.28,24.28,8.36,24.87,6.64,25.16,4.16,25.16Zm-.23-3a10.47,10.47,0,0,0,3.72-.41,7,7,0,0,0,.38-3c-.93-.46-2.75-1.22-3.41-1.45a3.46,3.46,0,0,0-.12.65C4.41,18.82,4.19,20.65,3.93,22.16Z"/>
      </g>
      <g>
        <path d="M70.77,6.86c.61.27,4.3,6.55,4.47,7a.74.74,0,0,1-.72,1l-24.19-.76a.31.31,0,0,1-.29-.26L48,1.58S57.74,1,70.77,6.86Z" style="fill: #fff"/>
        <path d="M74.55,16.38h-.08l-24.19-.76a1.79,1.79,0,0,1-1.72-1.56L46.5,1.83A1.49,1.49,0,0,1,47.88.09c.42,0,10.29-.57,23.51,5.4h0c1.39.63,5.23,7.8,5.26,7.87a2.24,2.24,0,0,1-2.1,3Zm-23-2.84v.07S51.51,13.56,51.51,13.54Zm-.15-.89,21.88.69a58.45,58.45,0,0,0-3.3-5.21A55.7,55.7,0,0,0,49.75,3.08Zm18.8-4.42h0Z"/>
      </g>
      <g>
        <path d="M50.33,14.12l-23-.73C27,13.38,31.84,3.28,32.07,3c0,0,5.28-2,15.91-1.46C48.19,2.85,50.33,14.12,50.33,14.12Z" style="fill: #fff"/>
        <path d="M50.33,15.62h0l-23-.73A1.53,1.53,0,0,1,25.93,14c-.31-.72-.36-.84,2.26-6.43C30.6,2.41,30.84,2.15,31,2a1.54,1.54,0,0,1,.57-.38c.23-.09,5.7-2.07,16.51-1.56a1.52,1.52,0,0,1,1.41,1.25c.2,1.24,2.32,12.4,2.34,12.51a1.5,1.5,0,0,1-1.47,1.78ZM29.47,12l19,.6C48,10,47.13,5.31,46.72,3,39,2.8,34.53,3.87,33.09,4.29,32.39,5.67,30.5,9.62,29.47,12ZM32.07,3h0Z"/>
      </g>
      <g>
        <circle cx="21.28" cy="33.1" r="6.02" style="fill: #fff"/>
        <path d="M21.28,40.61A7.52,7.52,0,1,1,28.8,33.1,7.52,7.52,0,0,1,21.28,40.61Zm0-12A4.52,4.52,0,1,0,25.8,33.1,4.51,4.51,0,0,0,21.28,28.58Z"/>
      </g>
      <g>
        <circle cx="86.63" cy="33.1" r="6.02" style="fill: #fff"/>
        <path d="M86.63,40.61a7.52,7.52,0,1,1,7.51-7.51A7.52,7.52,0,0,1,86.63,40.61Zm0-12a4.52,4.52,0,1,0,4.51,4.52A4.52,4.52,0,0,0,86.63,28.58Z"/>
      </g>
    </g>
    <g>
      <line x1="52.99" y1="19.94" x2="58.03" y2="20.09" style="fill: #fff"/>
      <rect x="54.01" y="17.49" width="3" height="5.05" transform="translate(33.89 74.92) rotate(-88.33)"/>
    </g>
    <g>
      <line x1="30.09" y1="19.28" x2="35.14" y2="19.42" style="fill: #fff"/>
      <rect x="31.11" y="16.83" width="3" height="5.05" transform="translate(12.32 51.39) rotate(-88.33)"/>
    </g>
</svg>
