<svg xmlns="http://www.w3.org/2000/svg" viewBox="0 0 156.26 55.01">
  <g>
    <g>
      <path d="M148.06,33.92S143.9,27,125.26,27H37.48a18.14,18.14,0,0,1-10.85-5.7C22.1,16.23,10.52,1.5,10.52,1.5H2l8.15,27.31S1.65,30,1.65,31.36s40.54,16.9,59,16.9H83.86a3.49,3.49,0,0,0,.43,1.13A19.66,19.66,0,0,0,88,50.5c1.54.22,3.8.45,3.8.45s.1,1.44.41,1.67a38.11,38.11,0,0,0,8.72.89c4.1,0,7.89-.23,8.1-.89a32.25,32.25,0,0,0,0-4.36h16.26c15.2,0,29.5-7.66,29.5-9.43S148.06,33.92,148.06,33.92Z" style="fill: #fff"/>
      <path d="M100.91,55c-2.74,0-8.61-.46-9.6-1.18a2.13,2.13,0,0,1-.85-1.51c-.79-.09-1.84-.21-2.69-.33a20.88,20.88,0,0,1-4-1.22l-.43-.17L83,50.21a2.61,2.61,0,0,1-.25-.45H60.65c-10.7,0-27.7-5-36.89-8C18,39.88,12.3,37.82,7.71,36c-7.56-3-7.56-3.6-7.56-4.61s0-2.47,8.07-3.78L0,0H11.25l.45.57c.11.15,11.61,14.76,16.05,19.78a16.8,16.8,0,0,0,9.82,5.19h87.69c16.85,0,22.51,5.58,23.79,7.18,4.78,2.29,7.21,4.34,7.21,6.11,0,3.7-16.73,10.93-31,10.93H110.55c.08,2.69,0,3-.11,3.3C110.08,54.23,109.22,55,100.91,55Zm-7.58-3.64a47.83,47.83,0,0,0,7.58.64,40.2,40.2,0,0,0,6.67-.36c0-.55,0-1.55-.08-3.33l-.06-1.56h17.82c13.2,0,25.4-5.89,27.78-8a24.54,24.54,0,0,0-5.61-3.45l-.41-.19-.23-.37c-.13-.19-4.4-6.17-21.53-6.17H37.35A19.52,19.52,0,0,1,25.5,22.34C21.45,17.77,12,5.8,9.79,3H4l8.06,27.05-1.73.24a49,49,0,0,0-5.69,1.12c8.24,3.79,39.88,15.35,56,15.35H85.08L85.33,48a1.63,1.63,0,0,0,.07.26,16.51,16.51,0,0,0,2.8.81c1.49.21,3.7.43,3.73.43l1.25.13.09,1.26Z"/>
    </g>
    <g>
      <path d="M109,48.26v4.36a37.41,37.41,0,0,1-16.82,0L91.78,51s-.56-5.36.65-8.07c2.3-.5,8.07-1.1,16.58,0C109,43.79,109,48.26,109,48.26Z" style="fill: #fff"/>
      <path d="M100.79,55.06a41.45,41.45,0,0,1-8.93-1A1.5,1.5,0,0,1,90.73,53l-.41-1.67a1.2,1.2,0,0,1,0-.2c-.07-.59-.56-5.83.77-8.82a1.48,1.48,0,0,1,1-.86c3.12-.68,9.25-1,17.09,0a1.49,1.49,0,0,1,1.31,1.48c0,.89,0,5.24,0,5.38v4.35a1.51,1.51,0,0,1-1.09,1.45A33.68,33.68,0,0,1,100.79,55.06Zm-7.37-3.72a37.55,37.55,0,0,0,14.09.08V48.26h0s0-2.4,0-4a52.53,52.53,0,0,0-14,0,21.69,21.69,0,0,0-.29,6.49Z"/>
    </g>
    <g>
      <path d="M83.86,48.26l.43,1.13s2.24,1.39,7.49,1.56a32.15,32.15,0,0,1,0-5.75s-5-.24-8,1.14Z" style="fill: #ffe5c4"/>
      <path d="M93.4,52.5l-1.67,0c-5.5-.18-8-1.63-8.23-1.79l-.43-.27-.71-1.86V45.39l.86-.41c3.23-1.52,8.46-1.29,8.68-1.28l1.71.08-.31,1.69a31.18,31.18,0,0,0,0,5.37Zm-7.92-4.2a16,16,0,0,0,4.71,1.05c0-.8,0-1.76,0-2.66a19.49,19.49,0,0,0-4.82.67V48Z"/>
    </g>
    <g>
      <path d="M110.45,38.64a6.08,6.08,0,0,1,3.24,1.4c1.17,1,1.58,2.4-3.74,2.84-8.86.74-20.74-.62-20.74-.62L55.26,35.63S37.09,29.61,110.45,38.64Z" style="fill: #1c1cac"/>
      <path d="M104,44.6A146.69,146.69,0,0,1,89,43.75l-.12,0L54.79,37.05c-.85-.28-3.41-1.13-3-3s.9-4,58.82,3.12h0a7.5,7.5,0,0,1,4.05,1.76c1.36,1.2,1.37,2.29,1.14,3-.48,1.45-2.2,2.19-5.74,2.48C108.13,44.54,106,44.6,104,44.6ZM89.43,40.78c.9.1,12.1,1.3,20.4.61a13.78,13.78,0,0,0,2.63-.41,4.6,4.6,0,0,0-2.2-.85h0C82.09,36.66,68,35.51,61,35.23Zm23.54.68Z"/>
    </g>
    <g>
      <path d="M148.06,33.92a46.09,46.09,0,0,1-12.08,0C130.56,33,146.09,32,146.09,32Z" style="fill: #fff"/>
      <path d="M141.54,35.84a33.84,33.84,0,0,1-5.81-.45c-.74-.13-2.48-.43-2.39-2,.07-1.37.11-2.13,12.66-2.93a1.5,1.5,0,0,1,1.14.43l2,1.94a1.49,1.49,0,0,1-.84,2.55A51.36,51.36,0,0,1,141.54,35.84Zm-5.9-3.54Z"/>
    </g>
    <g>
      <path d="M8.25,29.09c-2.27.35-6.09,1.09-6.6,2.27,0,.33,2.1,2,10.14,4.63,2.09.68,8.67.44,10.85.18,6.71-.77,6-3,6-3S30,29.75,13.38,28.89C12.52,28.85,9.1,29,8.25,29.09Z" style="fill: #1c1cac"/>
      <path d="M16.89,37.93a21.67,21.67,0,0,1-5.57-.51C.15,33.76.15,32.08.15,31.36v-.31l.12-.28C.74,29.68,2,28.54,8,27.61H8a47.55,47.55,0,0,1,5.44-.21c9.48.49,14.8,1.85,16.26,4.15a2.49,2.49,0,0,1,.41,1.61,2.74,2.74,0,0,1-.46,1.68c-1,1.48-3.19,2.4-6.86,2.82C21.94,37.76,19.43,37.93,16.89,37.93ZM4.35,31.46a55.2,55.2,0,0,0,7.9,3.1c1.67.55,7.79.4,10.22.12,3.41-.39,4.39-1.14,4.62-1.39L27,33.06,27,33c-.57-.5-3.19-2.07-13.74-2.62-.81,0-4.11.07-4.82.18h0A28.89,28.89,0,0,0,4.35,31.46Zm-1.41.64Z"/>
    </g>
    <g>
      <polygon points="2.01 1.5 10.52 1.5 19.47 12.78 5.38 12.78 2.01 1.5" style="fill: #1c1cac"/>
      <path d="M22.57,14.28H4.26L0,0H11.24Zm-16.08-3h9.87L9.79,3H4Z"/>
    </g>
    <g>
      <path d="M148.06,33.92s5.59,2.41,6.7,4.91c-.6.87-1.24,1.81-6.7,4.4a7,7,0,0,1-1.93-5.12A6,6,0,0,1,148.06,33.92Z" style="fill: #1c1cac"/>
      <path d="M148.06,44.73a1.51,1.51,0,0,1-1-.39,8.5,8.5,0,0,1-2.43-6.25,7.52,7.52,0,0,1,2.47-5.32,1.48,1.48,0,0,1,1.56-.23c1,.44,6.19,2.79,7.47,5.68a1.52,1.52,0,0,1-.13,1.46c-.88,1.27-1.91,2.36-7.3,4.9A1.43,1.43,0,0,1,148.06,44.73Zm.39-9a4.3,4.3,0,0,0-.82,2.37,6,6,0,0,0,.86,3.24,19.32,19.32,0,0,0,4.4-2.63A16.93,16.93,0,0,0,148.45,35.75Z"/>
    </g>
  </g>
</svg>
