<svg xmlns="http://www.w3.org/2000/svg" viewBox="0 0 687.82 286.03">
  <defs>
    <clipPath id="clip-path">
      <path d="M1.32,0l531-.07c4.18,0,8.36,0,12.55-.07,14.45-.2,102.62,3,137.43,108.7C718.19,217.5,567.74,269,542.12,276.86l-6.33,2c-16.91,5.25-111,29.3-194-54.74s-186-86-186-86S-16.7,125.24,1.32,0Z" style="fill: none"/>
    </clipPath>
  </defs>
  <g style="clip-path: url(#clip-path)">
    <g>
      <line x1="-143.84" y1="82.3" x2="353.67" y2="608.52" style="fill: none;stroke: #000;stroke-miterlimit: 10;stroke-width: 3px"/>
      <line x1="-128.84" y1="68.13" x2="368.67" y2="594.34" style="fill: none;stroke: #000;stroke-miterlimit: 10;stroke-width: 3px"/>
      <line x1="-113.85" y1="53.95" x2="383.66" y2="580.17" style="fill: none;stroke: #000;stroke-miterlimit: 10;stroke-width: 3px"/>
      <line x1="-98.85" y1="39.77" x2="398.66" y2="565.99" style="fill: none;stroke: #000;stroke-miterlimit: 10;stroke-width: 3px"/>
      <line x1="-83.86" y1="25.6" x2="413.65" y2="551.81" style="fill: none;stroke: #000;stroke-miterlimit: 10;stroke-width: 3px"/>
      <line x1="-68.86" y1="11.42" x2="428.65" y2="537.64" style="fill: none;stroke: #000;stroke-miterlimit: 10;stroke-width: 3px"/>
      <line x1="-53.87" y1="-2.76" x2="443.64" y2="523.46" style="fill: none;stroke: #000;stroke-miterlimit: 10;stroke-width: 3px"/>
      <line x1="-38.87" y1="-16.93" x2="458.63" y2="509.28" style="fill: none;stroke: #000;stroke-miterlimit: 10;stroke-width: 3px"/>
      <line x1="-23.88" y1="-31.11" x2="473.63" y2="495.11" style="fill: none;stroke: #000;stroke-miterlimit: 10;stroke-width: 3px"/>
      <line x1="-8.88" y1="-45.29" x2="488.62" y2="480.93" style="fill: none;stroke: #000;stroke-miterlimit: 10;stroke-width: 3px"/>
      <line x1="6.11" y1="-59.46" x2="503.62" y2="466.75" style="fill: none;stroke: #000;stroke-miterlimit: 10;stroke-width: 3px"/>
      <line x1="21.11" y1="-73.64" x2="518.61" y2="452.58" style="fill: none;stroke: #000;stroke-miterlimit: 10;stroke-width: 3px"/>
      <line x1="36.1" y1="-87.82" x2="533.61" y2="438.4" style="fill: none;stroke: #000;stroke-miterlimit: 10;stroke-width: 3px"/>
      <line x1="51.1" y1="-101.99" x2="548.6" y2="424.22" style="fill: none;stroke: #000;stroke-miterlimit: 10;stroke-width: 3px"/>
      <line x1="66.09" y1="-116.17" x2="563.6" y2="410.05" style="fill: none;stroke: #000;stroke-miterlimit: 10;stroke-width: 3px"/>
      <line x1="81.09" y1="-130.35" x2="578.59" y2="395.87" style="fill: none;stroke: #000;stroke-miterlimit: 10;stroke-width: 3px"/>
      <line x1="96.08" y1="-144.52" x2="593.59" y2="381.69" style="fill: none;stroke: #000;stroke-miterlimit: 10;stroke-width: 3px"/>
      <line x1="111.08" y1="-158.7" x2="608.58" y2="367.52" style="fill: none;stroke: #000;stroke-miterlimit: 10;stroke-width: 3px"/>
      <line x1="126.07" y1="-172.88" x2="623.58" y2="353.34" style="fill: none;stroke: #000;stroke-miterlimit: 10;stroke-width: 3px"/>
      <line x1="141.07" y1="-187.05" x2="638.57" y2="339.16" style="fill: none;stroke: #000;stroke-miterlimit: 10;stroke-width: 3px"/>
      <line x1="156.06" y1="-201.23" x2="653.57" y2="324.99" style="fill: none;stroke: #000;stroke-miterlimit: 10;stroke-width: 3px"/>
      <line x1="171.06" y1="-215.41" x2="668.56" y2="310.81" style="fill: none;stroke: #000;stroke-miterlimit: 10;stroke-width: 3px"/>
      <line x1="186.05" y1="-229.58" x2="683.56" y2="296.63" style="fill: none;stroke: #000;stroke-miterlimit: 10;stroke-width: 3px"/>
      <line x1="201.05" y1="-243.76" x2="698.55" y2="282.46" style="fill: none;stroke: #000;stroke-miterlimit: 10;stroke-width: 3px"/>
      <line x1="216.04" y1="-257.94" x2="713.55" y2="268.28" style="fill: none;stroke: #000;stroke-miterlimit: 10;stroke-width: 3px"/>
      <line x1="231.04" y1="-272.11" x2="728.54" y2="254.1" style="fill: none;stroke: #000;stroke-miterlimit: 10;stroke-width: 3px"/>
      <line x1="246.03" y1="-286.29" x2="743.54" y2="239.93" style="fill: none;stroke: #000;stroke-miterlimit: 10;stroke-width: 3px"/>
      <line x1="261.02" y1="-300.47" x2="758.53" y2="225.75" style="fill: none;stroke: #000;stroke-miterlimit: 10;stroke-width: 3px"/>
      <line x1="276.02" y1="-314.64" x2="773.53" y2="211.57" style="fill: none;stroke: #000;stroke-miterlimit: 10;stroke-width: 3px"/>
      <line x1="291.01" y1="-328.82" x2="788.52" y2="197.4" style="fill: none;stroke: #000;stroke-miterlimit: 10;stroke-width: 3px"/>
      <line x1="306.01" y1="-343" x2="803.52" y2="183.22" style="fill: none;stroke: #000;stroke-miterlimit: 10;stroke-width: 3px"/>
      <line x1="321" y1="-357.17" x2="818.51" y2="169.04" style="fill: none;stroke: #000;stroke-miterlimit: 10;stroke-width: 3px"/>
      <line x1="336" y1="-371.35" x2="833.51" y2="154.87" style="fill: none;stroke: #000;stroke-miterlimit: 10;stroke-width: 3px"/>
      <line x1="350.99" y1="-385.53" x2="848.5" y2="140.69" style="fill: none;stroke: #000;stroke-miterlimit: 10;stroke-width: 3px"/>
      <line x1="365.99" y1="-399.7" x2="863.5" y2="126.51" style="fill: none;stroke: #000;stroke-miterlimit: 10;stroke-width: 3px"/>
    </g>
  </g>
</svg>
