<svg xmlns="http://www.w3.org/2000/svg" viewBox="0 0 317.18 299.95">
    <g>
        <path d="M16.35,245.18a5.41,5.41,0,0,0-4.19,0,5.36,5.36,0,0,0-2.56,3.31L.4,275.87a5.31,5.31,0,0,0,0,4.17,5.5,5.5,0,0,0,3.36,2.58l50.34,16.93a5.35,5.35,0,0,0,4.17,0,5.55,5.55,0,0,0,2.56-3.37l9.2-27.36a4.72,4.72,0,0,0-3.3-6.64Z"
              style="fill: #fff"/>
        <path d="M16.35,245.18a5.41,5.41,0,0,0-4.19,0,5.36,5.36,0,0,0-2.56,3.31L.4,275.87a5.31,5.31,0,0,0,0,4.17,5.5,5.5,0,0,0,3.36,2.58l50.34,16.93a5.35,5.35,0,0,0,4.17,0,5.55,5.55,0,0,0,2.56-3.37l9.2-27.36a4.72,4.72,0,0,0-3.3-6.64Zm-.48,1.44,50.43,17a4.05,4.05,0,0,1,2.23,1.48c-11.05,3.9-21.91,8.52-33,12.29a4,4,0,0,1-3.6-1.21c-6.31-9.85-12.58-19.8-18.85-29.7A4.14,4.14,0,0,1,15.87,246.62ZM69,266.51a5.42,5.42,0,0,1-.33,1.79l-9.2,27.35a4.8,4.8,0,0,1-1.22,2.07L44.89,275.48ZM11.9,247.33,25.64,269,1.56,278.66a4.54,4.54,0,0,1,.28-2.31L11,249a5.31,5.31,0,0,1,.86-1.67Zm14.57,23c1.46,2.27,2.9,4.61,4.38,6.85a5.67,5.67,0,0,0,4.95,1.67c2.53-.9,5.09-1.88,7.63-2.82l13.42,22.34a4.6,4.6,0,0,1-2.22-.27L4.29,281.18a5,5,0,0,1-2-1.15Z"/>
    </g>
    <g>
        <path d="M55.3,223.57a6.57,6.57,0,0,0-4.94,1.18,6.57,6.57,0,0,0-2.12,4.63l-3.3,34.86a6.51,6.51,0,0,0,1.21,4.92,6.72,6.72,0,0,0,4.69,2.12L115,277.35a6.45,6.45,0,0,0,4.91-1.21,6.7,6.7,0,0,0,2.1-4.69l3.3-34.86a5.74,5.74,0,0,0-5.74-6.94Z"
              style="fill: #fff"/>
        <path d="M55.3,223.57a6.57,6.57,0,0,0-4.94,1.18,6.57,6.57,0,0,0-2.12,4.63l-3.3,34.86a6.51,6.51,0,0,0,1.21,4.92,6.72,6.72,0,0,0,4.69,2.12L115,277.35a6.45,6.45,0,0,0,4.91-1.21,6.7,6.7,0,0,0,2.1-4.69l3.3-34.86a5.74,5.74,0,0,0-5.74-6.94Zm-.18,1.84,64.28,6.08a5,5,0,0,1,3,1.12c-12,7.67-23.53,16.14-35.56,23.65a4.82,4.82,0,0,1-4.58-.43C72.11,245.94,62,235.92,51.8,226A5.05,5.05,0,0,1,55.12,225.41Zm68.24,8.8a6.39,6.39,0,0,1,.11,2.2l-3.3,34.86a5.81,5.81,0,0,1-.87,2.78L97.4,251.48Zm-72.73-6.86,22.23,21.8L47.09,267.22a5.54,5.54,0,0,1-.31-2.81l3.29-34.85a6.53,6.53,0,0,1,.56-2.21ZM74.21,250.5c2.36,2.28,4.7,4.64,7.07,6.88a6.89,6.89,0,0,0,6.31.6c2.75-1.77,5.5-3.62,8.24-5.44l22,22.68a5.63,5.63,0,0,1-2.69.29L51,269.44a6.08,6.08,0,0,1-2.7-.8Z"/>
    </g>
    <g>
        <path d="M113.81,168.72a7.05,7.05,0,0,0-10.64,3.19l-20.11,37.5a7.85,7.85,0,0,0-1,6.08,8.17,8.17,0,0,0,4.26,4.59l69,37a7.84,7.84,0,0,0,6.08,1,8.17,8.17,0,0,0,4.55-4.26l20.11-37.51A7,7,0,0,0,183,205.8Z"
              style="fill: #fff"/>
        <path d="M113.81,168.72a7.05,7.05,0,0,0-10.64,3.19l-20.11,37.5a7.85,7.85,0,0,0-1,6.08,8.17,8.17,0,0,0,4.26,4.59l69,37a7.84,7.84,0,0,0,6.08,1,8.17,8.17,0,0,0,4.55-4.26l20.11-37.51A7,7,0,0,0,183,205.8Zm-1,2,69.14,37.08a6,6,0,0,1,2.88,2.69c-17,2.95-34,7-51,9.76a5.91,5.91,0,0,1-4.94-2.65c-6.75-15.88-13.41-31.88-20.1-47.83A6.24,6.24,0,0,1,112.76,170.7Zm72.3,42a7.85,7.85,0,0,1-.92,2.53L164,252.72a7,7,0,0,1-2.28,2.7l-13.9-35.61ZM106.8,170.76l14.65,34.9-37.39,8.1a7,7,0,0,1,1-3.29L105.14,173a8,8,0,0,1,1.66-2.21Zm15.53,37c1.56,3.66,3.08,7.41,4.67,11a8.37,8.37,0,0,0,6.79,3.64c3.91-.69,7.87-1.47,11.79-2.21l14,35.78a6.73,6.73,0,0,1-3.15-.94l-69-37a7.42,7.42,0,0,1-2.64-2.17Z"/>
    </g>
    <g>
        <path d="M140.75,115.09c-3.08-.46-5.73-.06-7.75,1.43s-3.2,3.93-3.65,7l-7.92,53.73c-.45,3.05,0,5.7,1.48,7.71s4,3.2,7.09,3.66l98.88,14.59c3,.44,5.71,0,7.71-1.48s3.16-4,3.62-7.1l7.93-53.73c.44-3,0-5.63-1.45-7.62s-3.87-3.14-6.88-3.58Z"
              style="fill: #fff"/>
        <path d="M140.75,115.09c-3.08-.46-5.73-.06-7.75,1.43s-3.2,3.93-3.65,7l-7.92,53.73c-.45,3.05,0,5.7,1.48,7.71s4,3.2,7.09,3.66l98.88,14.59c3,.44,5.71,0,7.71-1.48s3.16-4,3.62-7.1l7.93-53.73c.44-3,0-5.63-1.45-7.62s-3.87-3.14-6.88-3.58Zm-.41,2.82,99.06,14.62a7.63,7.63,0,0,1,4.62,2c-19.17,10.91-37.74,23.09-57,33.76a7.53,7.53,0,0,1-7.07-1.05c-15-16.14-29.9-32.48-44.82-48.73A7.91,7.91,0,0,1,140.34,117.91Zm105,19.15a10.08,10.08,0,0,1,0,3.43l-7.93,53.72a9,9,0,0,1-1.57,4.24l-32.09-36.74Zm-112.1-16.49,32.67,35.56L124.51,182a8.75,8.75,0,0,1-.26-4.37l7.93-53.73a9.79,9.79,0,0,1,1-3.36Zm34.65,37.75c3.47,3.72,6.91,7.57,10.4,11.24A10.64,10.64,0,0,0,188,171c4.4-2.51,8.81-5.17,13.2-7.76l32.3,36.91a8.84,8.84,0,0,1-4.19.24l-98.89-14.59a9.38,9.38,0,0,1-4.11-1.46Z"/>
    </g>
    <g>
        <g>
            <path d="M170,53.18a5.91,5.91,0,0,0-.27,2.27l5.68,74.85a6,6,0,0,0,6.46,5.55l128.3-9.74a6,6,0,0,0,5.54-6.45L310,44.81a5.84,5.84,0,0,0-.51-2"
                  style="fill: #fff"/>
            <path d="M181.36,137.36a7.52,7.52,0,0,1-7.49-6.94l-5.68-74.86a7.51,7.51,0,0,1,.33-2.83l2.86.9a4.44,4.44,0,0,0-.2,1.7l5.68,74.86a4.53,4.53,0,0,0,4.84,4.16L310,124.62a4.5,4.5,0,0,0,4.16-4.84l-5.67-74.86a4.48,4.48,0,0,0-.38-1.5l2.73-1.23a7.38,7.38,0,0,1,.64,2.5l5.68,74.86a7.53,7.53,0,0,1-6.93,8.06l-128.3,9.73A5.43,5.43,0,0,1,181.36,137.36Z"/>
        </g>
        <rect x="169.1" y="109.36" width="67.88" height="3" transform="translate(-20.94 168.7) rotate(-43.11)"/>
        <rect x="283.98" y="70.34" width="3" height="68.49" transform="translate(38.95 282.52) rotate(-55.94)"/>
        <g>
            <path d="M309.25,42.76,242.31,3a10.39,10.39,0,0,0-12,.91L170.1,53.31v.26L243.4,97.09,309.27,43Z"
                  style="fill: #fff"/>
            <path d="M243.4,98.59a1.51,1.51,0,0,1-.77-.21L169.35,54.86a1.51,1.51,0,0,1-.73-1.18l0-.25a1.52,1.52,0,0,1,.54-1.28L229.32,2.76a11.9,11.9,0,0,1,13.76-1L310,41.47a1.49,1.49,0,0,1,.73,1.17l0,.26a1.51,1.51,0,0,1-.55,1.27L244.35,98.25A1.48,1.48,0,0,1,243.4,98.59ZM172.53,53.26l70.73,42,63.58-52.2L241.55,4.29a9,9,0,0,0-10.33.78Z"/>
        </g>
        <g>
            <path d="M297.5,52.46l-3.13-41.27a3.57,3.57,0,0,0-3.83-3.29L236.94,12,183.33,16A3.57,3.57,0,0,0,180,19.86l3.13,41.27,60.23,36Z"
                  style="fill: #fff"/>
            <path d="M243.54,98.92,181.74,62,178.55,20a5.08,5.08,0,0,1,4.67-5.44L290.43,6.4a5.07,5.07,0,0,1,5.44,4.67l3.19,42.05ZM184.61,60.24l58.65,35L296,51.79,292.88,11.3a2.06,2.06,0,0,0-2.22-1.91L183.45,17.53a2.07,2.07,0,0,0-1.91,2.22Z"/>
        </g>
        <g>
            <rect x="190.46" y="27.56" width="18.61" height="18.61" transform="translate(-2.22 15.22) rotate(-4.34)"
                  style="fill: #ffe8c7"/>
            <path d="M189.81,48.46l-1.63-21.55,21.54-1.63,1.64,21.54Zm1.59-18.78,1.18,15.56,15.56-1.18L207,28.5Z"/>
        </g>
        <g>
            <line x1="192.24" y1="60.65" x2="287.35" y2="53.44" style="fill: #fff"/>
            <rect x="192.11" y="55.54" width="95.38" height="3" transform="matrix(1, -0.08, 0.08, 1, -3.62, 18.27)"/>
        </g>
        <g>
            <line x1="208.95" y1="68.55" x2="272.03" y2="63.76" style="fill: #fff"/>
            <rect x="208.86" y="64.65" width="63.26" height="3" transform="matrix(1, -0.08, 0.08, 1, -4.31, 18.35)"/>
        </g>
        <g>
            <line x1="220.13" y1="76.54" x2="262.18" y2="73.35" style="fill: #fff"/>
            <rect x="220.07" y="73.44" width="42.17" height="3" transform="matrix(1, -0.08, 0.08, 1, -4.97, 18.43)"/>
        </g>
        <g>
            <line x1="286.79" y1="20.94" x2="264.71" y2="22.61" style="fill: #fff"/>
            <rect x="264.68" y="20.27" width="22.14" height="3" transform="matrix(1, -0.08, 0.08, 1, -0.86, 20.89)"/>
        </g>
        <g>
            <line x1="287.46" y1="29.77" x2="265.38" y2="31.44" style="fill: #fff"/>
            <rect x="265.35" y="29.11" width="22.14" height="3" transform="matrix(1, -0.08, 0.08, 1, -1.52, 20.96)"/>
        </g>
        <g>
            <line x1="288.13" y1="38.6" x2="266.05" y2="40.28" style="fill: #fff"/>
            <rect x="266.02" y="37.94" width="22.14" height="3" transform="matrix(1, -0.08, 0.08, 1, -2.19, 21.04)"/>
        </g>
    </g>
</svg>
