<svg xmlns="http://www.w3.org/2000/svg" viewBox="0 0 344.08 236.51">
  <polyline points="2.49 1.71 16.82 8.91 30.89 1.71 44.63 8.91 57.72 1.71 71.63 8.91 85.05 1.71 98.46 8.91 112.21 1.71 125.63 8.91 138.88 1.71 152.3 8.91 165.88 1.71 179.46 8.91 193.2 1.71 206.62 8.91 220.53 1.71 233.62 8.91" style="fill: none;stroke: #000;stroke-miterlimit: 10;stroke-width: 3px"/>
  <polyline points="29.49 29.97 43.82 37.17 57.89 29.97 71.63 37.17 84.72 29.97 98.63 37.17 112.05 29.97 125.46 37.17 139.21 29.97 152.63 37.17 165.88 29.97 179.3 37.17 192.88 29.97 206.46 37.17 220.2 29.97 233.62 37.17 247.53 29.97 260.62 37.17" style="fill: none;stroke: #000;stroke-miterlimit: 10;stroke-width: 3px"/>
  <polyline points="55.49 58.23 69.82 65.42 83.89 58.23 97.63 65.42 110.72 58.23 124.63 65.42 138.05 58.23 151.46 65.42 165.21 58.23 178.63 65.42 191.88 58.23 205.3 65.42 218.88 58.23 232.46 65.42 246.2 58.23 259.62 65.42 273.52 58.23 286.62 65.42" style="fill: none;stroke: #000;stroke-miterlimit: 10;stroke-width: 3px"/>
  <polyline points="83.49 86.48 97.82 93.68 111.89 86.48 125.63 93.68 138.72 86.48 152.63 93.68 166.05 86.48 179.46 93.68 193.21 86.48 206.63 93.68 219.88 86.48 233.3 93.68 246.88 86.48 260.46 93.68 274.2 86.48 287.62 93.68 301.52 86.48 314.62 93.68" style="fill: none;stroke: #000;stroke-miterlimit: 10;stroke-width: 3px"/>
  <polyline points="111.49 114.74 125.82 121.94 139.89 114.74 153.63 121.94 166.72 114.74 180.63 121.94 194.05 114.74 207.46 121.94 221.21 114.74 234.63 121.94 247.88 114.74 261.3 121.94 274.88 114.74 288.46 121.94 302.2 114.74 315.62 121.94 329.52 114.74 342.62 121.94" style="fill: none;stroke: #000;stroke-miterlimit: 10;stroke-width: 3px"/>
  <polyline points="111.49 142 125.82 149.2 139.89 142 153.63 149.2 166.72 142 180.63 149.2 194.05 142 207.46 149.2 221.21 142 234.63 149.2 247.88 142 261.3 149.2 274.88 142 288.46 149.2 302.2 142 315.62 149.2 329.52 142 342.62 149.2" style="fill: none;stroke: #000;stroke-miterlimit: 10;stroke-width: 3px"/>
  <polyline points="111.49 170.26 125.82 177.46 139.89 170.26 153.63 177.46 166.72 170.26 180.63 177.46 194.05 170.26 207.46 177.46 221.21 170.26 234.63 177.46 247.88 170.26 261.3 177.46 274.88 170.26 288.46 177.46 302.2 170.26 315.62 177.46 329.52 170.26 342.62 177.46" style="fill: none;stroke: #000;stroke-miterlimit: 10;stroke-width: 3px"/>
  <polyline points="82.49 198.51 96.82 205.71 110.89 198.51 124.63 205.71 137.72 198.51 151.63 205.71 165.05 198.51 178.46 205.71 192.21 198.51 205.63 205.71 218.88 198.51 232.3 205.71 245.88 198.51 259.46 205.71 273.2 198.51 286.62 205.71 300.52 198.51 313.62 205.71" style="fill: none;stroke: #000;stroke-miterlimit: 10;stroke-width: 3px"/>
  <polyline points="82.49 226.77 96.82 233.97 110.89 226.77 124.63 233.97 137.72 226.77 151.63 233.97 165.05 226.77 178.46 233.97 192.21 226.77 205.63 233.97 218.88 226.77 232.3 233.97 245.88 226.77 259.46 233.97 273.2 226.77 286.62 233.97 300.52 226.77 313.62 233.97" style="fill: none;stroke: #000;stroke-miterlimit: 10;stroke-width: 3px"/>
</svg>
