<svg xmlns="http://www.w3.org/2000/svg" viewBox="0 0 1192 332.75">
  <path d="M1192.11,332H.11s106.7-46.81,98.16-146.73c-3.2-37.48,1.58-84.49,18.5-108.63C144.06,37.72,182,9.62,229.2,4.08,294.8-3.61,374.54-7.34,461.12,92.85c61.24,70.87,133,77.14,167.52,75.3a136.21,136.21,0,0,0,25.85-4c15.93-4,65.62-12.09,104.68,30.16,5.22,5.65,24.14,27.92,27.89,32.59,28.35,35.27,71,29.31,71,29.31s18.67-2.66,38.32-16.92c18.05-13.09,28.22-43.81,39.86-62.5,40.17-64.45,63.5-62.61,131.81-67.69,68.67-5.1,124-109.84,124-109.84Z" style="fill: #1c1caf"/>
</svg>
