<svg xmlns="http://www.w3.org/2000/svg" viewBox="0 0 508.01 722.2">
  <defs>
    <clipPath id="clip-path">
      <path d="M508,21.46C461.18,30.62,392.28,41.4,357.78,33.81,302.59,21.68,269.23,7.73,269.23,7.73S164.91-34.11,59.37,76.88c-94.54,99.43-38.67,196.42-26,215.55q1.86,2.82,3.7,5.64c6,9.13,34.62,45.54,137,97.23a391.63,391.63,0,0,1,99.74,72.37c36.3,36.19,62.3,81.32,76.5,130.58,13,45.1,43.75,113.5,111.67,122.17a275.17,275.17,0,0,0,45.88,1.36" style="fill: none"/>
    </clipPath>
  </defs>
  <g style="clip-path: url(#clip-path)">
      <path d="M190.94-4.92a6.71,6.71,0,0,0-9.47,0,6.71,6.71,0,0,0,0,9.47,6.71,6.71,0,0,0,9.47,0A6.71,6.71,0,0,0,190.94-4.92Z"/>
      <path d="M169.34,16.68a6.7,6.7,0,1,0,0,9.47A6.7,6.7,0,0,0,169.34,16.68Z"/>
      <circle cx="229.39" cy="-0.2" r="6.7"/>
      <circle cx="207.79" cy="21.4" r="6.7"/>
      <circle cx="186.19" cy="43" r="6.7"/>
      <circle cx="272.57" cy="-0.21" r="6.7"/>
      <circle cx="250.98" cy="21.39" r="6.7"/>
      <circle cx="229.38" cy="42.99" r="6.7"/>
      <circle cx="207.78" cy="64.59" r="6.7"/>
      <circle cx="294.16" cy="21.38" r="6.7"/>
      <circle cx="272.56" cy="42.98" r="6.7"/>
      <circle cx="250.96" cy="64.58" r="6.7"/>
      <circle cx="229.37" cy="86.17" r="6.7"/>
      <circle cx="337.35" cy="21.37" r="6.7"/>
      <circle cx="315.75" cy="42.97" r="6.7"/>
      <circle cx="294.15" cy="64.56" r="6.7"/>
      <circle cx="272.55" cy="86.16" r="6.7"/>
      <circle cx="250.95" cy="107.76" r="6.7"/>
      <circle cx="358.93" cy="42.95" r="6.7"/>
      <circle cx="337.33" cy="64.55" r="6.7"/>
      <circle cx="315.74" cy="86.15" r="6.7"/>
      <circle cx="294.14" cy="107.75" r="6.7"/>
      <circle cx="272.54" cy="129.35" r="6.7"/>
      <circle cx="423.72" cy="21.35" r="6.7"/>
      <circle cx="402.12" cy="42.94" r="6.7"/>
      <circle cx="380.52" cy="64.54" r="6.7"/>
      <circle cx="358.92" cy="86.14" r="6.7"/>
      <circle cx="337.32" cy="107.74" r="6.7"/>
      <circle cx="315.72" cy="129.34" r="6.7"/>
      <circle cx="294.13" cy="150.93" r="6.7"/>
      <circle cx="466.9" cy="21.33" r="6.7"/>
      <circle cx="445.3" cy="42.93" r="6.7"/>
      <circle cx="423.7" cy="64.53" r="6.7"/>
      <circle cx="402.11" cy="86.13" r="6.7"/>
      <circle cx="380.51" cy="107.73" r="6.7"/>
      <circle cx="358.91" cy="129.32" r="6.7"/>
      <circle cx="337.31" cy="150.92" r="6.7"/>
      <circle cx="315.71" cy="172.52" r="6.7"/>
      <path d="M514.82,16.59a6.7,6.7,0,1,0,0,9.47A6.69,6.69,0,0,0,514.82,16.59Z"/>
      <path d="M493.22,38.19a6.69,6.69,0,1,0,0,9.46A6.69,6.69,0,0,0,493.22,38.19Z"/>
      <path d="M471.62,59.78a6.7,6.7,0,1,0,0,9.47A6.71,6.71,0,0,0,471.62,59.78Z"/>
      <path d="M450,81.38a6.69,6.69,0,1,0,0,9.47A6.69,6.69,0,0,0,450,81.38Z"/>
      <path d="M428.43,103a6.7,6.7,0,1,0,0,9.47A6.71,6.71,0,0,0,428.43,103Z"/>
      <path d="M406.83,124.58a6.7,6.7,0,1,0,0,9.47A6.69,6.69,0,0,0,406.83,124.58Z"/>
      <path d="M385.23,146.18a6.7,6.7,0,1,0,0,9.47A6.69,6.69,0,0,0,385.23,146.18Z"/>
      <path d="M363.63,167.77a6.7,6.7,0,1,0,0,9.47A6.71,6.71,0,0,0,363.63,167.77Z"/>
      <path d="M342,189.37a6.69,6.69,0,1,0,0,9.47A6.69,6.69,0,0,0,342,189.37Z"/>
      <path d="M514.81,59.77a6.7,6.7,0,1,0,0,9.47A6.71,6.71,0,0,0,514.81,59.77Z"/>
      <path d="M493.21,81.37a6.7,6.7,0,1,0,0,9.47A6.71,6.71,0,0,0,493.21,81.37Z"/>
      <path d="M471.61,103a6.7,6.7,0,1,0,0,9.47A6.69,6.69,0,0,0,471.61,103Z"/>
      <path d="M450,124.57a6.7,6.7,0,1,0,0,9.47A6.69,6.69,0,0,0,450,124.57Z"/>
      <path d="M428.42,146.17a6.69,6.69,0,1,0,0,9.46A6.69,6.69,0,0,0,428.42,146.17Z"/>
      <path d="M406.82,167.76a6.7,6.7,0,1,0,0,9.47A6.71,6.71,0,0,0,406.82,167.76Z"/>
      <path d="M385.22,189.36a6.7,6.7,0,1,0,0,9.47A6.71,6.71,0,0,0,385.22,189.36Z"/>
      <path d="M363.62,211a6.7,6.7,0,1,0,0,9.47A6.69,6.69,0,0,0,363.62,211Z"/>
      <circle cx="510.06" cy="107.69" r="6.7"/>
      <circle cx="488.46" cy="129.29" r="6.7"/>
      <circle cx="466.87" cy="150.89" r="6.7"/>
      <circle cx="445.27" cy="172.49" r="6.7"/>
      <circle cx="423.67" cy="194.08" r="6.7"/>
      <circle cx="402.07" cy="215.68" r="6.7"/>
      <circle cx="380.47" cy="237.28" r="6.7"/>
      <circle cx="510.05" cy="150.88" r="6.7"/>
      <circle cx="488.45" cy="172.47" r="6.7"/>
      <circle cx="466.85" cy="194.07" r="6.7"/>
      <circle cx="445.26" cy="215.67" r="6.7"/>
      <circle cx="423.66" cy="237.27" r="6.7"/>
      <circle cx="402.06" cy="258.87" r="6.7"/>
      <path d="M126.16,16.69a6.7,6.7,0,1,0,0,9.47A6.71,6.71,0,0,0,126.16,16.69Z"/>
      <path d="M104.56,38.29a6.7,6.7,0,1,0,0,9.47A6.69,6.69,0,0,0,104.56,38.29Z"/>
      <path d="M83,59.89a6.7,6.7,0,1,0,0,9.47A6.69,6.69,0,0,0,83,59.89Z"/>
      <path d="M61.36,81.49a6.69,6.69,0,1,0,0,9.46A6.69,6.69,0,0,0,61.36,81.49Z"/>
      <path d="M39.76,103.08a6.69,6.69,0,1,0,0,9.47A6.69,6.69,0,0,0,39.76,103.08Z"/>
      <path d="M18.17,124.68a6.7,6.7,0,1,0,0,9.47A6.71,6.71,0,0,0,18.17,124.68Z"/>
      <path d="M147.74,38.28a6.7,6.7,0,1,0,0,9.47A6.69,6.69,0,0,0,147.74,38.28Z"/>
      <path d="M126.14,59.88a6.69,6.69,0,1,0,0,9.46A6.68,6.68,0,0,0,126.14,59.88Z"/>
      <path d="M104.55,81.47a6.7,6.7,0,1,0,0,9.47A6.71,6.71,0,0,0,104.55,81.47Z"/>
      <path d="M83,103.07a6.7,6.7,0,1,0,0,9.47A6.71,6.71,0,0,0,83,103.07Z"/>
      <path d="M61.35,124.67a6.7,6.7,0,1,0,0,9.47A6.71,6.71,0,0,0,61.35,124.67Z"/>
      <path d="M39.75,146.27a6.7,6.7,0,1,0,0,9.47A6.69,6.69,0,0,0,39.75,146.27Z"/>
      <path d="M18.15,167.87a6.69,6.69,0,1,0,0,9.46A6.68,6.68,0,0,0,18.15,167.87Z"/>
      <circle cx="164.6" cy="64.6" r="6.7"/>
      <path d="M147.73,81.46a6.7,6.7,0,1,0,0,9.47A6.71,6.71,0,0,0,147.73,81.46Z"/>
      <path d="M126.13,103.06a6.7,6.7,0,1,0,0,9.47A6.71,6.71,0,0,0,126.13,103.06Z"/>
      <path d="M104.54,124.66a6.7,6.7,0,1,0,0,9.47A6.69,6.69,0,0,0,104.54,124.66Z"/>
      <circle cx="78.2" cy="150.99" r="6.7"/>
      <circle cx="56.6" cy="172.59" r="6.7"/>
      <circle cx="35.01" cy="194.19" r="6.7"/>
      <circle cx="13.41" cy="215.79" r="6.7"/>
      <circle cx="186.18" cy="86.19" r="6.7"/>
      <path d="M169.32,103.05a6.7,6.7,0,1,0,0,9.47A6.69,6.69,0,0,0,169.32,103.05Z"/>
      <path d="M147.72,124.65a6.7,6.7,0,1,0,0,9.47A6.69,6.69,0,0,0,147.72,124.65Z"/>
      <path d="M126.12,146.25a6.69,6.69,0,1,0,0,9.46A6.69,6.69,0,0,0,126.12,146.25Z"/>
      <circle cx="99.79" cy="172.58" r="6.7"/>
      <circle cx="78.19" cy="194.18" r="6.7"/>
      <circle cx="56.59" cy="215.77" r="6.7"/>
      <circle cx="35" cy="237.37" r="6.7"/>
      <circle cx="13.4" cy="258.97" r="6.7"/>
      <circle cx="207.77" cy="107.77" r="6.7"/>
      <path d="M190.9,124.64a6.69,6.69,0,1,0,0,9.46A6.68,6.68,0,0,0,190.9,124.64Z"/>
      <path d="M169.31,146.23a6.7,6.7,0,1,0,0,9.47A6.71,6.71,0,0,0,169.31,146.23Z"/>
      <path d="M147.71,167.83a6.7,6.7,0,1,0,0,9.47A6.71,6.71,0,0,0,147.71,167.83Z"/>
      <circle cx="121.38" cy="194.16" r="6.7"/>
      <circle cx="99.78" cy="215.76" r="6.7"/>
      <circle cx="78.18" cy="237.36" r="6.7"/>
      <circle cx="56.58" cy="258.96" r="6.7"/>
      <circle cx="34.98" cy="280.56" r="6.7"/>
      <circle cx="229.36" cy="129.36" r="6.7"/>
      <path d="M212.49,146.22a6.7,6.7,0,1,0,0,9.47A6.71,6.71,0,0,0,212.49,146.22Z"/>
      <path d="M190.89,167.82a6.7,6.7,0,1,0,0,9.47A6.71,6.71,0,0,0,190.89,167.82Z"/>
      <path d="M169.3,189.42a6.7,6.7,0,1,0,0,9.47A6.69,6.69,0,0,0,169.3,189.42Z"/>
      <circle cx="142.96" cy="215.75" r="6.7"/>
      <circle cx="121.36" cy="237.35" r="6.7"/>
      <circle cx="99.77" cy="258.95" r="6.7"/>
      <circle cx="78.17" cy="280.55" r="6.7"/>
      <circle cx="56.57" cy="302.14" r="6.7"/>
      <circle cx="250.94" cy="150.95" r="6.7"/>
      <path d="M234.08,167.81a6.7,6.7,0,1,0,0,9.47A6.69,6.69,0,0,0,234.08,167.81Z"/>
      <path d="M212.48,189.41a6.7,6.7,0,1,0,0,9.47A6.69,6.69,0,0,0,212.48,189.41Z"/>
      <path d="M190.88,211a6.69,6.69,0,1,0,0,9.46A6.69,6.69,0,0,0,190.88,211Z"/>
      <circle cx="164.55" cy="237.34" r="6.7"/>
      <circle cx="142.95" cy="258.94" r="6.7"/>
      <circle cx="121.35" cy="280.53" r="6.7"/>
      <circle cx="99.76" cy="302.13" r="6.7"/>
      <circle cx="78.16" cy="323.73" r="6.7"/>
      <circle cx="272.53" cy="172.53" r="6.7"/>
      <path d="M255.66,189.4a6.69,6.69,0,1,0,0,9.46A6.68,6.68,0,0,0,255.66,189.4Z"/>
      <path d="M234.07,211a6.7,6.7,0,1,0,0,9.47A6.71,6.71,0,0,0,234.07,211Z"/>
      <path d="M212.47,232.59a6.7,6.7,0,1,0,0,9.47A6.71,6.71,0,0,0,212.47,232.59Z"/>
      <circle cx="186.14" cy="258.92" r="6.7"/>
      <circle cx="164.54" cy="280.52" r="6.7"/>
      <circle cx="142.94" cy="302.12" r="6.7"/>
      <circle cx="121.34" cy="323.72" r="6.7"/>
      <circle cx="99.74" cy="345.32" r="6.7"/>
      <circle cx="294.12" cy="194.12" r="6.7"/>
      <path d="M277.25,211a6.7,6.7,0,1,0,0,9.47A6.71,6.71,0,0,0,277.25,211Z"/>
      <path d="M255.65,232.58a6.7,6.7,0,1,0,0,9.47A6.71,6.71,0,0,0,255.65,232.58Z"/>
      <path d="M234.06,254.18a6.7,6.7,0,1,0,0,9.47A6.69,6.69,0,0,0,234.06,254.18Z"/>
      <circle cx="207.72" cy="280.51" r="6.7"/>
      <circle cx="186.12" cy="302.11" r="6.7"/>
      <circle cx="164.53" cy="323.71" r="6.7"/>
      <circle cx="142.93" cy="345.31" r="6.7"/>
      <circle cx="121.33" cy="366.9" r="6.7"/>
      <path d="M320.44,211a6.7,6.7,0,1,0,0,9.47A6.71,6.71,0,0,0,320.44,211Z"/>
      <path d="M298.84,232.57a6.7,6.7,0,1,0,0,9.47A6.69,6.69,0,0,0,298.84,232.57Z"/>
      <path d="M277.24,254.17a6.7,6.7,0,1,0,0,9.47A6.69,6.69,0,0,0,277.24,254.17Z"/>
      <path d="M255.64,275.77a6.69,6.69,0,1,0,0,9.46A6.69,6.69,0,0,0,255.64,275.77Z"/>
      <path d="M234,297.36a6.69,6.69,0,1,0,0,9.47A6.69,6.69,0,0,0,234,297.36Z"/>
      <path d="M212.45,319a6.7,6.7,0,1,0,0,9.47A6.71,6.71,0,0,0,212.45,319Z"/>
      <path d="M190.85,340.56a6.7,6.7,0,1,0,0,9.47A6.69,6.69,0,0,0,190.85,340.56Z"/>
      <path d="M169.25,362.16a6.7,6.7,0,1,0,0,9.47A6.69,6.69,0,0,0,169.25,362.16Z"/>
      <path d="M147.65,383.76a6.69,6.69,0,1,0,0,9.46A6.69,6.69,0,0,0,147.65,383.76Z"/>
      <path d="M342,232.56a6.7,6.7,0,1,0,0,9.47A6.69,6.69,0,0,0,342,232.56Z"/>
      <path d="M320.42,254.16a6.69,6.69,0,1,0,0,9.46A6.68,6.68,0,0,0,320.42,254.16Z"/>
      <path d="M298.83,275.75a6.7,6.7,0,1,0,0,9.47A6.71,6.71,0,0,0,298.83,275.75Z"/>
      <path d="M277.23,297.35a6.7,6.7,0,1,0,0,9.47A6.71,6.71,0,0,0,277.23,297.35Z"/>
      <path d="M255.63,319a6.7,6.7,0,1,0,0,9.47A6.71,6.71,0,0,0,255.63,319Z"/>
      <path d="M234,340.55a6.7,6.7,0,1,0,0,9.47A6.69,6.69,0,0,0,234,340.55Z"/>
      <path d="M212.43,362.15a6.69,6.69,0,1,0,0,9.46A6.68,6.68,0,0,0,212.43,362.15Z"/>
      <path d="M190.84,383.74a6.7,6.7,0,1,0,0,9.47A6.71,6.71,0,0,0,190.84,383.74Z"/>
      <circle cx="358.88" cy="258.88" r="6.7"/>
      <path d="M342,275.74a6.7,6.7,0,1,0,0,9.47A6.71,6.71,0,0,0,342,275.74Z"/>
      <path d="M320.41,297.34a6.7,6.7,0,1,0,0,9.47A6.71,6.71,0,0,0,320.41,297.34Z"/>
      <path d="M298.82,318.94a6.7,6.7,0,1,0,0,9.47A6.69,6.69,0,0,0,298.82,318.94Z"/>
      <circle cx="272.48" cy="345.27" r="6.7"/>
      <circle cx="250.88" cy="366.87" r="6.7"/>
      <circle cx="229.29" cy="388.47" r="6.7"/>
      <circle cx="207.69" cy="410.07" r="6.7"/>
      <circle cx="380.46" cy="280.47" r="6.7"/>
      <path d="M363.6,297.33a6.7,6.7,0,1,0,0,9.47A6.69,6.69,0,0,0,363.6,297.33Z"/>
      <path d="M342,318.93a6.7,6.7,0,1,0,0,9.47A6.69,6.69,0,0,0,342,318.93Z"/>
      <path d="M320.4,340.53a6.69,6.69,0,1,0,0,9.46A6.69,6.69,0,0,0,320.4,340.53Z"/>
      <circle cx="294.07" cy="366.86" r="6.7"/>
      <circle cx="272.47" cy="388.46" r="6.7"/>
      <circle cx="250.87" cy="410.05" r="6.7"/>
      <circle cx="229.28" cy="431.65" r="6.7"/>
      <circle cx="510.04" cy="194.06" r="6.7"/>
      <circle cx="488.44" cy="215.66" r="6.7"/>
      <circle cx="466.84" cy="237.26" r="6.7"/>
      <circle cx="445.24" cy="258.86" r="6.7"/>
      <circle cx="423.65" cy="280.45" r="6.7"/>
      <circle cx="510.03" cy="237.25" r="6.7"/>
      <circle cx="488.43" cy="258.84" r="6.7"/>
      <circle cx="466.83" cy="280.44" r="6.7"/>
      <circle cx="445.23" cy="302.04" r="6.7"/>
      <circle cx="510.02" cy="280.43" r="6.7"/>
      <circle cx="488.42" cy="302.03" r="6.7"/>
      <circle cx="466.82" cy="323.63" r="6.7"/>
      <circle cx="510" cy="323.62" r="6.7"/>
      <circle cx="488.41" cy="345.21" r="6.7"/>
      <circle cx="509.99" cy="366.8" r="6.7"/>
      <circle cx="402.05" cy="302.05" r="6.7"/>
      <path d="M385.18,318.92a6.69,6.69,0,1,0,0,9.46A6.68,6.68,0,0,0,385.18,318.92Z"/>
      <path d="M363.59,340.51a6.7,6.7,0,1,0,0,9.47A6.71,6.71,0,0,0,363.59,340.51Z"/>
      <path d="M342,362.11a6.7,6.7,0,1,0,0,9.47A6.71,6.71,0,0,0,342,362.11Z"/>
      <circle cx="315.66" cy="388.44" r="6.7"/>
      <circle cx="294.06" cy="410.04" r="6.7"/>
      <circle cx="272.46" cy="431.64" r="6.7"/>
      <circle cx="250.86" cy="453.24" r="6.7"/>
      <circle cx="423.64" cy="323.64" r="6.7"/>
      <path d="M406.77,340.5a6.7,6.7,0,1,0,0,9.47A6.71,6.71,0,0,0,406.77,340.5Z"/>
      <path d="M385.17,362.1a6.7,6.7,0,1,0,0,9.47A6.71,6.71,0,0,0,385.17,362.1Z"/>
      <path d="M363.58,383.7a6.7,6.7,0,1,0,0,9.47A6.69,6.69,0,0,0,363.58,383.7Z"/>
      <circle cx="337.24" cy="410.03" r="6.7"/>
      <circle cx="315.64" cy="431.63" r="6.7"/>
      <circle cx="294.05" cy="453.23" r="6.7"/>
      <circle cx="272.45" cy="474.83" r="6.7"/>
      <circle cx="445.22" cy="345.23" r="6.7"/>
      <path d="M428.36,362.09a6.7,6.7,0,1,0,0,9.47A6.69,6.69,0,0,0,428.36,362.09Z"/>
      <path d="M406.76,383.69a6.7,6.7,0,1,0,0,9.47A6.69,6.69,0,0,0,406.76,383.69Z"/>
      <path d="M385.16,405.29a6.69,6.69,0,1,0,0,9.46A6.69,6.69,0,0,0,385.16,405.29Z"/>
      <circle cx="358.83" cy="431.62" r="6.7"/>
      <circle cx="337.23" cy="453.22" r="6.7"/>
      <circle cx="315.63" cy="474.81" r="6.7"/>
      <circle cx="294.04" cy="496.41" r="6.7"/>
      <circle cx="466.81" cy="366.81" r="6.7"/>
      <path d="M449.94,383.68a6.69,6.69,0,1,0,0,9.46A6.68,6.68,0,0,0,449.94,383.68Z"/>
      <path d="M428.35,405.27a6.7,6.7,0,1,0,0,9.47A6.71,6.71,0,0,0,428.35,405.27Z"/>
      <path d="M406.75,426.87a6.7,6.7,0,1,0,0,9.47A6.71,6.71,0,0,0,406.75,426.87Z"/>
      <circle cx="380.42" cy="453.2" r="6.7"/>
      <circle cx="358.82" cy="474.8" r="6.7"/>
      <circle cx="337.22" cy="496.4" r="6.7"/>
      <circle cx="315.62" cy="518" r="6.7"/>
      <circle cx="488.4" cy="388.4" r="6.7"/>
      <path d="M471.53,405.26a6.7,6.7,0,1,0,0,9.47A6.71,6.71,0,0,0,471.53,405.26Z"/>
      <path d="M449.93,426.86a6.7,6.7,0,1,0,0,9.47A6.71,6.71,0,0,0,449.93,426.86Z"/>
      <path d="M428.34,448.46a6.7,6.7,0,1,0,0,9.47A6.69,6.69,0,0,0,428.34,448.46Z"/>
      <circle cx="402" cy="474.79" r="6.7"/>
      <circle cx="380.4" cy="496.39" r="6.7"/>
      <circle cx="358.81" cy="517.99" r="6.7"/>
      <circle cx="337.21" cy="539.59" r="6.7"/>
      <path d="M514.72,405.25a6.7,6.7,0,1,0,0,9.47A6.71,6.71,0,0,0,514.72,405.25Z"/>
      <path d="M493.12,426.85a6.7,6.7,0,1,0,0,9.47A6.69,6.69,0,0,0,493.12,426.85Z"/>
      <path d="M471.52,448.45a6.7,6.7,0,1,0,0,9.47A6.69,6.69,0,0,0,471.52,448.45Z"/>
      <path d="M449.92,470.05a6.69,6.69,0,1,0,0,9.46A6.7,6.7,0,0,0,449.92,470.05Z"/>
      <path d="M428.32,491.64a6.69,6.69,0,1,0,0,9.47A6.71,6.71,0,0,0,428.32,491.64Z"/>
      <path d="M406.73,513.24a6.7,6.7,0,1,0,0,9.47A6.71,6.71,0,0,0,406.73,513.24Z"/>
      <path d="M385.13,534.84a6.7,6.7,0,1,0,0,9.47A6.69,6.69,0,0,0,385.13,534.84Z"/>
      <path d="M363.53,556.44a6.7,6.7,0,1,0,0,9.47A6.69,6.69,0,0,0,363.53,556.44Z"/>
      <path d="M341.93,578a6.69,6.69,0,1,0,0,9.46A6.69,6.69,0,0,0,341.93,578Z"/>
      <path d="M514.7,448.44a6.69,6.69,0,1,0,0,9.46A6.68,6.68,0,0,0,514.7,448.44Z"/>
      <path d="M493.11,470a6.7,6.7,0,1,0,0,9.47A6.71,6.71,0,0,0,493.11,470Z"/>
      <path d="M471.51,491.63a6.7,6.7,0,1,0,0,9.47A6.71,6.71,0,0,0,471.51,491.63Z"/>
      <circle cx="445.18" cy="517.96" r="6.7"/>
      <circle cx="423.58" cy="539.56" r="6.7"/>
      <circle cx="401.98" cy="561.16" r="6.7"/>
      <circle cx="380.38" cy="582.76" r="6.7"/>
      <circle cx="358.78" cy="604.36" r="6.7"/>
      <path d="M514.69,491.62a6.7,6.7,0,1,0,0,9.47A6.71,6.71,0,0,0,514.69,491.62Z"/>
      <path d="M493.09,513.22a6.69,6.69,0,1,0,0,9.47A6.68,6.68,0,0,0,493.09,513.22Z"/>
      <circle cx="466.76" cy="539.55" r="6.7"/>
      <circle cx="445.16" cy="561.15" r="6.7"/>
      <circle cx="423.57" cy="582.75" r="6.7"/>
      <circle cx="401.97" cy="604.34" r="6.7"/>
      <circle cx="380.37" cy="625.94" r="6.7"/>
      <circle cx="358.77" cy="647.54" r="6.7"/>
      <path d="M514.68,534.8a6.7,6.7,0,1,0,0,9.47A6.71,6.71,0,0,0,514.68,534.8Z"/>
      <circle cx="488.35" cy="561.14" r="6.7"/>
      <circle cx="466.75" cy="582.74" r="6.7"/>
      <circle cx="445.15" cy="604.33" r="6.7"/>
      <circle cx="423.55" cy="625.93" r="6.7"/>
      <circle cx="401.96" cy="647.53" r="6.7"/>
      <circle cx="380.36" cy="669.13" r="6.7"/>
      <circle cx="509.94" cy="582.72" r="6.7"/>
      <circle cx="488.34" cy="604.32" r="6.7"/>
      <circle cx="466.74" cy="625.92" r="6.7"/>
      <circle cx="445.14" cy="647.52" r="6.7"/>
      <circle cx="423.54" cy="669.12" r="6.7"/>
      <circle cx="401.95" cy="690.71" r="6.7"/>
      <circle cx="509.92" cy="625.91" r="6.7"/>
      <circle cx="488.33" cy="647.51" r="6.7"/>
      <circle cx="466.73" cy="669.1" r="6.7"/>
      <circle cx="445.13" cy="690.7" r="6.7"/>
      <circle cx="423.53" cy="712.3" r="6.7"/>
      <circle cx="509.91" cy="669.09" r="6.7"/>
      <circle cx="488.31" cy="690.69" r="6.7"/>
      <circle cx="466.72" cy="712.29" r="6.7"/>
      <path d="M514.64,707.54a6.7,6.7,0,1,0,0,9.47A6.71,6.71,0,0,0,514.64,707.54Z"/>
  </g>
</svg>
