<svg xmlns="http://www.w3.org/2000/svg" viewBox="0 0 961.63 561.97">
  <path d="M324.13,38.49c-11,10.58-57.56,24.08-72.69,29.09-25.69,8.51-69.65,29-93.1,74.07-24.4,46.87-53.73,62.75-68.77,68-12.56,4.41-24.64,9.9-35.2,17.41C24.68,248.19-17,291.76,13.18,357.8c44.29,97.06,123.94,99.26,123.94,99.26s107.33,6.62,191,72.79c40,31.66,99.75,33,151.17,25.84,50.12-7,96.88-26.39,136.88-54.36,32.21-22.53,84.62-50,147.44-48.68a205.54,205.54,0,0,0,69.23-10.1c49.91-16.48,88-53.38,105.92-98.26,19.56-48.88,29.67-107-12-149.83-45.72-32.87-87.47-48.83-125.61-57.87-75-17.77-101.84-70.87-150.08-90-37.26-14.77-97.68-2.28-134.47-18.77C442.68-5.33,373.57-9.07,324.13,38.49Z" style="fill: #fff;stroke: #000;stroke-miterlimit: 10;stroke-width: 3px"/>
</svg>
