<svg xmlns="http://www.w3.org/2000/svg" viewBox="0 0 259.53 140.6">
  <g>
    <polygon points="1.83 105.48 121.95 130.17 232.62 113.07 104.59 95.45 1.83 105.48" style="fill: #fff;stroke: #000;stroke-linejoin: round;stroke-width: 3px"/>
    <polygon points="121.95 130.17 121.72 138.99 1.83 113.55 1.83 105.48 121.95 130.17" style="fill: #fff;stroke: #000;stroke-linejoin: round;stroke-width: 3px"/>
    <polygon points="121.72 138.99 232.62 121.23 232.62 113.07 121.95 130.17 121.72 138.99" style="fill: #fff;stroke: #000;stroke-linejoin: round;stroke-width: 3px"/>
    <polygon points="104.59 95.45 128.03 1.78 257.81 1.78 232.62 113.07 104.59 95.45" style="fill: #fff;stroke: #000;stroke-linejoin: round;stroke-width: 3px"/>
    <polygon points="115.05 90.26 135.29 9.38 247.35 9.38 225.6 105.48 115.05 90.26" style="fill: #99ffd3;stroke: #000;stroke-linejoin: round;stroke-width: 3px"/>
    <polygon points="108.44 99.64 197.04 111.98 146.87 119.45 63.53 104.67 108.44 99.64" style="fill: none;stroke: #000;stroke-linejoin: round;stroke-width: 2px"/>
    <polygon points="80.79 110.29 107.61 114.89 81.29 118.49 54.98 113.15 80.79 110.29" style="fill: none;stroke: #000;stroke-linejoin: round"/>
    <line x1="136.39" y1="117.94" x2="183.63" y2="110.39" style="fill: none;stroke: #000;stroke-linejoin: round"/>
    <line x1="126.88" y1="116.43" x2="172.61" y2="108.99" style="fill: none;stroke: #000;stroke-linejoin: round"/>
    <line x1="118.95" y1="115.03" x2="162" y2="107.51" style="fill: none;stroke: #000;stroke-linejoin: round"/>
    <line x1="157.84" y1="117.81" x2="76.15" y2="103.25" style="fill: none;stroke: #000;stroke-linejoin: round"/>
    <line x1="94.9" y1="110.29" x2="135.45" y2="103.4" style="fill: none;stroke: #000;stroke-linejoin: round"/>
    <line x1="123.27" y1="111.65" x2="153.04" y2="105.87" style="fill: none;stroke: #000;stroke-linejoin: round"/>
    <line x1="115.05" y1="110.08" x2="144.18" y2="104.61" style="fill: none;stroke: #000;stroke-linejoin: round"/>
    <line x1="86.89" y1="108.28" x2="127.84" y2="102.06" style="fill: none;stroke: #000;stroke-linejoin: round"/>
    <line x1="117.91" y1="101" x2="76.74" y2="107.01" style="fill: #fff;stroke: #000;stroke-linejoin: round"/>
    <line x1="87.79" y1="102.06" x2="168.16" y2="116.28" style="fill: #fff;stroke: #000;stroke-linejoin: round"/>
    <line x1="98.83" y1="101" x2="180.84" y2="114.39" style="fill: #fff;stroke: #000;stroke-linejoin: round"/>
    <line x1="227.76" y1="117.81" x2="221.37" y2="118.89" style="fill: #fff;stroke: #000;stroke-linejoin: round;stroke-width: 2px"/>
    <line x1="218.12" y1="119.45" x2="212.25" y2="120.41" style="fill: #fff;stroke: #000;stroke-linejoin: round;stroke-width: 2px"/>
  </g>
  <line x1="144.18" y1="22.43" x2="225.69" y2="24.02" style="fill: none;stroke: #000;stroke-linejoin: round;stroke-width: 3px"/>
  <line x1="142.56" y1="31.31" x2="221.37" y2="34.58" style="fill: none;stroke: #000;stroke-linejoin: round;stroke-width: 3px"/>
  <line x1="140.47" y1="39.63" x2="218.83" y2="44.17" style="fill: none;stroke: #000;stroke-linejoin: round;stroke-width: 3px"/>
  <line x1="139.84" y1="48.55" x2="181.2" y2="51.26" style="fill: none;stroke: #000;stroke-linejoin: round;stroke-width: 3px"/>
</svg>
