<svg xmlns="http://www.w3.org/2000/svg" viewBox="0 0 72.7 77.1">
    <path d="M62.45,51.1v6H10.26v-6H0v26H10.26v-4h0v-2H62.45v6H72.7v-26Zm8.2,20H64.5v-6H8.2v6H2.05v-18H8.2v6H64.5v-6h6.15Z"/>
    <path d="M0,8.89v4L19.76,28.79l.34.27.35-.27L36.35,16l15.91,12.8.34.27.35-.27L72.7,12.9v-4L69,0,52.6,13.26,36.72.48,36.35.19,36,.48,20.1,13.26,3.67,0,0,8.89M20.1,22.5,19.45,22,2.42,8.28l2.08-5L20.1,15.83,35.71,3.27l.64-.54.65.54L52.6,15.83,68.21,3.27l2.07,5L53.26,22l-.66.53L52,22,36.35,9.43,20.76,22Z"/>
    <path d="M72.64,33.64,69,24.93,52.6,38.15,36.72,25.38l-.37-.3-.36.29L20.1,38.15,3.67,24.94.06,33.64l-.06,0v4l19.76,15.9.34.27.35-.28,15.9-12.79,15.91,12.8.34.27.35-.28L72.7,37.59v-4ZM4.5,28.17,20.1,40.72,35.71,28.17l.64-.56.65.56L52.6,40.72,68.21,28.17l2.07,5-17,13.69-.66.53L52,46.86,36.35,34.32,20.76,46.86l-.66.53-.65-.53-17-13.69Z"/>
    <polygon points="2.42 33.17 4.5 28.17 20.1 40.72 36.35 27.61 52.6 40.72 68.21 28.17 70.28 33.17 52.6 47.39 36.35 34.32 20.1 47.39 2.42 33.17" style="fill: #fff"/>
    <polygon points="2.42 8.28 4.5 3.27 20.1 15.82 36.35 2.73 52.6 15.82 68.21 3.27 70.28 8.28 52.6 22.5 36.35 9.43 20.1 22.5 2.42 8.28" style="fill: #fff"/>
    <polygon points="8.2 71.1 2.05 71.1 2.05 53.1 8.2 53.1 8.2 59.1 64.5 59.1 64.5 53.1 70.65 53.1 70.65 71.1 64.5 71.1 64.5 65.1 8.2 65.1 8.2 71.1" style="fill: #fff"/>
</svg>
