<svg xmlns="http://www.w3.org/2000/svg" viewBox="0 0 122.65 122.65">
  <g>
    <rect x="1.5" y="1.5" width="119.65" height="119.65" rx="25" style="fill: #1c1caf"/>
    <path d="M96.15,122.65H26.5A26.53,26.53,0,0,1,0,96.15V26.5A26.53,26.53,0,0,1,26.5,0H96.15a26.53,26.53,0,0,1,26.5,26.5V96.15A26.53,26.53,0,0,1,96.15,122.65ZM26.5,3A23.52,23.52,0,0,0,3,26.5V96.15a23.53,23.53,0,0,0,23.5,23.5H96.15a23.53,23.53,0,0,0,23.5-23.5V26.5A23.52,23.52,0,0,0,96.15,3Z"/>
  </g>
  <g>
    <rect x="22.44" y="37.26" width="77.76" height="48.14" rx="5.02" style="fill: #fff"/>
    <path d="M95.18,86.89H27.47A6.52,6.52,0,0,1,21,80.37V42.28a6.52,6.52,0,0,1,6.52-6.52H95.18a6.52,6.52,0,0,1,6.52,6.52V80.37A6.52,6.52,0,0,1,95.18,86.89ZM27.47,38.76A3.53,3.53,0,0,0,24,42.28V80.37a3.53,3.53,0,0,0,3.52,3.52H95.18a3.53,3.53,0,0,0,3.52-3.52V42.28a3.53,3.53,0,0,0-3.52-3.52Z"/>
  </g>
  <path d="M100.75,40.58l-1.9-2.32L64.88,66a5.19,5.19,0,0,1-6.51,0L23.91,38.25,22,40.59,48.91,62.23,23,83.08l1.87,2.34L51.3,64.16l5.19,4.17a8.19,8.19,0,0,0,10.28,0l4.79-3.91,26.54,21L100,83.08l-26-20.63Z"/>
</svg>
