<svg xmlns="http://www.w3.org/2000/svg" viewBox="0 0 184.93 298.01">
  <path d="M184.28,247.77c-4-22.77-25.45-38.84-48.22-34.82-9.37,1.34-16.07,5.35-22.77,12.05l-9.63-60h0l-13.13-74v0L89.2,83.58v0h0L74.46,0c-28,30.39-5.18,95,4.28,137.68h0c1,4.36,1.79,8.48,2.41,12.32l-.09.65,13.2,74h0l7,37.87c4,24.11,25.45,38.84,48.22,34.82C173.56,293.3,188.29,271.87,184.28,247.77Zm-36.16,37.5c-17.41,2.68-32.15-8-34.83-24.11A30,30,0,0,1,137.4,225c17.41-2.68,32.14,9.37,34.82,25.45C176.24,266.52,164.19,282.59,148.12,285.27Z" style="fill-rule: evenodd"/>
  <path d="M35.48,297.32c22.77,4,44.2-10.71,48.21-34.82l7-37.87h0l13.21-74-.1-.65c.62-3.84,1.45-8,2.41-12.32h0C115.65,95,138.43,30.39,110.48,0L95.74,83.53h0v0l-1.32,7.49v0L81.28,165h0l-9.64,60c-6.7-6.7-13.39-10.71-22.77-12.05C26.1,208.93,4.68,225,.66,247.77-3.36,271.87,11.37,293.3,35.48,297.32ZM12.71,250.45c2.68-16.08,17.41-28.13,34.82-25.45a30,30,0,0,1,24.11,36.16C69,277.23,54.23,288,36.82,285.27,20.75,282.59,8.69,266.52,12.71,250.45Z" style="fill-rule: evenodd"/>
</svg>
