<svg xmlns="http://www.w3.org/2000/svg" viewBox="0 0 272.74 229">
  <path d="M262.37,159.67c-14.86-17.71-41.45-20.91-59.16-6-7.45,5.85-11.24,12.68-13.69,21.83l-38.33-47.11h0L102.83,70.82v0L97.94,65l0,0h0L43.38,0c-9,40.29,43,84.83,72.55,117.09h0c3,3.29,5.79,6.45,8.24,9.47l.24.6,48.43,57.47h0l25,29.31c15.53,18.87,41.46,20.91,59.17,6.05C275.86,204.47,277.91,178.54,262.37,159.67Zm-12.56,50.56c-13.74,11-31.86,9.11-42.21-3.47a30,30,0,0,1,2.8-43.37c13.73-11,32.52-7.95,42.88,4.63C264.79,179.93,262.39,199.87,249.81,210.23Z" style="fill-rule: evenodd"/>
  <path d="M15.74,220c17.71,14.86,43.63,12.82,59.17-6.05l25-29.31h0l48.43-57.47.24-.6c2.46-3,5.24-6.18,8.25-9.47h0C186.35,84.83,238.37,40.29,229.35,0L174.83,65h0l0,0-4.89,5.83v0l-48.37,57.52h0L83.22,175.44c-2.45-9.15-6.24-16-13.69-21.83-17.71-14.86-44.31-11.66-59.17,6C-5.17,178.53-3.13,204.45,15.74,220Zm3.72-52c10.36-12.58,29.14-15.65,42.88-4.63a30,30,0,0,1,2.8,43.37c-10.36,12.58-28.47,14.49-42.21,3.47C10.35,199.86,8,179.92,19.46,168Z" style="fill-rule: evenodd"/>
</svg>
