<svg id="Calque_1" data-name="Calque 1" xmlns="http://www.w3.org/2000/svg" viewBox="0 0 52.44 66.53">
  <title>PoubelleAlone</title>
  <g>
    <g>
      <path d="M3.66,12.43,9.28,63.1A2.16,2.16,0,0,0,11.43,65H41a2.17,2.17,0,0,0,2.16-1.93l5.62-50.67" style="fill: #fff"/>
      <path d="M41,66.53H11.43a3.65,3.65,0,0,1-3.64-3.26L2.17,12.6l3-.33,5.62,50.66a.67.67,0,0,0,.66.6H41a.68.68,0,0,0,.67-.59l5.61-50.67,3,.33L44.65,63.26A3.67,3.67,0,0,1,41,66.53Z" style="fill: #1d1d1b"/>
    </g>
    <g>
      <rect x="1.5" y="5.9" width="49.44" height="6.53" rx="2.22" style="fill: #fff"/>
      <path d="M48.72,13.93h-45A3.73,3.73,0,0,1,0,10.21V8.12A3.73,3.73,0,0,1,3.72,4.4h45a3.73,3.73,0,0,1,3.72,3.72v2.09A3.73,3.73,0,0,1,48.72,13.93ZM3.72,7.4A.72.72,0,0,0,3,8.12v2.09a.72.72,0,0,0,.72.72h45a.72.72,0,0,0,.72-.72V8.12a.72.72,0,0,0-.72-.72Z" style="fill: #1d1d1b"/>
    </g>
    <path d="M28.88,6.12c-.06-.31-.58-3.12-3-3.12a1.87,1.87,0,0,0-1.47.53,3.81,3.81,0,0,0-.79,2.34l-3,.06a6.7,6.7,0,0,1,1.65-4.5A4.88,4.88,0,0,1,25.84,0c4.07,0,5.71,3.71,6,5.68Z" style="fill: #1d1d1b"/>
    <rect x="24.72" y="17.56" width="3" height="42.89" style="fill: #1d1d1b"/>
    <rect x="11.28" y="17.49" width="3" height="43.02" transform="matrix(1, -0.08, 0.08, 1, -3.06, 1.14)" style="fill: #1d1d1b"/>
    <rect x="17.95" y="17.54" width="3" height="42.92" transform="translate(-1.54 0.81) rotate(-2.28)" style="fill: #1d1d1b"/>
    <rect x="18.47" y="37.5" width="43.02" height="3" transform="translate(-2.09 75.75) rotate(-85.43)" style="fill: #1d1d1b"/>
    <rect x="11.85" y="37.5" width="42.92" height="3" transform="translate(-7 70.73) rotate(-87.71)" style="fill: #1d1d1b"/>
  </g>
</svg>
