<svg xmlns="http://www.w3.org/2000/svg" viewBox="0 0 234.51 20.99">
  <polyline points="1.85 2.02 16.18 9.22 30.25 2.02 44 9.22 57.09 2.02 70.99 9.22 84.41 2.02 97.83 9.22 111.57 2.02 124.99 9.22 138.24 2.02 151.66 9.22 165.24 2.02 178.82 9.22 192.56 2.02 205.98 9.22 219.89 2.02 232.98 9.22" style="fill: none;stroke-miterlimit: 10;stroke-width: 3px"/>
  <polyline points="1.85 11.84 16.18 19.04 30.25 11.84 44 19.04 57.09 11.84 70.99 19.04 84.41 11.84 97.83 19.04 111.57 11.84 124.99 19.04 138.24 11.84 151.66 19.04 165.24 11.84 178.82 19.04 192.56 11.84 205.98 19.04 219.89 11.84 232.98 19.04" style="fill: none;stroke-miterlimit: 10;stroke-width: 3px"/>
</svg>
