<svg xmlns="http://www.w3.org/2000/svg" viewBox="0 0 437.7 22.18">
  <polyline points="436.57 2.42 422.67 9.62 409.25 2.42 395.5 9.62 381.93 2.42 368.34 9.62 354.93 2.42 341.67 9.62 328.26 2.42 314.51 9.62 301.1 2.42 287.68 9.62 273.77 2.42 260.68 9.62 246.94 2.42 232.74 9.62 232.74 9.62 219.65 2.42 205.74 9.62 192.32 2.42 178.58 9.62 165 2.42 151.42 9.62 138 2.42 124.75 9.62 111.33 2.42 97.59 9.62 84.17 2.42 70.75 9.62 56.85 2.42 43.76 9.62 30.01 2.42 15.94 9.62 1.61 2.42" style="fill: none;stroke: #fff;stroke-miterlimit: 10;stroke-width: 3px"/>
  <polyline points="436.57 12.92 422.67 20.12 409.25 12.92 395.5 20.12 381.93 12.92 368.34 20.12 354.93 12.92 341.67 20.12 328.26 12.92 314.51 20.12 301.1 12.92 287.68 20.12 273.77 12.92 260.68 20.12 246.94 12.92 232.74 20.12 232.74 20.12 219.65 12.92 205.74 20.12 192.32 12.92 178.58 20.12 165 12.92 151.42 20.12 138 12.92 124.75 20.12 111.33 12.92 97.59 20.12 84.17 12.92 70.75 20.12 56.85 12.92 43.76 20.12 30.01 12.92 15.94 20.12 1.61 12.92" style="fill: none;stroke: #fff;stroke-miterlimit: 10;stroke-width: 3px"/>
</svg>
