<svg xmlns="http://www.w3.org/2000/svg" viewBox="0 0 558.29 21.28">
  <polyline points="0.86 1.78 15.19 8.98 29.26 1.78 43.01 8.98 56.09 1.78 70 8.98 83.42 1.78 96.84 8.98 110.58 1.78 124 8.98 137.25 1.78 150.67 8.98 164.25 1.78 177.83 8.98 191.57 1.78 204.99 8.98 218.9 1.78 231.99 8.98 231.99 8.98 246.19 1.78 259.93 8.98 273.02 1.78 286.93 8.98 300.34 1.78 313.76 8.98 327.5 1.78 340.92 8.98 354.18 1.78 367.59 8.98 381.17 1.78 394.75 8.98 408.5 1.78 421.91 8.98 421.94 8.98 436.01 1.78 449.76 8.98 462.85 1.78 476.76 8.98 490.17 1.78 503.59 8.98 517.33 1.78 530.75 8.98 544 1.78 557.42 8.98" style="fill: none;stroke: #fff;stroke-miterlimit: 10;stroke-width: 3px"/>
  <polyline points="0.86 12.29 15.19 19.48 29.26 12.29 43.01 19.48 56.09 12.29 70 19.48 83.42 12.29 96.84 19.48 110.58 12.29 124 19.48 137.25 12.29 150.67 19.48 164.25 12.29 177.83 19.48 191.57 12.29 204.99 19.48 218.9 12.29 231.99 19.48 231.99 19.48 246.19 12.29 259.93 19.48 273.02 12.29 286.93 19.48 300.34 12.29 313.76 19.48 327.5 12.29 340.92 19.48 354.18 12.29 367.59 19.48 381.17 12.29 394.75 19.48 408.5 12.29 421.91 19.48 421.94 19.48 436.01 12.29 449.76 19.48 462.85 12.29 476.76 19.48 490.17 12.29 503.59 19.48 517.33 12.29 530.75 19.48 544 12.29 557.42 19.48" style="fill: none;stroke: #fff;stroke-miterlimit: 10;stroke-width: 3px"/>
</svg>
