<svg xmlns="http://www.w3.org/2000/svg" viewBox="0 0 150.7 107.11">
  <path d="M75.34,1.77A115.15,115.15,0,0,0,4.56,25.93a7.34,7.34,0,0,0-1.2,10.38h0A7.05,7.05,0,0,0,9,38.86a7.34,7.34,0,0,0,4.42-1.53,101.14,101.14,0,0,1,123.88.17A7.37,7.37,0,0,0,141.71,39a6.92,6.92,0,0,0,5.44-2.55h0A7.19,7.19,0,0,0,146,26.1,113.43,113.43,0,0,0,75.34,1.77Z" style="fill: #ffe8c7;stroke: #000;stroke-miterlimit: 10;stroke-width: 3px"/>
  <path d="M75.34,30.7A85.33,85.33,0,0,0,23.27,48.22,7.21,7.21,0,0,0,22.08,58.6h0a6.94,6.94,0,0,0,5.45,2.55,7.44,7.44,0,0,0,4.25-1.36,72.18,72.18,0,0,1,87.13,0,6.9,6.9,0,0,0,9.69-1h0a7.17,7.17,0,0,0-1.19-10.38A84.39,84.39,0,0,0,75.34,30.7Z" style="fill: #ffe8c7;stroke: #000;stroke-miterlimit: 10;stroke-width: 3px"/>
  <path d="M75.34,59.45A57.64,57.64,0,0,0,42,70a7.26,7.26,0,0,0-1.36,10.55h0a7,7,0,0,0,5.62,2.56,6.18,6.18,0,0,0,4.08-1.37,42.57,42.57,0,0,1,25-8,43.13,43.13,0,0,1,25.19,8,7.26,7.26,0,0,0,4.08,1.37,7.55,7.55,0,0,0,5.62-2.56h0A7.26,7.26,0,0,0,108.87,70,58.58,58.58,0,0,0,75.34,59.45Z" style="fill: #ffe8c7;stroke: #000;stroke-miterlimit: 10;stroke-width: 3px"/>
  <path d="M75.34,88.38a29.31,29.31,0,0,0-14,3.57,7.38,7.38,0,0,0-2,11.06h0a6.9,6.9,0,0,0,5.44,2.56,7.78,7.78,0,0,0,3.41-.85,13.88,13.88,0,0,1,14,0,6.54,6.54,0,0,0,3.57.85A6.91,6.91,0,0,0,91.17,103h0a7.38,7.38,0,0,0-2-11.06,28.18,28.18,0,0,0-13.79-3.57Z" style="fill: #ffe8c7;stroke: #000;stroke-miterlimit: 10;stroke-width: 3px"/>
</svg>
