<svg xmlns="http://www.w3.org/2000/svg" viewBox="0 0 961.63 561.97">
  <defs>
    <clipPath id="clip-path">
      <path d="M3.75,318.73s24.38-87.09,113.92-94.45,139.83-25,139.83-25,60.72-15.87-40.47-9.35-46.59-65.29-46.59-65.29l-16.65,27.72s-22.66,46.81-74,62.15C48,228.94,30.21,249,30.21,249S2.42,278.75,3.75,318.73Z" style="fill: none"/>
    </clipPath>
    <clipPath id="clip-path-2">
      <path d="M417.75,265.6c-6.45,40.11,9.55,56.07,29.84,4.63,15.55-34.54,46.66-54.35,62.21-62.49a283.32,283.32,0,0,0,30.38-18.27c15.5-10.78,19.66-22.83-14.25-8.63-55.83,23.4-143.81,10-143.81,10s-88.69-13.27-63.67.22,58.76,18.3,58.76,18.3S426.27,212.64,417.75,265.6Z" style="fill: none"/>
    </clipPath>
    <clipPath id="clip-path-3">
      <path d="M881.87,166.73s-97.94-27.58-222.43-9.5c-90,13.09-38.13-7.23-2.52-19.47A253.08,253.08,0,0,1,693,128.51c16.5-3,40.59-14.89-6.37-60.66,26.14,21.42,29.67,25,29.67,25s30.45,25.37,55.08,35.24c29.39,11.77,49.81,14.79,49.81,14.79A226.16,226.16,0,0,1,881.87,166.73Z" style="fill: none"/>
    </clipPath>
    <clipPath id="clip-path-4">
      <path d="M212.68,86.65S295.79,55.33,359.05,60.6,454.42,65,454.42,65s38.17,4.39,110.22-17.57c36.9-12.3,63.37-6.1,63.37-6.1s-65.17-3.38-91.51-7S434.61,45.66,434.61,45.66s-37.78,7-85.22,2.64-96.93,20-96.93,20Z" style="fill: none"/>
    </clipPath>
    <clipPath id="clip-path-5">
      <path d="M823.05,439.41a447,447,0,0,1-84.52-1.22c-9.26-1-18.4-2.29-26.24-3.8-50.14-9.66-121,16.69-121,16.69s-98.63,38.25-168.42,21.65c-2.23-1.4-7.06-3-15.86-5q-4.32-1.72-9.2-3.29c-28.87-14.91-23.95-62.33-34.45-39.75-11.17,24-112.22,20.6-117.87,20.39-49.93-1.92-90.23-1-90.23-1s-50.86-2.84-91.75-19.4c0,0,16.75,28.23,96.06,35.58S299.71,510.1,299.71,510.1s60,64,168.51,47.77,149-55.86,149-55.86,50.42-38.4,111.94-46.41c35-4.29,35.5-2.27,35.5-2.27s45.1,1.19,80.73-14.34C843.17,438.13,833.48,438.59,823.05,439.41Z" style="fill: none"/>
    </clipPath>
  </defs>
  <g>
    <g>
      <path d="M324.13,38.49c-11,10.58-57.56,24.08-72.69,29.09-25.69,8.51-69.65,29-93.1,74.07-24.4,46.87-53.73,62.75-68.77,68-12.56,4.41-24.64,9.9-35.2,17.41C24.68,248.19-17,291.76,13.18,357.8c44.29,97.06,123.94,99.26,123.94,99.26s107.33,6.62,191,72.79c40,31.66,99.75,33,151.17,25.84,50.12-7,96.88-26.39,136.88-54.36,32.21-22.53,84.62-50,147.44-48.68a205.54,205.54,0,0,0,69.23-10.1c49.91-16.48,88-53.38,105.92-98.26,19.56-48.88,29.67-107-12-149.83-45.72-32.87-87.47-48.83-125.61-57.87-75-17.77-101.84-70.87-150.08-90-37.26-14.77-97.68-2.28-134.47-18.77C442.68-5.33,373.57-9.07,324.13,38.49Z" style="fill: #fff"/>
      <path d="M324.13,38.49c-11,10.58-57.56,24.08-72.69,29.09-25.69,8.51-69.65,29-93.1,74.07-24.4,46.87-53.73,62.75-68.77,68-12.56,4.41-24.64,9.9-35.2,17.41C24.68,248.19-17,291.76,13.18,357.8c44.29,97.06,123.94,99.26,123.94,99.26s107.33,6.62,191,72.79c40,31.66,99.75,33,151.17,25.84,50.12-7,96.88-26.39,136.88-54.36,32.21-22.53,84.62-50,147.44-48.68a205.54,205.54,0,0,0,69.23-10.1c49.91-16.48,88-53.38,105.92-98.26,19.56-48.88,29.67-107-12-149.83-45.72-32.87-87.47-48.83-125.61-57.87-75-17.77-101.84-70.87-150.08-90-37.26-14.77-97.68-2.28-134.47-18.77C442.68-5.33,373.57-9.07,324.13,38.49Z" style="fill: none;stroke: #000;stroke-miterlimit: 10;stroke-width: 3px;stroke-dasharray: 14.961899757385254,14.961899757385254"/>
    </g>
    <g style="clip-path: url(#clip-path)">
      <g>
        <circle cx="3.76" cy="332.02" r="2.59"/>
        <circle cx="14.75" cy="321.02" r="2.59"/>
        <circle cx="3.73" cy="288" r="2.59"/>
        <circle cx="14.74" cy="299.02" r="2.59"/>
        <circle cx="3.71" cy="266" r="2.59"/>
        <circle cx="14.72" cy="277.01" r="2.59"/>
        <circle cx="3.7" cy="243.99" r="2.59"/>
        <circle cx="14.71" cy="255" r="2.59"/>
        <circle cx="25.72" cy="266.01" r="2.59"/>
        <circle cx="36.73" cy="277.02" r="2.59"/>
        <circle cx="25.7" cy="244.01" r="2.59"/>
        <circle cx="36.71" cy="255.02" r="2.59"/>
        <circle cx="47.72" cy="266.03" r="2.59"/>
        <circle cx="47.71" cy="244.02" r="2.59"/>
        <circle cx="47.69" cy="222.02" r="2.59"/>
        <circle cx="58.7" cy="233.03" r="2.59"/>
        <circle cx="69.71" cy="244.04" r="2.59"/>
        <circle cx="47.68" cy="200.01" r="2.59"/>
        <circle cx="58.69" cy="211.02" r="2.59"/>
        <circle cx="69.7" cy="222.03" r="2.59"/>
        <circle cx="80.71" cy="233.04" r="2.59"/>
        <circle cx="69.68" cy="200.03" r="2.59"/>
        <circle cx="80.69" cy="211.04" r="2.59"/>
        <circle cx="91.71" cy="222.05" r="2.59"/>
        <circle cx="91.69" cy="200.04" r="2.59"/>
        <circle cx="102.7" cy="211.05" r="2.59"/>
        <circle cx="113.71" cy="222.06" r="2.59"/>
        <circle cx="113.7" cy="200.06" r="2.59"/>
        <circle cx="124.71" cy="211.07" r="2.59"/>
        <circle cx="135.72" cy="222.08" r="2.59"/>
        <circle cx="124.69" cy="189.06" r="2.59"/>
        <circle cx="135.7" cy="200.07" r="2.59"/>
        <circle cx="146.71" cy="211.08" r="2.59"/>
        <circle cx="157.72" cy="222.09" r="2.59"/>
        <circle cx="135.69" cy="178.07" r="2.59"/>
        <circle cx="146.7" cy="189.08" r="2.59"/>
        <circle cx="157.71" cy="200.09" r="2.59"/>
        <circle cx="168.72" cy="211.1" r="2.59"/>
        <circle cx="179.73" cy="222.11" r="2.59"/>
        <circle cx="146.68" cy="167.07" r="2.59"/>
        <circle cx="157.69" cy="178.08" r="2.59"/>
        <circle cx="168.7" cy="189.09" r="2.59"/>
        <circle cx="179.72" cy="200.1" r="2.59"/>
        <circle cx="190.73" cy="211.11" r="2.59"/>
        <circle cx="201.74" cy="222.12" r="2.59"/>
        <circle cx="157.68" cy="156.07" r="2.59"/>
        <circle cx="168.69" cy="167.08" r="2.59"/>
        <circle cx="190.71" cy="189.11" r="2.59"/>
        <circle cx="201.72" cy="200.12" r="2.59"/>
        <circle cx="212.73" cy="211.13" r="2.59"/>
        <circle cx="223.74" cy="222.14" r="2.59"/>
        <circle cx="157.66" cy="134.07" r="2.59"/>
        <circle cx="168.67" cy="145.08" r="2.59"/>
        <circle cx="212.72" cy="189.12" r="2.59"/>
        <circle cx="223.73" cy="200.13" r="2.59"/>
        <circle cx="234.74" cy="211.14" r="2.59"/>
        <circle cx="245.75" cy="222.15" r="2.59"/>
        <circle cx="168.66" cy="123.07" r="2.59"/>
        <circle cx="234.72" cy="189.14" r="2.59"/>
        <circle cx="245.73" cy="200.15" r="2.59"/>
        <circle cx="256.74" cy="211.16" r="2.59"/>
        <circle cx="267.76" cy="222.17" r="2.59"/>
        <circle cx="256.73" cy="189.15" r="2.59"/>
        <circle cx="267.74" cy="200.16" r="2.59"/>
        <circle cx="278.75" cy="211.17" r="2.59"/>
        <circle cx="278.74" cy="189.17" r="2.59"/>
      </g>
    </g>
    <g style="clip-path: url(#clip-path-2)">
      <g>
        <circle cx="313.68" cy="199.14" r="2.59"/>
        <circle cx="324.69" cy="210.15" r="2.59"/>
        <circle cx="401.76" cy="287.23" r="2.59"/>
        <circle cx="412.77" cy="298.24" r="2.59"/>
        <circle cx="324.67" cy="188.14" r="2.59"/>
        <circle cx="335.68" cy="199.16" r="2.59"/>
        <circle cx="346.69" cy="210.17" r="2.59"/>
        <circle cx="401.75" cy="265.22" r="2.59"/>
        <circle cx="412.76" cy="276.23" r="2.59"/>
        <circle cx="423.77" cy="287.24" r="2.59"/>
        <circle cx="434.78" cy="298.25" r="2.59"/>
        <circle cx="346.68" cy="188.16" r="2.59"/>
        <circle cx="357.69" cy="199.17" r="2.59"/>
        <circle cx="368.7" cy="210.18" r="2.59"/>
        <circle cx="401.73" cy="243.21" r="2.59"/>
        <circle cx="412.74" cy="254.23" r="2.59"/>
        <circle cx="423.75" cy="265.24" r="2.59"/>
        <circle cx="434.76" cy="276.25" r="2.59"/>
        <circle cx="445.78" cy="287.26" r="2.59"/>
        <circle cx="368.68" cy="188.18" r="2.59"/>
        <circle cx="379.69" cy="199.19" r="2.59"/>
        <circle cx="390.71" cy="210.2" r="2.59"/>
        <circle cx="401.72" cy="221.21" r="2.59"/>
        <circle cx="412.73" cy="232.22" r="2.59"/>
        <circle cx="423.74" cy="243.23" r="2.59"/>
        <circle cx="434.75" cy="254.24" r="2.59"/>
        <circle cx="445.76" cy="265.25" r="2.59"/>
        <circle cx="390.69" cy="188.19" r="2.59"/>
        <circle cx="401.7" cy="199.2" r="2.59"/>
        <circle cx="412.71" cy="210.21" r="2.59"/>
        <circle cx="423.72" cy="221.22" r="2.59"/>
        <circle cx="434.73" cy="232.23" r="2.59"/>
        <circle cx="445.74" cy="243.25" r="2.59"/>
        <circle cx="412.7" cy="188.21" r="2.59"/>
        <circle cx="423.71" cy="199.22" r="2.59"/>
        <circle cx="434.72" cy="210.23" r="2.59"/>
        <circle cx="445.73" cy="221.24" r="2.59"/>
        <circle cx="456.74" cy="232.25" r="2.59"/>
        <circle cx="467.75" cy="243.26" r="2.59"/>
        <circle cx="434.7" cy="188.22" r="2.59"/>
        <circle cx="445.71" cy="199.23" r="2.59"/>
        <circle cx="456.72" cy="210.24" r="2.59"/>
        <circle cx="467.74" cy="221.25" r="2.59"/>
        <circle cx="478.75" cy="232.26" r="2.59"/>
        <circle cx="456.71" cy="188.24" r="2.59"/>
        <circle cx="467.72" cy="199.25" r="2.59"/>
        <circle cx="478.73" cy="210.26" r="2.59"/>
        <circle cx="489.74" cy="221.27" r="2.59"/>
        <circle cx="478.72" cy="188.25" r="2.59"/>
        <circle cx="489.73" cy="199.26" r="2.59"/>
        <circle cx="500.74" cy="210.27" r="2.59"/>
        <circle cx="511.75" cy="221.28" r="2.59"/>
        <circle cx="500.72" cy="188.27" r="2.59"/>
        <circle cx="511.73" cy="199.28" r="2.59"/>
        <circle cx="522.73" cy="188.28" r="2.59"/>
        <circle cx="533.74" cy="199.29" r="2.59"/>
        <circle cx="522.71" cy="166.28" r="2.59"/>
        <circle cx="533.72" cy="177.29" r="2.59"/>
        <circle cx="544.73" cy="188.3" r="2.59"/>
        <circle cx="555.75" cy="199.31" r="2.59"/>
        <circle cx="544.72" cy="166.29" r="2.59"/>
        <circle cx="555.73" cy="177.3" r="2.59"/>
      </g>
    </g>
    <g style="clip-path: url(#clip-path-3)">
      <g>
        <circle cx="612.98" cy="143.46" r="2.59"/>
        <circle cx="623.99" cy="154.47" r="2.59"/>
        <circle cx="623.98" cy="132.46" r="2.59"/>
        <circle cx="634.99" cy="143.47" r="2.59"/>
        <circle cx="646" cy="154.48" r="2.59"/>
        <circle cx="645.99" cy="132.48" r="2.59"/>
        <circle cx="657" cy="143.49" r="2.59"/>
        <circle cx="668.01" cy="154.5" r="2.59"/>
        <circle cx="667.99" cy="132.49" r="2.59"/>
        <circle cx="679" cy="143.5" r="2.59"/>
        <circle cx="690.01" cy="154.51" r="2.59"/>
        <circle cx="690" cy="132.51" r="2.59"/>
        <circle cx="701.01" cy="143.52" r="2.59"/>
        <circle cx="712.02" cy="154.53" r="2.59"/>
        <circle cx="700.99" cy="121.51" r="2.59"/>
        <circle cx="712" cy="132.52" r="2.59"/>
        <circle cx="723.02" cy="143.53" r="2.59"/>
        <circle cx="734.03" cy="154.54" r="2.59"/>
        <circle cx="700.98" cy="99.51" r="2.59"/>
        <circle cx="711.99" cy="110.52" r="2.59"/>
        <circle cx="723" cy="121.53" r="2.59"/>
        <circle cx="734.01" cy="132.54" r="2.59"/>
        <circle cx="745.02" cy="143.55" r="2.59"/>
        <circle cx="756.03" cy="154.56" r="2.59"/>
        <circle cx="678.94" cy="55.48" r="2.59"/>
        <circle cx="689.95" cy="66.49" r="2.59"/>
        <circle cx="700.96" cy="77.5" r="2.59"/>
        <circle cx="711.97" cy="88.51" r="2.59"/>
        <circle cx="722.98" cy="99.52" r="2.59"/>
        <circle cx="734" cy="110.53" r="2.59"/>
        <circle cx="745.01" cy="121.54" r="2.59"/>
        <circle cx="756.02" cy="132.55" r="2.59"/>
        <circle cx="767.03" cy="143.56" r="2.59"/>
        <circle cx="778.04" cy="154.58" r="2.59"/>
        <circle cx="733.98" cy="88.53" r="2.59"/>
        <circle cx="756" cy="110.55" r="2.59"/>
        <circle cx="778.02" cy="132.57" r="2.59"/>
        <circle cx="789.03" cy="143.58" r="2.59"/>
        <circle cx="800.05" cy="154.59" r="2.59"/>
        <circle cx="800.03" cy="132.58" r="2.59"/>
        <circle cx="811.04" cy="143.6" r="2.59"/>
        <circle cx="822.05" cy="154.61" r="2.59"/>
        <circle cx="833.05" cy="143.61" r="2.59"/>
        <circle cx="844.06" cy="154.62" r="2.59"/>
        <circle cx="855.05" cy="143.63" r="2.59"/>
        <circle cx="866.06" cy="154.64" r="2.59"/>
        <circle cx="877.08" cy="165.65" r="2.59"/>
        <circle cx="888.09" cy="176.66" r="2.59"/>
        <circle cx="877.06" cy="143.64" r="2.59"/>
        <circle cx="888.07" cy="154.65" r="2.59"/>
      </g>
    </g>
    <g style="clip-path: url(#clip-path-4)">
      <g>
        <circle cx="203.5" cy="87.92" r="2.59"/>
        <circle cx="203.49" cy="65.92" r="2.59"/>
        <circle cx="214.5" cy="76.93" r="2.59"/>
        <circle cx="225.51" cy="87.94" r="2.59"/>
        <circle cx="225.49" cy="65.93" r="2.59"/>
        <circle cx="236.5" cy="76.94" r="2.59"/>
        <circle cx="247.52" cy="87.96" r="2.59"/>
        <circle cx="247.5" cy="65.95" r="2.59"/>
        <circle cx="258.51" cy="76.96" r="2.59"/>
        <circle cx="269.51" cy="65.96" r="2.59"/>
        <circle cx="280.5" cy="54.97" r="2.59"/>
        <circle cx="291.51" cy="65.98" r="2.59"/>
        <circle cx="291.5" cy="43.97" r="2.59"/>
        <circle cx="302.51" cy="54.98" r="2.59"/>
        <circle cx="313.52" cy="66" r="2.59"/>
        <circle cx="313.5" cy="43.99" r="2.59"/>
        <circle cx="324.51" cy="55" r="2.59"/>
        <circle cx="335.53" cy="66.01" r="2.59"/>
        <circle cx="335.51" cy="44" r="2.59"/>
        <circle cx="346.52" cy="55.02" r="2.59"/>
        <circle cx="357.53" cy="66.03" r="2.59"/>
        <circle cx="357.52" cy="44.02" r="2.59"/>
        <circle cx="368.53" cy="55.03" r="2.59"/>
        <circle cx="379.54" cy="66.04" r="2.59"/>
        <circle cx="379.52" cy="44.03" r="2.59"/>
        <circle cx="390.53" cy="55.05" r="2.59"/>
        <circle cx="401.54" cy="66.06" r="2.59"/>
        <circle cx="401.53" cy="44.05" r="2.59"/>
        <circle cx="412.54" cy="55.06" r="2.59"/>
        <circle cx="423.55" cy="66.07" r="2.59"/>
        <circle cx="423.54" cy="44.07" r="2.59"/>
        <circle cx="434.55" cy="55.08" r="2.59"/>
        <circle cx="445.56" cy="66.09" r="2.59"/>
        <circle cx="445.54" cy="44.08" r="2.59"/>
        <circle cx="456.55" cy="55.09" r="2.59"/>
        <circle cx="467.56" cy="66.1" r="2.59"/>
        <circle cx="467.55" cy="44.1" r="2.59"/>
        <circle cx="478.56" cy="55.11" r="2.59"/>
        <circle cx="489.57" cy="66.12" r="2.59"/>
        <circle cx="478.54" cy="33.1" r="2.59"/>
        <circle cx="489.55" cy="44.11" r="2.59"/>
        <circle cx="500.57" cy="55.12" r="2.59"/>
        <circle cx="511.58" cy="66.13" r="2.59"/>
        <circle cx="500.55" cy="33.12" r="2.59"/>
        <circle cx="511.56" cy="44.13" r="2.59"/>
        <circle cx="522.57" cy="55.14" r="2.59"/>
        <circle cx="533.58" cy="66.15" r="2.59"/>
        <circle cx="522.56" cy="33.13" r="2.59"/>
        <circle cx="533.57" cy="44.14" r="2.59"/>
        <circle cx="544.58" cy="55.15" r="2.59"/>
        <circle cx="555.59" cy="66.16" r="2.59"/>
        <circle cx="544.56" cy="33.15" r="2.59"/>
        <circle cx="555.57" cy="44.16" r="2.59"/>
        <circle cx="566.57" cy="33.16" r="2.59"/>
        <circle cx="577.58" cy="44.17" r="2.59"/>
        <circle cx="588.58" cy="33.18" r="2.59"/>
        <circle cx="599.59" cy="44.19" r="2.59"/>
        <circle cx="610.58" cy="33.19" r="2.59"/>
        <circle cx="621.59" cy="44.2" r="2.59"/>
        <circle cx="632.59" cy="33.21" r="2.59"/>
        <circle cx="643.6" cy="44.22" r="2.59"/>
      </g>
    </g>
    <g style="clip-path: url(#clip-path-5)">
      <g>
        <circle cx="60.25" cy="431.48" r="2.59"/>
        <circle cx="71.26" cy="442.49" r="2.59"/>
        <circle cx="82.25" cy="431.49" r="2.59"/>
        <circle cx="93.26" cy="442.5" r="2.59"/>
        <circle cx="104.27" cy="453.51" r="2.59"/>
        <circle cx="115.28" cy="464.52" r="2.59"/>
        <circle cx="104.26" cy="431.51" r="2.59"/>
        <circle cx="115.27" cy="442.52" r="2.59"/>
        <circle cx="126.28" cy="453.53" r="2.59"/>
        <circle cx="137.29" cy="464.54" r="2.59"/>
        <circle cx="126.26" cy="431.52" r="2.59"/>
        <circle cx="137.28" cy="442.53" r="2.59"/>
        <circle cx="148.29" cy="453.54" r="2.59"/>
        <circle cx="159.3" cy="464.55" r="2.59"/>
        <circle cx="148.27" cy="431.54" r="2.59"/>
        <circle cx="159.28" cy="442.55" r="2.59"/>
        <circle cx="170.29" cy="453.56" r="2.59"/>
        <circle cx="181.3" cy="464.57" r="2.59"/>
        <circle cx="214.34" cy="497.6" r="2.59"/>
        <circle cx="170.28" cy="431.55" r="2.59"/>
        <circle cx="181.29" cy="442.56" r="2.59"/>
        <circle cx="192.3" cy="453.57" r="2.59"/>
        <circle cx="203.31" cy="464.59" r="2.59"/>
        <circle cx="214.32" cy="475.6" r="2.59"/>
        <circle cx="225.33" cy="486.61" r="2.59"/>
        <circle cx="236.34" cy="497.62" r="2.59"/>
        <circle cx="192.28" cy="431.57" r="2.59"/>
        <circle cx="203.29" cy="442.58" r="2.59"/>
        <circle cx="214.3" cy="453.59" r="2.59"/>
        <circle cx="225.32" cy="464.6" r="2.59"/>
        <circle cx="236.33" cy="475.61" r="2.59"/>
        <circle cx="247.34" cy="486.62" r="2.59"/>
        <circle cx="258.35" cy="497.63" r="2.59"/>
        <circle cx="302.39" cy="541.68" r="2.59"/>
        <circle cx="214.29" cy="431.58" r="2.59"/>
        <circle cx="225.3" cy="442.59" r="2.59"/>
        <circle cx="236.31" cy="453.61" r="2.59"/>
        <circle cx="247.32" cy="464.62" r="2.59"/>
        <circle cx="258.33" cy="475.63" r="2.59"/>
        <circle cx="269.34" cy="486.64" r="2.59"/>
        <circle cx="280.35" cy="497.65" r="2.59"/>
        <circle cx="302.38" cy="519.67" r="2.59"/>
        <circle cx="313.39" cy="530.68" r="2.59"/>
        <circle cx="324.4" cy="541.69" r="2.59"/>
        <circle cx="346.42" cy="563.71" r="2.59"/>
        <circle cx="236.3" cy="431.6" r="2.59"/>
        <circle cx="247.31" cy="442.61" r="2.59"/>
        <circle cx="258.32" cy="453.62" r="2.59"/>
        <circle cx="269.33" cy="464.63" r="2.59"/>
        <circle cx="280.34" cy="475.64" r="2.59"/>
        <circle cx="291.35" cy="486.65" r="2.59"/>
        <circle cx="302.36" cy="497.66" r="2.59"/>
        <circle cx="313.37" cy="508.67" r="2.59"/>
        <circle cx="324.38" cy="519.69" r="2.59"/>
        <circle cx="335.39" cy="530.7" r="2.59"/>
        <circle cx="346.4" cy="541.71" r="2.59"/>
        <circle cx="357.41" cy="552.72" r="2.59"/>
        <circle cx="368.43" cy="563.73" r="2.59"/>
        <circle cx="258.3" cy="431.61" r="2.59"/>
        <circle cx="269.31" cy="442.63" r="2.59"/>
        <circle cx="280.32" cy="453.64" r="2.59"/>
        <circle cx="291.33" cy="464.65" r="2.59"/>
        <circle cx="302.35" cy="475.66" r="2.59"/>
        <circle cx="313.36" cy="486.67" r="2.59"/>
        <circle cx="324.37" cy="497.68" r="2.59"/>
        <circle cx="335.38" cy="508.69" r="2.59"/>
        <circle cx="346.39" cy="519.7" r="2.59"/>
        <circle cx="357.4" cy="530.71" r="2.59"/>
        <circle cx="368.41" cy="541.72" r="2.59"/>
        <circle cx="379.42" cy="552.73" r="2.59"/>
        <circle cx="390.43" cy="563.74" r="2.59"/>
        <circle cx="280.31" cy="431.63" r="2.59"/>
        <circle cx="291.32" cy="442.64" r="2.59"/>
        <circle cx="302.33" cy="453.65" r="2.59"/>
        <circle cx="313.34" cy="464.66" r="2.59"/>
        <circle cx="324.35" cy="475.67" r="2.59"/>
        <circle cx="335.36" cy="486.68" r="2.59"/>
        <circle cx="346.37" cy="497.69" r="2.59"/>
        <circle cx="357.38" cy="508.71" r="2.59"/>
        <circle cx="368.39" cy="519.72" r="2.59"/>
        <circle cx="379.41" cy="530.73" r="2.59"/>
        <circle cx="390.42" cy="541.74" r="2.59"/>
        <circle cx="401.43" cy="552.75" r="2.59"/>
        <circle cx="412.44" cy="563.76" r="2.59"/>
        <circle cx="302.31" cy="431.65" r="2.59"/>
        <circle cx="313.33" cy="442.66" r="2.59"/>
        <circle cx="324.34" cy="453.67" r="2.59"/>
        <circle cx="335.35" cy="464.68" r="2.59"/>
        <circle cx="346.36" cy="475.69" r="2.59"/>
        <circle cx="357.37" cy="486.7" r="2.59"/>
        <circle cx="368.38" cy="497.71" r="2.59"/>
        <circle cx="379.39" cy="508.72" r="2.59"/>
        <circle cx="390.4" cy="519.73" r="2.59"/>
        <circle cx="401.41" cy="530.74" r="2.59"/>
        <circle cx="412.42" cy="541.75" r="2.59"/>
        <circle cx="423.43" cy="552.76" r="2.59"/>
        <circle cx="434.44" cy="563.78" r="2.59"/>
        <circle cx="324.32" cy="431.66" r="2.59"/>
        <circle cx="335.33" cy="442.67" r="2.59"/>
        <circle cx="346.34" cy="453.68" r="2.59"/>
        <circle cx="357.35" cy="464.69" r="2.59"/>
        <circle cx="368.36" cy="475.7" r="2.59"/>
        <circle cx="379.38" cy="486.71" r="2.59"/>
        <circle cx="390.39" cy="497.73" r="2.59"/>
        <circle cx="401.4" cy="508.74" r="2.59"/>
        <circle cx="412.41" cy="519.75" r="2.59"/>
        <circle cx="423.42" cy="530.76" r="2.59"/>
        <circle cx="434.43" cy="541.77" r="2.59"/>
        <circle cx="445.44" cy="552.78" r="2.59"/>
        <circle cx="456.45" cy="563.79" r="2.59"/>
        <circle cx="346.33" cy="431.68" r="2.59"/>
        <circle cx="357.34" cy="442.69" r="2.59"/>
        <circle cx="368.35" cy="453.7" r="2.59"/>
        <circle cx="379.36" cy="464.71" r="2.59"/>
        <circle cx="390.37" cy="475.72" r="2.59"/>
        <circle cx="401.38" cy="486.73" r="2.59"/>
        <circle cx="412.39" cy="497.74" r="2.59"/>
        <circle cx="423.4" cy="508.75" r="2.59"/>
        <circle cx="434.41" cy="519.76" r="2.59"/>
        <circle cx="445.42" cy="530.77" r="2.59"/>
        <circle cx="456.44" cy="541.78" r="2.59"/>
        <circle cx="467.45" cy="552.79" r="2.59"/>
        <circle cx="478.46" cy="563.81" r="2.59"/>
        <circle cx="357.32" cy="420.68" r="2.59"/>
        <circle cx="368.33" cy="431.69" r="2.59"/>
        <circle cx="379.34" cy="442.7" r="2.59"/>
        <circle cx="390.36" cy="453.71" r="2.59"/>
        <circle cx="401.37" cy="464.72" r="2.59"/>
        <circle cx="412.38" cy="475.73" r="2.59"/>
        <circle cx="423.39" cy="486.75" r="2.59"/>
        <circle cx="434.4" cy="497.76" r="2.59"/>
        <circle cx="445.41" cy="508.77" r="2.59"/>
        <circle cx="456.42" cy="519.78" r="2.59"/>
        <circle cx="467.43" cy="530.79" r="2.59"/>
        <circle cx="478.44" cy="541.8" r="2.59"/>
        <circle cx="489.45" cy="552.81" r="2.59"/>
        <circle cx="500.46" cy="563.82" r="2.59"/>
        <circle cx="379.33" cy="420.7" r="2.59"/>
        <circle cx="390.34" cy="431.71" r="2.59"/>
        <circle cx="423.37" cy="464.74" r="2.59"/>
        <circle cx="434.38" cy="475.75" r="2.59"/>
        <circle cx="445.39" cy="486.76" r="2.59"/>
        <circle cx="456.4" cy="497.77" r="2.59"/>
        <circle cx="467.42" cy="508.78" r="2.59"/>
        <circle cx="478.43" cy="519.79" r="2.59"/>
        <circle cx="489.44" cy="530.8" r="2.59"/>
        <circle cx="500.45" cy="541.81" r="2.59"/>
        <circle cx="511.46" cy="552.83" r="2.59"/>
        <circle cx="522.47" cy="563.84" r="2.59"/>
        <circle cx="445.38" cy="464.75" r="2.59"/>
        <circle cx="456.39" cy="475.77" r="2.59"/>
        <circle cx="467.4" cy="486.78" r="2.59"/>
        <circle cx="478.41" cy="497.79" r="2.59"/>
        <circle cx="489.42" cy="508.8" r="2.59"/>
        <circle cx="500.43" cy="519.81" r="2.59"/>
        <circle cx="511.44" cy="530.82" r="2.59"/>
        <circle cx="522.45" cy="541.83" r="2.59"/>
        <circle cx="533.47" cy="552.84" r="2.59"/>
        <circle cx="544.48" cy="563.85" r="2.59"/>
        <circle cx="467.38" cy="464.77" r="2.59"/>
        <circle cx="478.4" cy="475.78" r="2.59"/>
        <circle cx="489.41" cy="486.79" r="2.59"/>
        <circle cx="500.42" cy="497.8" r="2.59"/>
        <circle cx="511.43" cy="508.81" r="2.59"/>
        <circle cx="522.44" cy="519.82" r="2.59"/>
        <circle cx="533.45" cy="530.83" r="2.59"/>
        <circle cx="544.46" cy="541.85" r="2.59"/>
        <circle cx="489.39" cy="464.79" r="2.59"/>
        <circle cx="500.4" cy="475.8" r="2.59"/>
        <circle cx="511.41" cy="486.81" r="2.59"/>
        <circle cx="522.42" cy="497.82" r="2.59"/>
        <circle cx="533.43" cy="508.83" r="2.59"/>
        <circle cx="544.45" cy="519.84" r="2.59"/>
        <circle cx="555.46" cy="530.85" r="2.59"/>
        <circle cx="566.47" cy="541.86" r="2.59"/>
        <circle cx="511.4" cy="464.8" r="2.59"/>
        <circle cx="522.41" cy="475.81" r="2.59"/>
        <circle cx="533.42" cy="486.82" r="2.59"/>
        <circle cx="544.43" cy="497.83" r="2.59"/>
        <circle cx="555.44" cy="508.84" r="2.59"/>
        <circle cx="566.45" cy="519.85" r="2.59"/>
        <circle cx="577.46" cy="530.87" r="2.59"/>
        <circle cx="588.47" cy="541.88" r="2.59"/>
        <circle cx="533.4" cy="464.82" r="2.59"/>
        <circle cx="544.41" cy="475.83" r="2.59"/>
        <circle cx="555.43" cy="486.84" r="2.59"/>
        <circle cx="566.44" cy="497.85" r="2.59"/>
        <circle cx="577.45" cy="508.86" r="2.59"/>
        <circle cx="588.46" cy="519.87" r="2.59"/>
        <circle cx="599.47" cy="530.88" r="2.59"/>
        <circle cx="555.41" cy="464.83" r="2.59"/>
        <circle cx="566.42" cy="475.84" r="2.59"/>
        <circle cx="577.43" cy="486.85" r="2.59"/>
        <circle cx="588.44" cy="497.86" r="2.59"/>
        <circle cx="599.45" cy="508.87" r="2.59"/>
        <circle cx="566.41" cy="453.84" r="2.59"/>
        <circle cx="577.42" cy="464.85" r="2.59"/>
        <circle cx="588.43" cy="475.86" r="2.59"/>
        <circle cx="599.44" cy="486.87" r="2.59"/>
        <circle cx="610.45" cy="497.88" r="2.59"/>
        <circle cx="621.46" cy="508.89" r="2.59"/>
        <circle cx="566.39" cy="431.83" r="2.59"/>
        <circle cx="577.4" cy="442.84" r="2.59"/>
        <circle cx="588.41" cy="453.85" r="2.59"/>
        <circle cx="599.42" cy="464.86" r="2.59"/>
        <circle cx="610.43" cy="475.87" r="2.59"/>
        <circle cx="621.44" cy="486.88" r="2.59"/>
        <circle cx="632.46" cy="497.89" r="2.59"/>
        <circle cx="643.47" cy="508.9" r="2.59"/>
        <circle cx="588.4" cy="431.84" r="2.59"/>
        <circle cx="599.41" cy="442.86" r="2.59"/>
        <circle cx="610.42" cy="453.87" r="2.59"/>
        <circle cx="621.43" cy="464.88" r="2.59"/>
        <circle cx="632.44" cy="475.89" r="2.59"/>
        <circle cx="643.45" cy="486.9" r="2.59"/>
        <circle cx="610.4" cy="431.86" r="2.59"/>
        <circle cx="621.41" cy="442.87" r="2.59"/>
        <circle cx="632.42" cy="453.88" r="2.59"/>
        <circle cx="643.44" cy="464.89" r="2.59"/>
        <circle cx="654.45" cy="475.9" r="2.59"/>
        <circle cx="665.46" cy="486.91" r="2.59"/>
        <circle cx="632.41" cy="431.88" r="2.59"/>
        <circle cx="643.42" cy="442.89" r="2.59"/>
        <circle cx="654.43" cy="453.9" r="2.59"/>
        <circle cx="665.44" cy="464.91" r="2.59"/>
        <circle cx="676.45" cy="475.92" r="2.59"/>
        <circle cx="687.46" cy="486.93" r="2.59"/>
        <circle cx="654.42" cy="431.89" r="2.59"/>
        <circle cx="665.43" cy="442.9" r="2.59"/>
        <circle cx="676.44" cy="453.91" r="2.59"/>
        <circle cx="687.45" cy="464.92" r="2.59"/>
        <circle cx="676.42" cy="431.91" r="2.59"/>
        <circle cx="687.43" cy="442.92" r="2.59"/>
        <circle cx="698.44" cy="453.93" r="2.59"/>
        <circle cx="709.45" cy="464.94" r="2.59"/>
        <circle cx="698.43" cy="431.92" r="2.59"/>
        <circle cx="709.44" cy="442.93" r="2.59"/>
        <circle cx="720.45" cy="453.94" r="2.59"/>
        <circle cx="731.46" cy="464.95" r="2.59"/>
        <circle cx="720.43" cy="431.94" r="2.59"/>
        <circle cx="731.45" cy="442.95" r="2.59"/>
        <circle cx="742.46" cy="453.96" r="2.59"/>
        <circle cx="753.47" cy="464.97" r="2.59"/>
        <circle cx="742.44" cy="431.95" r="2.59"/>
        <circle cx="753.45" cy="442.96" r="2.59"/>
        <circle cx="764.46" cy="453.97" r="2.59"/>
        <circle cx="775.47" cy="464.98" r="2.59"/>
        <circle cx="764.45" cy="431.97" r="2.59"/>
        <circle cx="775.46" cy="442.98" r="2.59"/>
        <circle cx="786.47" cy="453.99" r="2.59"/>
        <circle cx="797.48" cy="465" r="2.59"/>
        <circle cx="786.45" cy="431.98" r="2.59"/>
        <circle cx="797.46" cy="442.99" r="2.59"/>
        <circle cx="808.47" cy="454" r="2.59"/>
        <circle cx="819.49" cy="465.02" r="2.59"/>
        <circle cx="808.46" cy="432" r="2.59"/>
        <circle cx="819.47" cy="443.01" r="2.59"/>
        <circle cx="830.48" cy="454.02" r="2.59"/>
        <circle cx="841.49" cy="465.03" r="2.59"/>
        <circle cx="830.47" cy="432.01" r="2.59"/>
        <circle cx="841.48" cy="443.02" r="2.59"/>
        <circle cx="852.49" cy="454.03" r="2.59"/>
        <circle cx="863.5" cy="465.05" r="2.59"/>
        <circle cx="852.47" cy="432.03" r="2.59"/>
        <circle cx="863.48" cy="443.04" r="2.59"/>
      </g>
    </g>
    <path d="M335.65,489.62s45.82,40.91,101.38,36,61.62-9.27,61.62-9.27S364.33,492.15,335.65,489.62Z" style="fill: #fff"/>
  </g>
</svg>
