<svg  xmlns="http://www.w3.org/2000/svg" viewBox="0 0 770.94 907.36">
  <defs>
    <clipPath id="clip-path">
      <path d="M14.1,0H707.93s79,24.44,48.53,114.84-171.29,89.45-171.29,89.45S538.54,211,420.54,175.74,183.59,306.11,183.59,306.11s-59.95,65.66,30.46,185.57c17.12,22.84,109.43,70.42,88.5,166.53S193.11,824.74,193.11,824.74s-108.7,90.4-179,92.31Z" style="fill: none"/>
    </clipPath>
  </defs>
  <g style="clip-path: url(#clip-path)">
    <g>
      <circle cx="21.24" cy="8.78" r="6.7"/>
      <circle cx="64.42" cy="8.77" r="6.7"/>
      <circle cx="42.83" cy="30.37" r="6.7"/>
      <circle cx="21.23" cy="51.96" r="6.7"/>
      <circle cx="107.61" cy="8.76" r="6.7"/>
      <circle cx="86.01" cy="30.35" r="6.7"/>
      <circle cx="64.41" cy="51.95" r="6.7"/>
      <circle cx="42.81" cy="73.55" r="6.7"/>
      <path d="M155.53,4a6.7,6.7,0,1,0,0,9.47A6.71,6.71,0,0,0,155.53,4Z"/>
      <path d="M133.93,25.61a6.7,6.7,0,1,0,0,9.47A6.69,6.69,0,0,0,133.93,25.61Z"/>
      <path d="M112.33,47.21a6.7,6.7,0,1,0,0,9.47A6.69,6.69,0,0,0,112.33,47.21Z"/>
      <path d="M90.73,68.81a6.69,6.69,0,1,0,0,9.46A6.69,6.69,0,0,0,90.73,68.81Z"/>
      <path d="M69.13,90.4a6.69,6.69,0,1,0,0,9.47A6.69,6.69,0,0,0,69.13,90.4Z"/>
      <path d="M198.71,4a6.7,6.7,0,1,0,0,9.47A6.69,6.69,0,0,0,198.71,4Z"/>
      <path d="M177.11,25.6a6.69,6.69,0,1,0,0,9.47A6.68,6.68,0,0,0,177.11,25.6Z"/>
      <path d="M155.52,47.2a6.69,6.69,0,1,0,0,9.46A6.69,6.69,0,0,0,155.52,47.2Z"/>
      <path d="M133.92,68.79a6.7,6.7,0,1,0,0,9.47A6.71,6.71,0,0,0,133.92,68.79Z"/>
      <path d="M112.32,90.39a6.7,6.7,0,1,0,0,9.47A6.71,6.71,0,0,0,112.32,90.39Z"/>
      <path d="M90.72,112a6.7,6.7,0,1,0,0,9.47A6.71,6.71,0,0,0,90.72,112Z"/>
      <circle cx="237.16" cy="8.72" r="6.7"/>
      <circle cx="215.56" cy="30.32" r="6.7"/>
      <circle cx="193.97" cy="51.92" r="6.7"/>
      <circle cx="172.37" cy="73.52" r="6.7"/>
      <circle cx="150.77" cy="95.11" r="6.7"/>
      <circle cx="129.17" cy="116.71" r="6.7"/>
      <circle cx="107.57" cy="138.31" r="6.7"/>
      <circle cx="280.35" cy="8.71" r="6.7"/>
      <circle cx="258.75" cy="30.31" r="6.7"/>
      <circle cx="237.15" cy="51.91" r="6.7"/>
      <circle cx="215.55" cy="73.51" r="6.7"/>
      <circle cx="193.95" cy="95.1" r="6.7"/>
      <circle cx="172.36" cy="116.7" r="6.7"/>
      <circle cx="150.76" cy="138.3" r="6.7"/>
      <circle cx="129.16" cy="159.9" r="6.7"/>
      <circle cx="323.53" cy="8.7" r="6.7"/>
      <circle cx="301.93" cy="30.3" r="6.7"/>
      <circle cx="280.34" cy="51.9" r="6.7"/>
      <circle cx="258.74" cy="73.49" r="6.7"/>
      <circle cx="237.14" cy="95.09" r="6.7"/>
      <circle cx="215.54" cy="116.69" r="6.7"/>
      <circle cx="193.94" cy="138.29" r="6.7"/>
      <circle cx="172.35" cy="159.89" r="6.7"/>
      <circle cx="150.75" cy="181.48" r="6.7"/>
      <circle cx="366.72" cy="8.69" r="6.7"/>
      <circle cx="345.12" cy="30.29" r="6.7"/>
      <circle cx="323.52" cy="51.88" r="6.7"/>
      <circle cx="301.92" cy="73.48" r="6.7"/>
      <circle cx="280.32" cy="95.08" r="6.7"/>
      <circle cx="258.73" cy="116.68" r="6.7"/>
      <circle cx="237.13" cy="138.28" r="6.7"/>
      <circle cx="215.53" cy="159.87" r="6.7"/>
      <circle cx="193.93" cy="181.47" r="6.7"/>
      <circle cx="172.33" cy="203.07" r="6.7"/>
      <circle cx="409.9" cy="8.68" r="6.7"/>
      <circle cx="388.3" cy="30.27" r="6.7"/>
      <circle cx="366.71" cy="51.87" r="6.7"/>
      <circle cx="345.11" cy="73.47" r="6.7"/>
      <circle cx="323.51" cy="95.07" r="6.7"/>
      <circle cx="301.91" cy="116.67" r="6.7"/>
      <circle cx="280.31" cy="138.27" r="6.7"/>
      <circle cx="258.71" cy="159.86" r="6.7"/>
      <circle cx="237.12" cy="181.46" r="6.7"/>
      <circle cx="215.52" cy="203.06" r="6.7"/>
      <circle cx="193.92" cy="224.66" r="6.7"/>
      <circle cx="453.09" cy="8.67" r="6.7"/>
      <circle cx="431.49" cy="30.26" r="6.7"/>
      <circle cx="409.89" cy="51.86" r="6.7"/>
      <circle cx="388.29" cy="73.46" r="6.7"/>
      <circle cx="366.69" cy="95.06" r="6.7"/>
      <circle cx="345.1" cy="116.66" r="6.7"/>
      <circle cx="323.5" cy="138.25" r="6.7"/>
      <circle cx="301.9" cy="159.85" r="6.7"/>
      <circle cx="280.3" cy="181.45" r="6.7"/>
      <circle cx="258.7" cy="203.05" r="6.7"/>
      <circle cx="237.11" cy="224.65" r="6.7"/>
      <circle cx="215.51" cy="246.24" r="6.7"/>
      <circle cx="496.27" cy="8.65" r="6.7"/>
      <circle cx="474.67" cy="30.25" r="6.7"/>
      <circle cx="453.07" cy="51.85" r="6.7"/>
      <circle cx="431.48" cy="73.45" r="6.7"/>
      <circle cx="409.88" cy="95.05" r="6.7"/>
      <circle cx="388.28" cy="116.64" r="6.7"/>
      <circle cx="366.68" cy="138.24" r="6.7"/>
      <circle cx="345.08" cy="159.84" r="6.7"/>
      <circle cx="323.49" cy="181.44" r="6.7"/>
      <circle cx="301.89" cy="203.04" r="6.7"/>
      <circle cx="280.29" cy="224.63" r="6.7"/>
      <circle cx="237.09" cy="267.83" r="6.7"/>
      <path d="M544.19,3.91a6.7,6.7,0,1,0,0,9.47A6.69,6.69,0,0,0,544.19,3.91Z"/>
      <path d="M522.59,25.51a6.69,6.69,0,1,0,0,9.46A6.69,6.69,0,0,0,522.59,25.51Z"/>
      <path d="M501,47.1a6.69,6.69,0,1,0,0,9.47A6.69,6.69,0,0,0,501,47.1Z"/>
      <path d="M479.4,68.7a6.7,6.7,0,1,0,0,9.47A6.71,6.71,0,0,0,479.4,68.7Z"/>
      <path d="M457.8,90.3a6.7,6.7,0,1,0,0,9.47A6.71,6.71,0,0,0,457.8,90.3Z"/>
      <path d="M436.2,111.9a6.7,6.7,0,1,0,0,9.47A6.69,6.69,0,0,0,436.2,111.9Z"/>
      <path d="M414.6,133.5a6.7,6.7,0,1,0,0,9.47A6.69,6.69,0,0,0,414.6,133.5Z"/>
      <path d="M393,155.09a6.7,6.7,0,1,0,0,9.47A6.71,6.71,0,0,0,393,155.09Z"/>
      <path d="M371.41,176.69a6.7,6.7,0,1,0,0,9.47A6.71,6.71,0,0,0,371.41,176.69Z"/>
      <path d="M587.37,3.9a6.69,6.69,0,1,0,0,9.47A6.68,6.68,0,0,0,587.37,3.9Z"/>
      <path d="M565.78,25.49a6.7,6.7,0,1,0,0,9.47A6.71,6.71,0,0,0,565.78,25.49Z"/>
      <path d="M544.18,47.09a6.7,6.7,0,1,0,0,9.47A6.71,6.71,0,0,0,544.18,47.09Z"/>
      <path d="M522.58,68.69a6.7,6.7,0,1,0,0,9.47A6.71,6.71,0,0,0,522.58,68.69Z"/>
      <path d="M501,90.29a6.7,6.7,0,1,0,0,9.47A6.69,6.69,0,0,0,501,90.29Z"/>
      <path d="M479.38,111.89a6.69,6.69,0,1,0,0,9.47A6.68,6.68,0,0,0,479.38,111.89Z"/>
      <path d="M457.79,133.48a6.7,6.7,0,1,0,0,9.47A6.71,6.71,0,0,0,457.79,133.48Z"/>
      <path d="M436.19,155.08a6.7,6.7,0,1,0,0,9.47A6.71,6.71,0,0,0,436.19,155.08Z"/>
      <path d="M414.59,176.68a6.7,6.7,0,1,0,0,9.47A6.71,6.71,0,0,0,414.59,176.68Z"/>
      <path d="M630.56,3.88a6.7,6.7,0,1,0,0,9.47A6.7,6.7,0,0,0,630.56,3.88Z"/>
      <path d="M609,25.48A6.7,6.7,0,1,0,609,35,6.71,6.71,0,0,0,609,25.48Z"/>
      <path d="M587.36,47.08a6.7,6.7,0,1,0,0,9.47A6.71,6.71,0,0,0,587.36,47.08Z"/>
      <circle cx="561.03" cy="73.41" r="6.7"/>
      <circle cx="539.43" cy="95.01" r="6.7"/>
      <circle cx="517.83" cy="116.61" r="6.7"/>
      <circle cx="496.24" cy="138.21" r="6.7"/>
      <circle cx="474.64" cy="159.81" r="6.7"/>
      <circle cx="453.04" cy="181.4" r="6.7"/>
      <circle cx="669.01" cy="8.61" r="6.7"/>
      <path d="M652.15,25.47a6.7,6.7,0,1,0,0,9.47A6.71,6.71,0,0,0,652.15,25.47Z"/>
      <path d="M630.55,47.07a6.7,6.7,0,1,0,0,9.47A6.7,6.7,0,0,0,630.55,47.07Z"/>
      <path d="M609,68.67a6.7,6.7,0,1,0,0,9.47A6.69,6.69,0,0,0,609,68.67Z"/>
      <circle cx="582.62" cy="95" r="6.7"/>
      <circle cx="561.02" cy="116.6" r="6.7"/>
      <circle cx="539.42" cy="138.2" r="6.7"/>
      <circle cx="517.82" cy="159.79" r="6.7"/>
      <circle cx="496.23" cy="181.39" r="6.7"/>
      <circle cx="474.63" cy="202.99" r="6.7"/>
      <circle cx="21.22" cy="95.15" r="6.7"/>
      <path d="M47.54,112a6.7,6.7,0,1,0,0,9.47A6.71,6.71,0,0,0,47.54,112Z"/>
      <path d="M25.94,133.6a6.7,6.7,0,1,0,0,9.47A6.69,6.69,0,0,0,25.94,133.6Z"/>
      <path d="M69.12,133.59a6.7,6.7,0,1,0,0,9.47A6.69,6.69,0,0,0,69.12,133.59Z"/>
      <path d="M47.53,155.19a6.69,6.69,0,1,0,0,9.46A6.69,6.69,0,0,0,47.53,155.19Z"/>
      <path d="M25.93,176.78a6.7,6.7,0,1,0,0,9.47A6.71,6.71,0,0,0,25.93,176.78Z"/>
      <circle cx="85.98" cy="159.91" r="6.7"/>
      <path d="M69.11,176.77a6.7,6.7,0,1,0,0,9.47A6.71,6.71,0,0,0,69.11,176.77Z"/>
      <path d="M47.51,198.37a6.69,6.69,0,1,0,0,9.47A6.69,6.69,0,0,0,47.51,198.37Z"/>
      <path d="M25.92,220a6.7,6.7,0,1,0,0,9.47A6.69,6.69,0,0,0,25.92,220Z"/>
      <circle cx="107.56" cy="181.5" r="6.7"/>
      <path d="M90.7,198.36a6.7,6.7,0,1,0,0,9.47A6.69,6.69,0,0,0,90.7,198.36Z"/>
      <path d="M69.1,220a6.7,6.7,0,1,0,0,9.47A6.69,6.69,0,0,0,69.1,220Z"/>
      <path d="M47.5,241.56a6.69,6.69,0,1,0,0,9.46A6.69,6.69,0,0,0,47.5,241.56Z"/>
      <circle cx="21.17" cy="267.89" r="6.7"/>
      <circle cx="129.15" cy="203.08" r="6.7"/>
      <path d="M112.29,220a6.69,6.69,0,1,0,0,9.46A6.69,6.69,0,0,0,112.29,220Z"/>
      <path d="M90.69,241.54a6.7,6.7,0,1,0,0,9.47A6.71,6.71,0,0,0,90.69,241.54Z"/>
      <path d="M69.09,263.14a6.7,6.7,0,1,0,0,9.47A6.71,6.71,0,0,0,69.09,263.14Z"/>
      <circle cx="42.76" cy="289.47" r="6.7"/>
      <circle cx="21.16" cy="311.07" r="6.7"/>
      <circle cx="150.74" cy="224.67" r="6.7"/>
      <path d="M133.87,241.53a6.7,6.7,0,1,0,0,9.47A6.71,6.71,0,0,0,133.87,241.53Z"/>
      <path d="M112.27,263.13a6.69,6.69,0,1,0,0,9.47A6.69,6.69,0,0,0,112.27,263.13Z"/>
      <path d="M90.68,284.73a6.7,6.7,0,1,0,0,9.47A6.69,6.69,0,0,0,90.68,284.73Z"/>
      <circle cx="64.34" cy="311.06" r="6.7"/>
      <circle cx="42.75" cy="332.66" r="6.7"/>
      <circle cx="21.15" cy="354.26" r="6.7"/>
      <circle cx="172.32" cy="246.26" r="6.7"/>
      <path d="M155.46,263.12a6.7,6.7,0,1,0,0,9.47A6.69,6.69,0,0,0,155.46,263.12Z"/>
      <path d="M133.86,284.72a6.7,6.7,0,1,0,0,9.47A6.69,6.69,0,0,0,133.86,284.72Z"/>
      <path d="M112.26,306.32a6.69,6.69,0,1,0,0,9.46A6.69,6.69,0,0,0,112.26,306.32Z"/>
      <circle cx="85.93" cy="332.65" r="6.7"/>
      <circle cx="64.33" cy="354.25" r="6.7"/>
      <circle cx="42.73" cy="375.84" r="6.7"/>
      <circle cx="21.14" cy="397.44" r="6.7"/>
      <circle cx="193.91" cy="267.84" r="6.7"/>
      <path d="M177.05,284.71a6.69,6.69,0,1,0,0,9.46A6.69,6.69,0,0,0,177.05,284.71Z"/>
      <path d="M155.45,306.3a6.7,6.7,0,1,0,0,9.47A6.71,6.71,0,0,0,155.45,306.3Z"/>
      <path d="M133.85,327.9a6.7,6.7,0,1,0,0,9.47A6.71,6.71,0,0,0,133.85,327.9Z"/>
      <circle cx="107.52" cy="354.23" r="6.7"/>
      <circle cx="85.92" cy="375.83" r="6.7"/>
      <circle cx="64.32" cy="397.43" r="6.7"/>
      <circle cx="42.72" cy="419.03" r="6.7"/>
      <circle cx="21.12" cy="440.63" r="6.7"/>
      <path d="M198.63,306.29a6.7,6.7,0,1,0,0,9.47A6.71,6.71,0,0,0,198.63,306.29Z"/>
      <path d="M177,327.89a6.69,6.69,0,1,0,0,9.47A6.69,6.69,0,0,0,177,327.89Z"/>
      <path d="M155.44,349.49a6.7,6.7,0,1,0,0,9.47A6.69,6.69,0,0,0,155.44,349.49Z"/>
      <circle cx="129.1" cy="375.82" r="6.7"/>
      <circle cx="107.51" cy="397.42" r="6.7"/>
      <circle cx="85.91" cy="419.02" r="6.7"/>
      <circle cx="64.31" cy="440.62" r="6.7"/>
      <circle cx="42.71" cy="462.21" r="6.7"/>
      <circle cx="21.11" cy="483.81" r="6.7"/>
      <path d="M177,371.08a6.69,6.69,0,1,0,0,9.46A6.69,6.69,0,0,0,177,371.08Z"/>
      <path d="M155.42,392.67a6.69,6.69,0,1,0,0,9.47A6.69,6.69,0,0,0,155.42,392.67Z"/>
      <path d="M133.83,414.27a6.7,6.7,0,1,0,0,9.47A6.71,6.71,0,0,0,133.83,414.27Z"/>
      <path d="M112.23,435.87a6.7,6.7,0,1,0,0,9.47A6.71,6.71,0,0,0,112.23,435.87Z"/>
      <path d="M90.63,457.47a6.7,6.7,0,1,0,0,9.47A6.69,6.69,0,0,0,90.63,457.47Z"/>
      <path d="M69,479.07a6.69,6.69,0,1,0,0,9.46A6.69,6.69,0,0,0,69,479.07Z"/>
      <path d="M47.43,500.66a6.69,6.69,0,1,0,0,9.47A6.71,6.71,0,0,0,47.43,500.66Z"/>
      <path d="M25.84,522.26a6.7,6.7,0,1,0,0,9.47A6.71,6.71,0,0,0,25.84,522.26Z"/>
      <path d="M177,414.26a6.7,6.7,0,1,0,0,9.47A6.71,6.71,0,0,0,177,414.26Z"/>
      <path d="M155.41,435.86a6.7,6.7,0,1,0,0,9.47A6.69,6.69,0,0,0,155.41,435.86Z"/>
      <path d="M133.81,457.46a6.69,6.69,0,1,0,0,9.47A6.68,6.68,0,0,0,133.81,457.46Z"/>
      <path d="M112.22,479.05a6.7,6.7,0,1,0,0,9.47A6.71,6.71,0,0,0,112.22,479.05Z"/>
      <path d="M90.62,500.65a6.7,6.7,0,1,0,0,9.47A6.71,6.71,0,0,0,90.62,500.65Z"/>
      <path d="M69,522.25a6.7,6.7,0,1,0,0,9.47A6.71,6.71,0,0,0,69,522.25Z"/>
      <path d="M47.42,543.85a6.7,6.7,0,1,0,0,9.47A6.69,6.69,0,0,0,47.42,543.85Z"/>
      <path d="M25.82,565.45a6.69,6.69,0,1,0,0,9.47A6.68,6.68,0,0,0,25.82,565.45Z"/>
      <circle cx="193.86" cy="440.58" r="6.7"/>
      <circle cx="172.27" cy="462.18" r="6.7"/>
      <circle cx="150.67" cy="483.78" r="6.7"/>
      <circle cx="129.07" cy="505.38" r="6.7"/>
      <circle cx="107.47" cy="526.97" r="6.7"/>
      <circle cx="85.87" cy="548.57" r="6.7"/>
      <circle cx="64.27" cy="570.17" r="6.7"/>
      <circle cx="42.68" cy="591.77" r="6.7"/>
      <circle cx="21.08" cy="613.37" r="6.7"/>
      <circle cx="215.45" cy="462.17" r="6.7"/>
      <circle cx="193.85" cy="483.77" r="6.7"/>
      <circle cx="172.25" cy="505.36" r="6.7"/>
      <circle cx="150.66" cy="526.96" r="6.7"/>
      <circle cx="129.06" cy="548.56" r="6.7"/>
      <circle cx="107.46" cy="570.16" r="6.7"/>
      <circle cx="85.86" cy="591.76" r="6.7"/>
      <circle cx="64.26" cy="613.35" r="6.7"/>
      <circle cx="42.66" cy="634.95" r="6.7"/>
      <circle cx="21.07" cy="656.55" r="6.7"/>
      <circle cx="712.19" cy="8.6" r="6.7"/>
      <circle cx="690.6" cy="30.19" r="6.7"/>
      <path d="M673.73,47.06a6.7,6.7,0,1,0,0,9.47A6.69,6.69,0,0,0,673.73,47.06Z"/>
      <path d="M652.13,68.66a6.69,6.69,0,1,0,0,9.46A6.68,6.68,0,0,0,652.13,68.66Z"/>
      <path d="M630.54,90.25a6.7,6.7,0,1,0,0,9.47A6.71,6.71,0,0,0,630.54,90.25Z"/>
      <circle cx="604.2" cy="116.59" r="6.7"/>
      <circle cx="582.61" cy="138.18" r="6.7"/>
      <circle cx="561.01" cy="159.78" r="6.7"/>
      <circle cx="539.41" cy="181.38" r="6.7"/>
      <circle cx="517.81" cy="202.98" r="6.7"/>
      <circle cx="733.78" cy="30.18" r="6.7"/>
      <circle cx="712.18" cy="51.78" r="6.7"/>
      <path d="M695.32,68.64a6.7,6.7,0,1,0,0,9.47A6.7,6.7,0,0,0,695.32,68.64Z"/>
      <path d="M673.72,90.24a6.7,6.7,0,1,0,0,9.47A6.71,6.71,0,0,0,673.72,90.24Z"/>
      <path d="M652.12,111.84a6.7,6.7,0,1,0,0,9.47A6.71,6.71,0,0,0,652.12,111.84Z"/>
      <circle cx="625.79" cy="138.17" r="6.7"/>
      <circle cx="604.19" cy="159.77" r="6.7"/>
      <circle cx="582.59" cy="181.37" r="6.7"/>
      <circle cx="561" cy="202.97" r="6.7"/>
      <circle cx="755.37" cy="51.77" r="6.7"/>
      <circle cx="733.77" cy="73.37" r="6.7"/>
      <path d="M716.91,90.23a6.7,6.7,0,1,0,0,9.47A6.71,6.71,0,0,0,716.91,90.23Z"/>
      <path d="M695.31,111.83a6.7,6.7,0,1,0,0,9.47A6.7,6.7,0,0,0,695.31,111.83Z"/>
      <path d="M673.71,133.43a6.7,6.7,0,1,0,0,9.47A6.69,6.69,0,0,0,673.71,133.43Z"/>
      <circle cx="647.38" cy="159.76" r="6.7"/>
      <circle cx="625.78" cy="181.36" r="6.7"/>
      <circle cx="604.18" cy="202.96" r="6.7"/>
      <circle cx="755.36" cy="94.95" r="6.7"/>
      <path d="M738.49,111.82a6.7,6.7,0,1,0,0,9.47A6.69,6.69,0,0,0,738.49,111.82Z"/>
      <path d="M716.89,133.42a6.69,6.69,0,1,0,0,9.46A6.68,6.68,0,0,0,716.89,133.42Z"/>
      <path d="M695.3,155a6.7,6.7,0,1,0,0,9.47A6.71,6.71,0,0,0,695.3,155Z"/>
      <circle cx="668.96" cy="181.35" r="6.7"/>
      <circle cx="647.37" cy="202.94" r="6.7"/>
      <path d="M760.08,133.4a6.7,6.7,0,1,0,0,9.47A6.7,6.7,0,0,0,760.08,133.4Z"/>
      <path d="M738.48,155a6.7,6.7,0,1,0,0,9.47A6.71,6.71,0,0,0,738.48,155Z"/>
      <path d="M716.88,176.6a6.7,6.7,0,1,0,0,9.47A6.71,6.71,0,0,0,716.88,176.6Z"/>
      <circle cx="237.04" cy="483.75" r="6.7"/>
      <circle cx="215.44" cy="505.35" r="6.7"/>
      <circle cx="193.84" cy="526.95" r="6.7"/>
      <circle cx="172.24" cy="548.55" r="6.7"/>
      <circle cx="150.64" cy="570.15" r="6.7"/>
      <circle cx="129.05" cy="591.75" r="6.7"/>
      <circle cx="107.45" cy="613.34" r="6.7"/>
      <circle cx="85.85" cy="634.94" r="6.7"/>
      <circle cx="64.25" cy="656.54" r="6.7"/>
      <circle cx="42.65" cy="678.14" r="6.7"/>
      <circle cx="21.06" cy="699.74" r="6.7"/>
      <circle cx="237.03" cy="526.94" r="6.7"/>
      <circle cx="215.43" cy="548.54" r="6.7"/>
      <circle cx="193.83" cy="570.14" r="6.7"/>
      <circle cx="172.23" cy="591.73" r="6.7"/>
      <circle cx="150.63" cy="613.33" r="6.7"/>
      <circle cx="129.03" cy="634.93" r="6.7"/>
      <circle cx="107.44" cy="656.53" r="6.7"/>
      <circle cx="85.84" cy="678.13" r="6.7"/>
      <circle cx="64.24" cy="699.72" r="6.7"/>
      <circle cx="42.64" cy="721.32" r="6.7"/>
      <circle cx="21.04" cy="742.92" r="6.7"/>
      <circle cx="280.21" cy="526.93" r="6.7"/>
      <circle cx="258.61" cy="548.53" r="6.7"/>
      <circle cx="237.01" cy="570.12" r="6.7"/>
      <circle cx="215.42" cy="591.72" r="6.7"/>
      <circle cx="193.82" cy="613.32" r="6.7"/>
      <circle cx="172.22" cy="634.92" r="6.7"/>
      <circle cx="150.62" cy="656.52" r="6.7"/>
      <circle cx="129.02" cy="678.11" r="6.7"/>
      <circle cx="107.42" cy="699.71" r="6.7"/>
      <circle cx="85.83" cy="721.31" r="6.7"/>
      <circle cx="64.23" cy="742.91" r="6.7"/>
      <circle cx="42.63" cy="764.51" r="6.7"/>
      <circle cx="21.03" cy="786.11" r="6.7"/>
      <circle cx="301.8" cy="548.51" r="6.7"/>
      <circle cx="280.2" cy="570.11" r="6.7"/>
      <circle cx="258.6" cy="591.71" r="6.7"/>
      <circle cx="237" cy="613.31" r="6.7"/>
      <circle cx="215.4" cy="634.91" r="6.7"/>
      <circle cx="193.81" cy="656.51" r="6.7"/>
      <circle cx="172.21" cy="678.1" r="6.7"/>
      <circle cx="150.61" cy="699.7" r="6.7"/>
      <circle cx="129.01" cy="721.3" r="6.7"/>
      <circle cx="107.41" cy="742.9" r="6.7"/>
      <circle cx="85.82" cy="764.5" r="6.7"/>
      <circle cx="64.22" cy="786.09" r="6.7"/>
      <circle cx="42.62" cy="807.69" r="6.7"/>
      <circle cx="21.02" cy="829.29" r="6.7"/>
      <circle cx="301.79" cy="591.7" r="6.7"/>
      <circle cx="280.19" cy="613.3" r="6.7"/>
      <circle cx="258.59" cy="634.9" r="6.7"/>
      <circle cx="236.99" cy="656.49" r="6.7"/>
      <circle cx="215.39" cy="678.09" r="6.7"/>
      <circle cx="193.79" cy="699.69" r="6.7"/>
      <circle cx="172.2" cy="721.29" r="6.7"/>
      <circle cx="150.6" cy="742.89" r="6.7"/>
      <circle cx="129" cy="764.48" r="6.7"/>
      <circle cx="107.4" cy="786.08" r="6.7"/>
      <circle cx="85.8" cy="807.68" r="6.7"/>
      <circle cx="64.21" cy="829.28" r="6.7"/>
      <circle cx="42.61" cy="850.88" r="6.7"/>
      <path d="M25.74,867.74a6.69,6.69,0,1,0,0,9.47A6.69,6.69,0,0,0,25.74,867.74Z"/>
      <path d="M306.51,630.15a6.7,6.7,0,1,0,0,9.47A6.7,6.7,0,0,0,306.51,630.15Z"/>
      <path d="M284.91,651.75a6.7,6.7,0,1,0,0,9.47A6.69,6.69,0,0,0,284.91,651.75Z"/>
      <path d="M263.31,673.35a6.69,6.69,0,1,0,0,9.46A6.69,6.69,0,0,0,263.31,673.35Z"/>
      <path d="M241.71,694.94a6.7,6.7,0,1,0,0,9.47A6.71,6.71,0,0,0,241.71,694.94Z"/>
      <path d="M220.12,716.54a6.7,6.7,0,1,0,0,9.47A6.71,6.71,0,0,0,220.12,716.54Z"/>
      <path d="M198.52,738.14a6.7,6.7,0,1,0,0,9.47A6.71,6.71,0,0,0,198.52,738.14Z"/>
      <path d="M176.92,759.74a6.7,6.7,0,1,0,0,9.47A6.69,6.69,0,0,0,176.92,759.74Z"/>
      <path d="M155.32,781.34a6.7,6.7,0,1,0,0,9.47A6.69,6.69,0,0,0,155.32,781.34Z"/>
      <path d="M133.72,802.93a6.7,6.7,0,1,0,0,9.47A6.71,6.71,0,0,0,133.72,802.93Z"/>
      <path d="M112.12,824.53a6.69,6.69,0,1,0,0,9.47A6.69,6.69,0,0,0,112.12,824.53Z"/>
      <path d="M90.53,846.13a6.7,6.7,0,1,0,0,9.47A6.71,6.71,0,0,0,90.53,846.13Z"/>
      <path d="M68.93,867.73a6.7,6.7,0,1,0,0,9.47A6.69,6.69,0,0,0,68.93,867.73Z"/>
      <path d="M47.33,889.33a6.7,6.7,0,1,0,0,9.47A6.69,6.69,0,0,0,47.33,889.33Z"/>
      <circle cx="301.76" cy="678.07" r="6.7"/>
      <circle cx="280.16" cy="699.67" r="6.7"/>
      <circle cx="258.57" cy="721.26" r="6.7"/>
      <circle cx="236.97" cy="742.86" r="6.7"/>
      <circle cx="215.37" cy="764.46" r="6.7"/>
      <circle cx="193.77" cy="786.06" r="6.7"/>
      <circle cx="172.17" cy="807.66" r="6.7"/>
      <circle cx="150.58" cy="829.26" r="6.7"/>
      <circle cx="128.98" cy="850.85" r="6.7"/>
      <circle cx="107.38" cy="872.45" r="6.7"/>
      <circle cx="85.78" cy="894.05" r="6.7"/>
      <circle cx="258.55" cy="764.45" r="6.7"/>
      <circle cx="236.96" cy="786.05" r="6.7"/>
      <circle cx="215.36" cy="807.65" r="6.7"/>
      <circle cx="193.76" cy="829.24" r="6.7"/>
      <circle cx="172.16" cy="850.84" r="6.7"/>
    </g>
  </g>
</svg>
